%TF.GenerationSoftware,KiCad,Pcbnew,(5.1.6)-1*%
%TF.CreationDate,2020-07-26T11:23:49+05:30*%
%TF.ProjectId,KiCAD Demo- Buck-Boost Regulator,4b694341-4420-4446-956d-6f2d20427563,rev?*%
%TF.SameCoordinates,Original*%
%TF.FileFunction,Paste,Top*%
%TF.FilePolarity,Positive*%
%FSLAX46Y46*%
G04 Gerber Fmt 4.6, Leading zero omitted, Abs format (unit mm)*
G04 Created by KiCad (PCBNEW (5.1.6)-1) date 2020-07-26 11:23:49*
%MOMM*%
%LPD*%
G01*
G04 APERTURE LIST*
%ADD10C,0.150000*%
%ADD11C,0.010000*%
%ADD12R,0.980000X3.400000*%
%ADD13R,0.900000X0.800000*%
%ADD14R,0.250000X0.600000*%
%ADD15R,0.250000X0.900000*%
%ADD16R,0.250000X1.300000*%
G04 APERTURE END LIST*
D10*
X138726190Y-66202380D02*
X138250000Y-66202380D01*
X138250000Y-65202380D01*
X139011904Y-65916666D02*
X139488095Y-65916666D01*
X138916666Y-66202380D02*
X139250000Y-65202380D01*
X139583333Y-66202380D01*
X140107142Y-65726190D02*
X140107142Y-66202380D01*
X139773809Y-65202380D02*
X140107142Y-65726190D01*
X140440476Y-65202380D01*
X140773809Y-65678571D02*
X141107142Y-65678571D01*
X141250000Y-66202380D02*
X140773809Y-66202380D01*
X140773809Y-65202380D01*
X141250000Y-65202380D01*
X142250000Y-66202380D02*
X141916666Y-65726190D01*
X141678571Y-66202380D02*
X141678571Y-65202380D01*
X142059523Y-65202380D01*
X142154761Y-65250000D01*
X142202380Y-65297619D01*
X142250000Y-65392857D01*
X142250000Y-65535714D01*
X142202380Y-65630952D01*
X142154761Y-65678571D01*
X142059523Y-65726190D01*
X141678571Y-65726190D01*
X142630952Y-66154761D02*
X142773809Y-66202380D01*
X143011904Y-66202380D01*
X143107142Y-66154761D01*
X143154761Y-66107142D01*
X143202380Y-66011904D01*
X143202380Y-65916666D01*
X143154761Y-65821428D01*
X143107142Y-65773809D01*
X143011904Y-65726190D01*
X142821428Y-65678571D01*
X142726190Y-65630952D01*
X142678571Y-65583333D01*
X142630952Y-65488095D01*
X142630952Y-65392857D01*
X142678571Y-65297619D01*
X142726190Y-65250000D01*
X142821428Y-65202380D01*
X143059523Y-65202380D01*
X143202380Y-65250000D01*
X144250000Y-65202380D02*
X144821428Y-65202380D01*
X144535714Y-66202380D02*
X144535714Y-65202380D01*
X145107142Y-65916666D02*
X145583333Y-65916666D01*
X145011904Y-66202380D02*
X145345238Y-65202380D01*
X145678571Y-66202380D01*
X146345238Y-65678571D02*
X146488095Y-65726190D01*
X146535714Y-65773809D01*
X146583333Y-65869047D01*
X146583333Y-66011904D01*
X146535714Y-66107142D01*
X146488095Y-66154761D01*
X146392857Y-66202380D01*
X146011904Y-66202380D01*
X146011904Y-65202380D01*
X146345238Y-65202380D01*
X146440476Y-65250000D01*
X146488095Y-65297619D01*
X146535714Y-65392857D01*
X146535714Y-65488095D01*
X146488095Y-65583333D01*
X146440476Y-65630952D01*
X146345238Y-65678571D01*
X146011904Y-65678571D01*
X147488095Y-66202380D02*
X147011904Y-66202380D01*
X147011904Y-65202380D01*
X147821428Y-65678571D02*
X148154761Y-65678571D01*
X148297619Y-66202380D02*
X147821428Y-66202380D01*
X147821428Y-65202380D01*
X148297619Y-65202380D01*
X137321428Y-75154761D02*
X137464285Y-75202380D01*
X137702380Y-75202380D01*
X137797619Y-75154761D01*
X137845238Y-75107142D01*
X137892857Y-75011904D01*
X137892857Y-74916666D01*
X137845238Y-74821428D01*
X137797619Y-74773809D01*
X137702380Y-74726190D01*
X137511904Y-74678571D01*
X137416666Y-74630952D01*
X137369047Y-74583333D01*
X137321428Y-74488095D01*
X137321428Y-74392857D01*
X137369047Y-74297619D01*
X137416666Y-74250000D01*
X137511904Y-74202380D01*
X137750000Y-74202380D01*
X137892857Y-74250000D01*
X138464285Y-75202380D02*
X138369047Y-75154761D01*
X138321428Y-75107142D01*
X138273809Y-75011904D01*
X138273809Y-74726190D01*
X138321428Y-74630952D01*
X138369047Y-74583333D01*
X138464285Y-74535714D01*
X138607142Y-74535714D01*
X138702380Y-74583333D01*
X138750000Y-74630952D01*
X138797619Y-74726190D01*
X138797619Y-75011904D01*
X138750000Y-75107142D01*
X138702380Y-75154761D01*
X138607142Y-75202380D01*
X138464285Y-75202380D01*
X139369047Y-75202380D02*
X139273809Y-75154761D01*
X139226190Y-75059523D01*
X139226190Y-74202380D01*
X140178571Y-75202380D02*
X140178571Y-74202380D01*
X140178571Y-75154761D02*
X140083333Y-75202380D01*
X139892857Y-75202380D01*
X139797619Y-75154761D01*
X139750000Y-75107142D01*
X139702380Y-75011904D01*
X139702380Y-74726190D01*
X139750000Y-74630952D01*
X139797619Y-74583333D01*
X139892857Y-74535714D01*
X140083333Y-74535714D01*
X140178571Y-74583333D01*
X141035714Y-75154761D02*
X140940476Y-75202380D01*
X140750000Y-75202380D01*
X140654761Y-75154761D01*
X140607142Y-75059523D01*
X140607142Y-74678571D01*
X140654761Y-74583333D01*
X140750000Y-74535714D01*
X140940476Y-74535714D01*
X141035714Y-74583333D01*
X141083333Y-74678571D01*
X141083333Y-74773809D01*
X140607142Y-74869047D01*
X141511904Y-75202380D02*
X141511904Y-74535714D01*
X141511904Y-74726190D02*
X141559523Y-74630952D01*
X141607142Y-74583333D01*
X141702380Y-74535714D01*
X141797619Y-74535714D01*
X142130952Y-75202380D02*
X142130952Y-74202380D01*
X142511904Y-74202380D01*
X142607142Y-74250000D01*
X142654761Y-74297619D01*
X142702380Y-74392857D01*
X142702380Y-74535714D01*
X142654761Y-74630952D01*
X142607142Y-74678571D01*
X142511904Y-74726190D01*
X142130952Y-74726190D01*
X143559523Y-75202380D02*
X143559523Y-74678571D01*
X143511904Y-74583333D01*
X143416666Y-74535714D01*
X143226190Y-74535714D01*
X143130952Y-74583333D01*
X143559523Y-75154761D02*
X143464285Y-75202380D01*
X143226190Y-75202380D01*
X143130952Y-75154761D01*
X143083333Y-75059523D01*
X143083333Y-74964285D01*
X143130952Y-74869047D01*
X143226190Y-74821428D01*
X143464285Y-74821428D01*
X143559523Y-74773809D01*
X143988095Y-75154761D02*
X144083333Y-75202380D01*
X144273809Y-75202380D01*
X144369047Y-75154761D01*
X144416666Y-75059523D01*
X144416666Y-75011904D01*
X144369047Y-74916666D01*
X144273809Y-74869047D01*
X144130952Y-74869047D01*
X144035714Y-74821428D01*
X143988095Y-74726190D01*
X143988095Y-74678571D01*
X144035714Y-74583333D01*
X144130952Y-74535714D01*
X144273809Y-74535714D01*
X144369047Y-74583333D01*
X144702380Y-74535714D02*
X145083333Y-74535714D01*
X144845238Y-74202380D02*
X144845238Y-75059523D01*
X144892857Y-75154761D01*
X144988095Y-75202380D01*
X145083333Y-75202380D01*
X145797619Y-75154761D02*
X145702380Y-75202380D01*
X145511904Y-75202380D01*
X145416666Y-75154761D01*
X145369047Y-75059523D01*
X145369047Y-74678571D01*
X145416666Y-74583333D01*
X145511904Y-74535714D01*
X145702380Y-74535714D01*
X145797619Y-74583333D01*
X145845238Y-74678571D01*
X145845238Y-74773809D01*
X145369047Y-74869047D01*
X146892857Y-74202380D02*
X147464285Y-74202380D01*
X147178571Y-75202380D02*
X147178571Y-74202380D01*
X147940476Y-75202380D02*
X147845238Y-75154761D01*
X147797619Y-75107142D01*
X147750000Y-75011904D01*
X147750000Y-74726190D01*
X147797619Y-74630952D01*
X147845238Y-74583333D01*
X147940476Y-74535714D01*
X148083333Y-74535714D01*
X148178571Y-74583333D01*
X148226190Y-74630952D01*
X148273809Y-74726190D01*
X148273809Y-75011904D01*
X148226190Y-75107142D01*
X148178571Y-75154761D01*
X148083333Y-75202380D01*
X147940476Y-75202380D01*
X148702380Y-74535714D02*
X148702380Y-75535714D01*
X148702380Y-74583333D02*
X148797619Y-74535714D01*
X148988095Y-74535714D01*
X149083333Y-74583333D01*
X149130952Y-74630952D01*
X149178571Y-74726190D01*
X149178571Y-75011904D01*
X149130952Y-75107142D01*
X149083333Y-75154761D01*
X148988095Y-75202380D01*
X148797619Y-75202380D01*
X148702380Y-75154761D01*
X135750000Y-93750000D02*
X135750000Y-91250000D01*
X135750000Y-97250000D02*
X150750000Y-97250000D01*
X150750000Y-93750000D02*
X135750000Y-93750000D01*
X135750000Y-91250000D02*
X150750000Y-91250000D01*
X150750000Y-91250000D02*
X150750000Y-93750000D01*
X135750000Y-99750000D02*
X135750000Y-97250000D01*
X135750000Y-94250000D02*
X150750000Y-94250000D01*
X150750000Y-97250000D02*
X150750000Y-99750000D01*
X150750000Y-94250000D02*
X150750000Y-96750000D01*
X150750000Y-99750000D02*
X135750000Y-99750000D01*
X150750000Y-96750000D02*
X135750000Y-96750000D01*
X135750000Y-96750000D02*
X135750000Y-94250000D01*
X150750000Y-82250000D02*
X150750000Y-84750000D01*
X135750000Y-82250000D02*
X150750000Y-82250000D01*
X135750000Y-85250000D02*
X150750000Y-85250000D01*
X150750000Y-85250000D02*
X150750000Y-87750000D01*
X135750000Y-90750000D02*
X135750000Y-88250000D01*
X150750000Y-88250000D02*
X150750000Y-90750000D01*
X150750000Y-90750000D02*
X135750000Y-90750000D01*
X135750000Y-88250000D02*
X150750000Y-88250000D01*
X135750000Y-84750000D02*
X135750000Y-82250000D01*
X150750000Y-84750000D02*
X135750000Y-84750000D01*
X150750000Y-87750000D02*
X135750000Y-87750000D01*
X135750000Y-87750000D02*
X135750000Y-85250000D01*
X135750000Y-79250000D02*
X150750000Y-79250000D01*
X150750000Y-79250000D02*
X150750000Y-81750000D01*
X150750000Y-81750000D02*
X135750000Y-81750000D01*
X135750000Y-81750000D02*
X135750000Y-79250000D01*
X135750000Y-76250000D02*
X150750000Y-76250000D01*
X150750000Y-76250000D02*
X150750000Y-78750000D01*
X150750000Y-78750000D02*
X135750000Y-78750000D01*
X135750000Y-78750000D02*
X135750000Y-76250000D01*
X135750000Y-73250000D02*
X150750000Y-73250000D01*
X150750000Y-73250000D02*
X150750000Y-75750000D01*
X150750000Y-75750000D02*
X135750000Y-75750000D01*
X135750000Y-75750000D02*
X135750000Y-73250000D01*
X135750000Y-70250000D02*
X150750000Y-70250000D01*
X150750000Y-70250000D02*
X150750000Y-72750000D01*
X150750000Y-72750000D02*
X135750000Y-72750000D01*
X135750000Y-72750000D02*
X135750000Y-70250000D01*
X135750000Y-69750000D02*
X135750000Y-67250000D01*
X150750000Y-69750000D02*
X135750000Y-69750000D01*
X150750000Y-67250000D02*
X150750000Y-69750000D01*
X135750000Y-67250000D02*
X150750000Y-67250000D01*
D11*
%TO.C,U1*%
G36*
X111625000Y-80200000D02*
G01*
X111625000Y-80650000D01*
X111624931Y-80652617D01*
X111624726Y-80655226D01*
X111624384Y-80657822D01*
X111623907Y-80660396D01*
X111623296Y-80662941D01*
X111622553Y-80665451D01*
X111621679Y-80667918D01*
X111620677Y-80670337D01*
X111619550Y-80672700D01*
X111618301Y-80675000D01*
X111616934Y-80677232D01*
X111615451Y-80679389D01*
X111613857Y-80681466D01*
X111612157Y-80683457D01*
X111610355Y-80685355D01*
X111608457Y-80687157D01*
X111606466Y-80688857D01*
X111604389Y-80690451D01*
X111602232Y-80691934D01*
X111600000Y-80693301D01*
X111597700Y-80694550D01*
X111595337Y-80695677D01*
X111592918Y-80696679D01*
X111590451Y-80697553D01*
X111587941Y-80698296D01*
X111585396Y-80698907D01*
X111582822Y-80699384D01*
X111580226Y-80699726D01*
X111577617Y-80699932D01*
X111575000Y-80700000D01*
X111425000Y-80700000D01*
X111422383Y-80699932D01*
X111419774Y-80699726D01*
X111417178Y-80699384D01*
X111414604Y-80698907D01*
X111412059Y-80698296D01*
X111409549Y-80697553D01*
X111407082Y-80696679D01*
X111404663Y-80695677D01*
X111402300Y-80694550D01*
X111400000Y-80693301D01*
X111397768Y-80691934D01*
X111395611Y-80690451D01*
X111393534Y-80688857D01*
X111391543Y-80687157D01*
X111389645Y-80685355D01*
X111387843Y-80683457D01*
X111386143Y-80681466D01*
X111384549Y-80679389D01*
X111383066Y-80677232D01*
X111381699Y-80675000D01*
X111380450Y-80672700D01*
X111379323Y-80670337D01*
X111378321Y-80667918D01*
X111377447Y-80665451D01*
X111376704Y-80662941D01*
X111376093Y-80660396D01*
X111375616Y-80657822D01*
X111375274Y-80655226D01*
X111375069Y-80652617D01*
X111375000Y-80650000D01*
X111375000Y-80200000D01*
X111375069Y-80197383D01*
X111375274Y-80194774D01*
X111375616Y-80192178D01*
X111376093Y-80189604D01*
X111376704Y-80187059D01*
X111377447Y-80184549D01*
X111378321Y-80182082D01*
X111379323Y-80179663D01*
X111380450Y-80177300D01*
X111381699Y-80175000D01*
X111383066Y-80172768D01*
X111384549Y-80170611D01*
X111386143Y-80168534D01*
X111387843Y-80166543D01*
X111389645Y-80164645D01*
X111391543Y-80162843D01*
X111393534Y-80161143D01*
X111395611Y-80159549D01*
X111397768Y-80158066D01*
X111400000Y-80156699D01*
X111402300Y-80155450D01*
X111404663Y-80154323D01*
X111407082Y-80153321D01*
X111409549Y-80152447D01*
X111412059Y-80151704D01*
X111414604Y-80151093D01*
X111417178Y-80150616D01*
X111419774Y-80150274D01*
X111422383Y-80150069D01*
X111425000Y-80150000D01*
X111575000Y-80150000D01*
X111577617Y-80150069D01*
X111580226Y-80150274D01*
X111582822Y-80150616D01*
X111585396Y-80151093D01*
X111587941Y-80151704D01*
X111590451Y-80152447D01*
X111592918Y-80153321D01*
X111595337Y-80154323D01*
X111597700Y-80155450D01*
X111600000Y-80156699D01*
X111602232Y-80158066D01*
X111604389Y-80159549D01*
X111606466Y-80161143D01*
X111608457Y-80162843D01*
X111610355Y-80164645D01*
X111612157Y-80166543D01*
X111613857Y-80168534D01*
X111615451Y-80170611D01*
X111616934Y-80172768D01*
X111618301Y-80175000D01*
X111619550Y-80177300D01*
X111620677Y-80179663D01*
X111621679Y-80182082D01*
X111622553Y-80184549D01*
X111623296Y-80187059D01*
X111623907Y-80189604D01*
X111624384Y-80192178D01*
X111624726Y-80194774D01*
X111624931Y-80197383D01*
X111625000Y-80200000D01*
G37*
X111625000Y-80200000D02*
X111625000Y-80650000D01*
X111624931Y-80652617D01*
X111624726Y-80655226D01*
X111624384Y-80657822D01*
X111623907Y-80660396D01*
X111623296Y-80662941D01*
X111622553Y-80665451D01*
X111621679Y-80667918D01*
X111620677Y-80670337D01*
X111619550Y-80672700D01*
X111618301Y-80675000D01*
X111616934Y-80677232D01*
X111615451Y-80679389D01*
X111613857Y-80681466D01*
X111612157Y-80683457D01*
X111610355Y-80685355D01*
X111608457Y-80687157D01*
X111606466Y-80688857D01*
X111604389Y-80690451D01*
X111602232Y-80691934D01*
X111600000Y-80693301D01*
X111597700Y-80694550D01*
X111595337Y-80695677D01*
X111592918Y-80696679D01*
X111590451Y-80697553D01*
X111587941Y-80698296D01*
X111585396Y-80698907D01*
X111582822Y-80699384D01*
X111580226Y-80699726D01*
X111577617Y-80699932D01*
X111575000Y-80700000D01*
X111425000Y-80700000D01*
X111422383Y-80699932D01*
X111419774Y-80699726D01*
X111417178Y-80699384D01*
X111414604Y-80698907D01*
X111412059Y-80698296D01*
X111409549Y-80697553D01*
X111407082Y-80696679D01*
X111404663Y-80695677D01*
X111402300Y-80694550D01*
X111400000Y-80693301D01*
X111397768Y-80691934D01*
X111395611Y-80690451D01*
X111393534Y-80688857D01*
X111391543Y-80687157D01*
X111389645Y-80685355D01*
X111387843Y-80683457D01*
X111386143Y-80681466D01*
X111384549Y-80679389D01*
X111383066Y-80677232D01*
X111381699Y-80675000D01*
X111380450Y-80672700D01*
X111379323Y-80670337D01*
X111378321Y-80667918D01*
X111377447Y-80665451D01*
X111376704Y-80662941D01*
X111376093Y-80660396D01*
X111375616Y-80657822D01*
X111375274Y-80655226D01*
X111375069Y-80652617D01*
X111375000Y-80650000D01*
X111375000Y-80200000D01*
X111375069Y-80197383D01*
X111375274Y-80194774D01*
X111375616Y-80192178D01*
X111376093Y-80189604D01*
X111376704Y-80187059D01*
X111377447Y-80184549D01*
X111378321Y-80182082D01*
X111379323Y-80179663D01*
X111380450Y-80177300D01*
X111381699Y-80175000D01*
X111383066Y-80172768D01*
X111384549Y-80170611D01*
X111386143Y-80168534D01*
X111387843Y-80166543D01*
X111389645Y-80164645D01*
X111391543Y-80162843D01*
X111393534Y-80161143D01*
X111395611Y-80159549D01*
X111397768Y-80158066D01*
X111400000Y-80156699D01*
X111402300Y-80155450D01*
X111404663Y-80154323D01*
X111407082Y-80153321D01*
X111409549Y-80152447D01*
X111412059Y-80151704D01*
X111414604Y-80151093D01*
X111417178Y-80150616D01*
X111419774Y-80150274D01*
X111422383Y-80150069D01*
X111425000Y-80150000D01*
X111575000Y-80150000D01*
X111577617Y-80150069D01*
X111580226Y-80150274D01*
X111582822Y-80150616D01*
X111585396Y-80151093D01*
X111587941Y-80151704D01*
X111590451Y-80152447D01*
X111592918Y-80153321D01*
X111595337Y-80154323D01*
X111597700Y-80155450D01*
X111600000Y-80156699D01*
X111602232Y-80158066D01*
X111604389Y-80159549D01*
X111606466Y-80161143D01*
X111608457Y-80162843D01*
X111610355Y-80164645D01*
X111612157Y-80166543D01*
X111613857Y-80168534D01*
X111615451Y-80170611D01*
X111616934Y-80172768D01*
X111618301Y-80175000D01*
X111619550Y-80177300D01*
X111620677Y-80179663D01*
X111621679Y-80182082D01*
X111622553Y-80184549D01*
X111623296Y-80187059D01*
X111623907Y-80189604D01*
X111624384Y-80192178D01*
X111624726Y-80194774D01*
X111624931Y-80197383D01*
X111625000Y-80200000D01*
G36*
X111625000Y-79450000D02*
G01*
X111625000Y-79900000D01*
X111624931Y-79902617D01*
X111624726Y-79905226D01*
X111624384Y-79907822D01*
X111623907Y-79910396D01*
X111623296Y-79912941D01*
X111622553Y-79915451D01*
X111621679Y-79917918D01*
X111620677Y-79920337D01*
X111619550Y-79922700D01*
X111618301Y-79925000D01*
X111616934Y-79927232D01*
X111615451Y-79929389D01*
X111613857Y-79931466D01*
X111612157Y-79933457D01*
X111610355Y-79935355D01*
X111608457Y-79937157D01*
X111606466Y-79938857D01*
X111604389Y-79940451D01*
X111602232Y-79941934D01*
X111600000Y-79943301D01*
X111597700Y-79944550D01*
X111595337Y-79945677D01*
X111592918Y-79946679D01*
X111590451Y-79947553D01*
X111587941Y-79948296D01*
X111585396Y-79948907D01*
X111582822Y-79949384D01*
X111580226Y-79949726D01*
X111577617Y-79949931D01*
X111575000Y-79950000D01*
X111425000Y-79950000D01*
X111422383Y-79949931D01*
X111419774Y-79949726D01*
X111417178Y-79949384D01*
X111414604Y-79948907D01*
X111412059Y-79948296D01*
X111409549Y-79947553D01*
X111407082Y-79946679D01*
X111404663Y-79945677D01*
X111402300Y-79944550D01*
X111400000Y-79943301D01*
X111397768Y-79941934D01*
X111395611Y-79940451D01*
X111393534Y-79938857D01*
X111391543Y-79937157D01*
X111389645Y-79935355D01*
X111387843Y-79933457D01*
X111386143Y-79931466D01*
X111384549Y-79929389D01*
X111383066Y-79927232D01*
X111381699Y-79925000D01*
X111380450Y-79922700D01*
X111379323Y-79920337D01*
X111378321Y-79917918D01*
X111377447Y-79915451D01*
X111376704Y-79912941D01*
X111376093Y-79910396D01*
X111375616Y-79907822D01*
X111375274Y-79905226D01*
X111375069Y-79902617D01*
X111375000Y-79900000D01*
X111375000Y-79450000D01*
X111375069Y-79447380D01*
X111375274Y-79444770D01*
X111375616Y-79442180D01*
X111376093Y-79439600D01*
X111376704Y-79437060D01*
X111377447Y-79434550D01*
X111378321Y-79432080D01*
X111379323Y-79429660D01*
X111380450Y-79427300D01*
X111381699Y-79425000D01*
X111383066Y-79422770D01*
X111384549Y-79420610D01*
X111386143Y-79418530D01*
X111387843Y-79416540D01*
X111389645Y-79414640D01*
X111391543Y-79412840D01*
X111393534Y-79411140D01*
X111395611Y-79409550D01*
X111397768Y-79408070D01*
X111400000Y-79406700D01*
X111402300Y-79405450D01*
X111404663Y-79404320D01*
X111407082Y-79403320D01*
X111409549Y-79402450D01*
X111412059Y-79401700D01*
X111414604Y-79401090D01*
X111417178Y-79400620D01*
X111419774Y-79400270D01*
X111422383Y-79400070D01*
X111425000Y-79400000D01*
X111575000Y-79400000D01*
X111577617Y-79400070D01*
X111580226Y-79400270D01*
X111582822Y-79400620D01*
X111585396Y-79401090D01*
X111587941Y-79401700D01*
X111590451Y-79402450D01*
X111592918Y-79403320D01*
X111595337Y-79404320D01*
X111597700Y-79405450D01*
X111600000Y-79406700D01*
X111602232Y-79408070D01*
X111604389Y-79409550D01*
X111606466Y-79411140D01*
X111608457Y-79412840D01*
X111610355Y-79414640D01*
X111612157Y-79416540D01*
X111613857Y-79418530D01*
X111615451Y-79420610D01*
X111616934Y-79422770D01*
X111618301Y-79425000D01*
X111619550Y-79427300D01*
X111620677Y-79429660D01*
X111621679Y-79432080D01*
X111622553Y-79434550D01*
X111623296Y-79437060D01*
X111623907Y-79439600D01*
X111624384Y-79442180D01*
X111624726Y-79444770D01*
X111624931Y-79447380D01*
X111625000Y-79450000D01*
G37*
X111625000Y-79450000D02*
X111625000Y-79900000D01*
X111624931Y-79902617D01*
X111624726Y-79905226D01*
X111624384Y-79907822D01*
X111623907Y-79910396D01*
X111623296Y-79912941D01*
X111622553Y-79915451D01*
X111621679Y-79917918D01*
X111620677Y-79920337D01*
X111619550Y-79922700D01*
X111618301Y-79925000D01*
X111616934Y-79927232D01*
X111615451Y-79929389D01*
X111613857Y-79931466D01*
X111612157Y-79933457D01*
X111610355Y-79935355D01*
X111608457Y-79937157D01*
X111606466Y-79938857D01*
X111604389Y-79940451D01*
X111602232Y-79941934D01*
X111600000Y-79943301D01*
X111597700Y-79944550D01*
X111595337Y-79945677D01*
X111592918Y-79946679D01*
X111590451Y-79947553D01*
X111587941Y-79948296D01*
X111585396Y-79948907D01*
X111582822Y-79949384D01*
X111580226Y-79949726D01*
X111577617Y-79949931D01*
X111575000Y-79950000D01*
X111425000Y-79950000D01*
X111422383Y-79949931D01*
X111419774Y-79949726D01*
X111417178Y-79949384D01*
X111414604Y-79948907D01*
X111412059Y-79948296D01*
X111409549Y-79947553D01*
X111407082Y-79946679D01*
X111404663Y-79945677D01*
X111402300Y-79944550D01*
X111400000Y-79943301D01*
X111397768Y-79941934D01*
X111395611Y-79940451D01*
X111393534Y-79938857D01*
X111391543Y-79937157D01*
X111389645Y-79935355D01*
X111387843Y-79933457D01*
X111386143Y-79931466D01*
X111384549Y-79929389D01*
X111383066Y-79927232D01*
X111381699Y-79925000D01*
X111380450Y-79922700D01*
X111379323Y-79920337D01*
X111378321Y-79917918D01*
X111377447Y-79915451D01*
X111376704Y-79912941D01*
X111376093Y-79910396D01*
X111375616Y-79907822D01*
X111375274Y-79905226D01*
X111375069Y-79902617D01*
X111375000Y-79900000D01*
X111375000Y-79450000D01*
X111375069Y-79447380D01*
X111375274Y-79444770D01*
X111375616Y-79442180D01*
X111376093Y-79439600D01*
X111376704Y-79437060D01*
X111377447Y-79434550D01*
X111378321Y-79432080D01*
X111379323Y-79429660D01*
X111380450Y-79427300D01*
X111381699Y-79425000D01*
X111383066Y-79422770D01*
X111384549Y-79420610D01*
X111386143Y-79418530D01*
X111387843Y-79416540D01*
X111389645Y-79414640D01*
X111391543Y-79412840D01*
X111393534Y-79411140D01*
X111395611Y-79409550D01*
X111397768Y-79408070D01*
X111400000Y-79406700D01*
X111402300Y-79405450D01*
X111404663Y-79404320D01*
X111407082Y-79403320D01*
X111409549Y-79402450D01*
X111412059Y-79401700D01*
X111414604Y-79401090D01*
X111417178Y-79400620D01*
X111419774Y-79400270D01*
X111422383Y-79400070D01*
X111425000Y-79400000D01*
X111575000Y-79400000D01*
X111577617Y-79400070D01*
X111580226Y-79400270D01*
X111582822Y-79400620D01*
X111585396Y-79401090D01*
X111587941Y-79401700D01*
X111590451Y-79402450D01*
X111592918Y-79403320D01*
X111595337Y-79404320D01*
X111597700Y-79405450D01*
X111600000Y-79406700D01*
X111602232Y-79408070D01*
X111604389Y-79409550D01*
X111606466Y-79411140D01*
X111608457Y-79412840D01*
X111610355Y-79414640D01*
X111612157Y-79416540D01*
X111613857Y-79418530D01*
X111615451Y-79420610D01*
X111616934Y-79422770D01*
X111618301Y-79425000D01*
X111619550Y-79427300D01*
X111620677Y-79429660D01*
X111621679Y-79432080D01*
X111622553Y-79434550D01*
X111623296Y-79437060D01*
X111623907Y-79439600D01*
X111624384Y-79442180D01*
X111624726Y-79444770D01*
X111624931Y-79447380D01*
X111625000Y-79450000D01*
%TD*%
%TO.C,R5*%
G36*
G01*
X112450000Y-84375000D02*
X112450000Y-84025000D01*
G75*
G02*
X112625000Y-83850000I175000J0D01*
G01*
X113175000Y-83850000D01*
G75*
G02*
X113350000Y-84025000I0J-175000D01*
G01*
X113350000Y-84375000D01*
G75*
G02*
X113175000Y-84550000I-175000J0D01*
G01*
X112625000Y-84550000D01*
G75*
G02*
X112450000Y-84375000I0J175000D01*
G01*
G37*
G36*
G01*
X111150000Y-84375000D02*
X111150000Y-84025000D01*
G75*
G02*
X111325000Y-83850000I175000J0D01*
G01*
X111875000Y-83850000D01*
G75*
G02*
X112050000Y-84025000I0J-175000D01*
G01*
X112050000Y-84375000D01*
G75*
G02*
X111875000Y-84550000I-175000J0D01*
G01*
X111325000Y-84550000D01*
G75*
G02*
X111150000Y-84375000I0J175000D01*
G01*
G37*
%TD*%
%TO.C,R1*%
G36*
G01*
X117025000Y-81050000D02*
X117375000Y-81050000D01*
G75*
G02*
X117550000Y-81225000I0J-175000D01*
G01*
X117550000Y-81775000D01*
G75*
G02*
X117375000Y-81950000I-175000J0D01*
G01*
X117025000Y-81950000D01*
G75*
G02*
X116850000Y-81775000I0J175000D01*
G01*
X116850000Y-81225000D01*
G75*
G02*
X117025000Y-81050000I175000J0D01*
G01*
G37*
G36*
G01*
X117025000Y-79750000D02*
X117375000Y-79750000D01*
G75*
G02*
X117550000Y-79925000I0J-175000D01*
G01*
X117550000Y-80475000D01*
G75*
G02*
X117375000Y-80650000I-175000J0D01*
G01*
X117025000Y-80650000D01*
G75*
G02*
X116850000Y-80475000I0J175000D01*
G01*
X116850000Y-79925000D01*
G75*
G02*
X117025000Y-79750000I175000J0D01*
G01*
G37*
%TD*%
%TO.C,C1*%
G36*
G01*
X105850000Y-78025000D02*
X105850000Y-78375000D01*
G75*
G02*
X105675000Y-78550000I-175000J0D01*
G01*
X105125000Y-78550000D01*
G75*
G02*
X104950000Y-78375000I0J175000D01*
G01*
X104950000Y-78025000D01*
G75*
G02*
X105125000Y-77850000I175000J0D01*
G01*
X105675000Y-77850000D01*
G75*
G02*
X105850000Y-78025000I0J-175000D01*
G01*
G37*
G36*
G01*
X104550000Y-78025000D02*
X104550000Y-78375000D01*
G75*
G02*
X104375000Y-78550000I-175000J0D01*
G01*
X103825000Y-78550000D01*
G75*
G02*
X103650000Y-78375000I0J175000D01*
G01*
X103650000Y-78025000D01*
G75*
G02*
X103825000Y-77850000I175000J0D01*
G01*
X104375000Y-77850000D01*
G75*
G02*
X104550000Y-78025000I0J-175000D01*
G01*
G37*
%TD*%
%TO.C,C2*%
G36*
G01*
X106525000Y-79550000D02*
X106875000Y-79550000D01*
G75*
G02*
X107050000Y-79725000I0J-175000D01*
G01*
X107050000Y-80275000D01*
G75*
G02*
X106875000Y-80450000I-175000J0D01*
G01*
X106525000Y-80450000D01*
G75*
G02*
X106350000Y-80275000I0J175000D01*
G01*
X106350000Y-79725000D01*
G75*
G02*
X106525000Y-79550000I175000J0D01*
G01*
G37*
G36*
G01*
X106525000Y-80850000D02*
X106875000Y-80850000D01*
G75*
G02*
X107050000Y-81025000I0J-175000D01*
G01*
X107050000Y-81575000D01*
G75*
G02*
X106875000Y-81750000I-175000J0D01*
G01*
X106525000Y-81750000D01*
G75*
G02*
X106350000Y-81575000I0J175000D01*
G01*
X106350000Y-81025000D01*
G75*
G02*
X106525000Y-80850000I175000J0D01*
G01*
G37*
%TD*%
%TO.C,C3*%
G36*
G01*
X107725000Y-79550000D02*
X108075000Y-79550000D01*
G75*
G02*
X108250000Y-79725000I0J-175000D01*
G01*
X108250000Y-80275000D01*
G75*
G02*
X108075000Y-80450000I-175000J0D01*
G01*
X107725000Y-80450000D01*
G75*
G02*
X107550000Y-80275000I0J175000D01*
G01*
X107550000Y-79725000D01*
G75*
G02*
X107725000Y-79550000I175000J0D01*
G01*
G37*
G36*
G01*
X107725000Y-80850000D02*
X108075000Y-80850000D01*
G75*
G02*
X108250000Y-81025000I0J-175000D01*
G01*
X108250000Y-81575000D01*
G75*
G02*
X108075000Y-81750000I-175000J0D01*
G01*
X107725000Y-81750000D01*
G75*
G02*
X107550000Y-81575000I0J175000D01*
G01*
X107550000Y-81025000D01*
G75*
G02*
X107725000Y-80850000I175000J0D01*
G01*
G37*
%TD*%
%TO.C,C4*%
G36*
G01*
X108925000Y-80850000D02*
X109275000Y-80850000D01*
G75*
G02*
X109450000Y-81025000I0J-175000D01*
G01*
X109450000Y-81575000D01*
G75*
G02*
X109275000Y-81750000I-175000J0D01*
G01*
X108925000Y-81750000D01*
G75*
G02*
X108750000Y-81575000I0J175000D01*
G01*
X108750000Y-81025000D01*
G75*
G02*
X108925000Y-80850000I175000J0D01*
G01*
G37*
G36*
G01*
X108925000Y-79550000D02*
X109275000Y-79550000D01*
G75*
G02*
X109450000Y-79725000I0J-175000D01*
G01*
X109450000Y-80275000D01*
G75*
G02*
X109275000Y-80450000I-175000J0D01*
G01*
X108925000Y-80450000D01*
G75*
G02*
X108750000Y-80275000I0J175000D01*
G01*
X108750000Y-79725000D01*
G75*
G02*
X108925000Y-79550000I175000J0D01*
G01*
G37*
%TD*%
%TO.C,C5*%
G36*
G01*
X113825000Y-81050000D02*
X114175000Y-81050000D01*
G75*
G02*
X114350000Y-81225000I0J-175000D01*
G01*
X114350000Y-81775000D01*
G75*
G02*
X114175000Y-81950000I-175000J0D01*
G01*
X113825000Y-81950000D01*
G75*
G02*
X113650000Y-81775000I0J175000D01*
G01*
X113650000Y-81225000D01*
G75*
G02*
X113825000Y-81050000I175000J0D01*
G01*
G37*
G36*
G01*
X113825000Y-79750000D02*
X114175000Y-79750000D01*
G75*
G02*
X114350000Y-79925000I0J-175000D01*
G01*
X114350000Y-80475000D01*
G75*
G02*
X114175000Y-80650000I-175000J0D01*
G01*
X113825000Y-80650000D01*
G75*
G02*
X113650000Y-80475000I0J175000D01*
G01*
X113650000Y-79925000D01*
G75*
G02*
X113825000Y-79750000I175000J0D01*
G01*
G37*
%TD*%
%TO.C,C6*%
G36*
G01*
X114925000Y-81050000D02*
X115275000Y-81050000D01*
G75*
G02*
X115450000Y-81225000I0J-175000D01*
G01*
X115450000Y-81775000D01*
G75*
G02*
X115275000Y-81950000I-175000J0D01*
G01*
X114925000Y-81950000D01*
G75*
G02*
X114750000Y-81775000I0J175000D01*
G01*
X114750000Y-81225000D01*
G75*
G02*
X114925000Y-81050000I175000J0D01*
G01*
G37*
G36*
G01*
X114925000Y-79750000D02*
X115275000Y-79750000D01*
G75*
G02*
X115450000Y-79925000I0J-175000D01*
G01*
X115450000Y-80475000D01*
G75*
G02*
X115275000Y-80650000I-175000J0D01*
G01*
X114925000Y-80650000D01*
G75*
G02*
X114750000Y-80475000I0J175000D01*
G01*
X114750000Y-79925000D01*
G75*
G02*
X114925000Y-79750000I175000J0D01*
G01*
G37*
%TD*%
%TO.C,C7*%
G36*
G01*
X116025000Y-79750000D02*
X116375000Y-79750000D01*
G75*
G02*
X116550000Y-79925000I0J-175000D01*
G01*
X116550000Y-80475000D01*
G75*
G02*
X116375000Y-80650000I-175000J0D01*
G01*
X116025000Y-80650000D01*
G75*
G02*
X115850000Y-80475000I0J175000D01*
G01*
X115850000Y-79925000D01*
G75*
G02*
X116025000Y-79750000I175000J0D01*
G01*
G37*
G36*
G01*
X116025000Y-81050000D02*
X116375000Y-81050000D01*
G75*
G02*
X116550000Y-81225000I0J-175000D01*
G01*
X116550000Y-81775000D01*
G75*
G02*
X116375000Y-81950000I-175000J0D01*
G01*
X116025000Y-81950000D01*
G75*
G02*
X115850000Y-81775000I0J175000D01*
G01*
X115850000Y-81225000D01*
G75*
G02*
X116025000Y-81050000I175000J0D01*
G01*
G37*
%TD*%
%TO.C,D1*%
G36*
G01*
X121450000Y-75450000D02*
X121450000Y-75950000D01*
G75*
G02*
X121200000Y-76200000I-250000J0D01*
G01*
X120600000Y-76200000D01*
G75*
G02*
X120350000Y-75950000I0J250000D01*
G01*
X120350000Y-75450000D01*
G75*
G02*
X120600000Y-75200000I250000J0D01*
G01*
X121200000Y-75200000D01*
G75*
G02*
X121450000Y-75450000I0J-250000D01*
G01*
G37*
G36*
G01*
X119750000Y-75450000D02*
X119750000Y-75950000D01*
G75*
G02*
X119500000Y-76200000I-250000J0D01*
G01*
X118900000Y-76200000D01*
G75*
G02*
X118650000Y-75950000I0J250000D01*
G01*
X118650000Y-75450000D01*
G75*
G02*
X118900000Y-75200000I250000J0D01*
G01*
X119500000Y-75200000D01*
G75*
G02*
X119750000Y-75450000I0J-250000D01*
G01*
G37*
%TD*%
D12*
%TO.C,L1*%
X110200000Y-76300000D03*
X112570000Y-76300000D03*
%TD*%
D13*
%TO.C,Q1*%
X105400000Y-81450000D03*
X105400000Y-79550000D03*
X103400000Y-80500000D03*
%TD*%
%TO.C,R2*%
G36*
G01*
X106525000Y-76750000D02*
X106875000Y-76750000D01*
G75*
G02*
X107050000Y-76925000I0J-175000D01*
G01*
X107050000Y-77475000D01*
G75*
G02*
X106875000Y-77650000I-175000J0D01*
G01*
X106525000Y-77650000D01*
G75*
G02*
X106350000Y-77475000I0J175000D01*
G01*
X106350000Y-76925000D01*
G75*
G02*
X106525000Y-76750000I175000J0D01*
G01*
G37*
G36*
G01*
X106525000Y-78050000D02*
X106875000Y-78050000D01*
G75*
G02*
X107050000Y-78225000I0J-175000D01*
G01*
X107050000Y-78775000D01*
G75*
G02*
X106875000Y-78950000I-175000J0D01*
G01*
X106525000Y-78950000D01*
G75*
G02*
X106350000Y-78775000I0J175000D01*
G01*
X106350000Y-78225000D01*
G75*
G02*
X106525000Y-78050000I175000J0D01*
G01*
G37*
%TD*%
%TO.C,R4*%
G36*
G01*
X107750000Y-84250000D02*
X107750000Y-83750000D01*
G75*
G02*
X108000000Y-83500000I250000J0D01*
G01*
X108600000Y-83500000D01*
G75*
G02*
X108850000Y-83750000I0J-250000D01*
G01*
X108850000Y-84250000D01*
G75*
G02*
X108600000Y-84500000I-250000J0D01*
G01*
X108000000Y-84500000D01*
G75*
G02*
X107750000Y-84250000I0J250000D01*
G01*
G37*
G36*
G01*
X109450000Y-84250000D02*
X109450000Y-83750000D01*
G75*
G02*
X109700000Y-83500000I250000J0D01*
G01*
X110300000Y-83500000D01*
G75*
G02*
X110550000Y-83750000I0J-250000D01*
G01*
X110550000Y-84250000D01*
G75*
G02*
X110300000Y-84500000I-250000J0D01*
G01*
X109700000Y-84500000D01*
G75*
G02*
X109450000Y-84250000I0J250000D01*
G01*
G37*
%TD*%
%TO.C,R6*%
G36*
G01*
X119750000Y-73950000D02*
X119750000Y-74450000D01*
G75*
G02*
X119500000Y-74700000I-250000J0D01*
G01*
X118900000Y-74700000D01*
G75*
G02*
X118650000Y-74450000I0J250000D01*
G01*
X118650000Y-73950000D01*
G75*
G02*
X118900000Y-73700000I250000J0D01*
G01*
X119500000Y-73700000D01*
G75*
G02*
X119750000Y-73950000I0J-250000D01*
G01*
G37*
G36*
G01*
X121450000Y-73950000D02*
X121450000Y-74450000D01*
G75*
G02*
X121200000Y-74700000I-250000J0D01*
G01*
X120600000Y-74700000D01*
G75*
G02*
X120350000Y-74450000I0J250000D01*
G01*
X120350000Y-73950000D01*
G75*
G02*
X120600000Y-73700000I250000J0D01*
G01*
X121200000Y-73700000D01*
G75*
G02*
X121450000Y-73950000I0J-250000D01*
G01*
G37*
%TD*%
D14*
%TO.C,U1*%
X110500000Y-81500000D03*
X111000000Y-81500000D03*
X111500000Y-81500000D03*
X112000000Y-81500000D03*
D15*
X112500000Y-79850000D03*
X112000000Y-79850000D03*
D16*
X111500000Y-80050000D03*
D14*
X112500000Y-81500000D03*
D15*
X111000000Y-79850000D03*
X110500000Y-79850000D03*
%TD*%
%TO.C,R3*%
G36*
G01*
X118375000Y-81950000D02*
X118025000Y-81950000D01*
G75*
G02*
X117850000Y-81775000I0J175000D01*
G01*
X117850000Y-81225000D01*
G75*
G02*
X118025000Y-81050000I175000J0D01*
G01*
X118375000Y-81050000D01*
G75*
G02*
X118550000Y-81225000I0J-175000D01*
G01*
X118550000Y-81775000D01*
G75*
G02*
X118375000Y-81950000I-175000J0D01*
G01*
G37*
G36*
G01*
X118375000Y-80650000D02*
X118025000Y-80650000D01*
G75*
G02*
X117850000Y-80475000I0J175000D01*
G01*
X117850000Y-79925000D01*
G75*
G02*
X118025000Y-79750000I175000J0D01*
G01*
X118375000Y-79750000D01*
G75*
G02*
X118550000Y-79925000I0J-175000D01*
G01*
X118550000Y-80475000D01*
G75*
G02*
X118375000Y-80650000I-175000J0D01*
G01*
G37*
%TD*%
M02*
