%TF.GenerationSoftware,KiCad,Pcbnew,(5.1.6)-1*%
%TF.CreationDate,2020-07-26T11:23:49+05:30*%
%TF.ProjectId,KiCAD Demo- Buck-Boost Regulator,4b694341-4420-4446-956d-6f2d20427563,rev?*%
%TF.SameCoordinates,Original*%
%TF.FileFunction,Legend,Bot*%
%TF.FilePolarity,Positive*%
%FSLAX46Y46*%
G04 Gerber Fmt 4.6, Leading zero omitted, Abs format (unit mm)*
G04 Created by KiCad (PCBNEW (5.1.6)-1) date 2020-07-26 11:23:49*
%MOMM*%
%LPD*%
G01*
G04 APERTURE LIST*
%ADD10C,0.150000*%
%ADD11C,0.120000*%
%ADD12C,0.076200*%
G04 APERTURE END LIST*
D10*
X138726190Y-66202380D02*
X138250000Y-66202380D01*
X138250000Y-65202380D01*
X139011904Y-65916666D02*
X139488095Y-65916666D01*
X138916666Y-66202380D02*
X139250000Y-65202380D01*
X139583333Y-66202380D01*
X140107142Y-65726190D02*
X140107142Y-66202380D01*
X139773809Y-65202380D02*
X140107142Y-65726190D01*
X140440476Y-65202380D01*
X140773809Y-65678571D02*
X141107142Y-65678571D01*
X141250000Y-66202380D02*
X140773809Y-66202380D01*
X140773809Y-65202380D01*
X141250000Y-65202380D01*
X142250000Y-66202380D02*
X141916666Y-65726190D01*
X141678571Y-66202380D02*
X141678571Y-65202380D01*
X142059523Y-65202380D01*
X142154761Y-65250000D01*
X142202380Y-65297619D01*
X142250000Y-65392857D01*
X142250000Y-65535714D01*
X142202380Y-65630952D01*
X142154761Y-65678571D01*
X142059523Y-65726190D01*
X141678571Y-65726190D01*
X142630952Y-66154761D02*
X142773809Y-66202380D01*
X143011904Y-66202380D01*
X143107142Y-66154761D01*
X143154761Y-66107142D01*
X143202380Y-66011904D01*
X143202380Y-65916666D01*
X143154761Y-65821428D01*
X143107142Y-65773809D01*
X143011904Y-65726190D01*
X142821428Y-65678571D01*
X142726190Y-65630952D01*
X142678571Y-65583333D01*
X142630952Y-65488095D01*
X142630952Y-65392857D01*
X142678571Y-65297619D01*
X142726190Y-65250000D01*
X142821428Y-65202380D01*
X143059523Y-65202380D01*
X143202380Y-65250000D01*
X144250000Y-65202380D02*
X144821428Y-65202380D01*
X144535714Y-66202380D02*
X144535714Y-65202380D01*
X145107142Y-65916666D02*
X145583333Y-65916666D01*
X145011904Y-66202380D02*
X145345238Y-65202380D01*
X145678571Y-66202380D01*
X146345238Y-65678571D02*
X146488095Y-65726190D01*
X146535714Y-65773809D01*
X146583333Y-65869047D01*
X146583333Y-66011904D01*
X146535714Y-66107142D01*
X146488095Y-66154761D01*
X146392857Y-66202380D01*
X146011904Y-66202380D01*
X146011904Y-65202380D01*
X146345238Y-65202380D01*
X146440476Y-65250000D01*
X146488095Y-65297619D01*
X146535714Y-65392857D01*
X146535714Y-65488095D01*
X146488095Y-65583333D01*
X146440476Y-65630952D01*
X146345238Y-65678571D01*
X146011904Y-65678571D01*
X147488095Y-66202380D02*
X147011904Y-66202380D01*
X147011904Y-65202380D01*
X147821428Y-65678571D02*
X148154761Y-65678571D01*
X148297619Y-66202380D02*
X147821428Y-66202380D01*
X147821428Y-65202380D01*
X148297619Y-65202380D01*
X137988095Y-84154761D02*
X138130952Y-84202380D01*
X138369047Y-84202380D01*
X138464285Y-84154761D01*
X138511904Y-84107142D01*
X138559523Y-84011904D01*
X138559523Y-83916666D01*
X138511904Y-83821428D01*
X138464285Y-83773809D01*
X138369047Y-83726190D01*
X138178571Y-83678571D01*
X138083333Y-83630952D01*
X138035714Y-83583333D01*
X137988095Y-83488095D01*
X137988095Y-83392857D01*
X138035714Y-83297619D01*
X138083333Y-83250000D01*
X138178571Y-83202380D01*
X138416666Y-83202380D01*
X138559523Y-83250000D01*
X138988095Y-84202380D02*
X138988095Y-83535714D01*
X138988095Y-83202380D02*
X138940476Y-83250000D01*
X138988095Y-83297619D01*
X139035714Y-83250000D01*
X138988095Y-83202380D01*
X138988095Y-83297619D01*
X139607142Y-84202380D02*
X139511904Y-84154761D01*
X139464285Y-84059523D01*
X139464285Y-83202380D01*
X139988095Y-84202380D02*
X139988095Y-83202380D01*
X140083333Y-83821428D02*
X140369047Y-84202380D01*
X140369047Y-83535714D02*
X139988095Y-83916666D01*
X140750000Y-84154761D02*
X140845238Y-84202380D01*
X141035714Y-84202380D01*
X141130952Y-84154761D01*
X141178571Y-84059523D01*
X141178571Y-84011904D01*
X141130952Y-83916666D01*
X141035714Y-83869047D01*
X140892857Y-83869047D01*
X140797619Y-83821428D01*
X140750000Y-83726190D01*
X140750000Y-83678571D01*
X140797619Y-83583333D01*
X140892857Y-83535714D01*
X141035714Y-83535714D01*
X141130952Y-83583333D01*
X142035714Y-84154761D02*
X141940476Y-84202380D01*
X141750000Y-84202380D01*
X141654761Y-84154761D01*
X141607142Y-84107142D01*
X141559523Y-84011904D01*
X141559523Y-83726190D01*
X141607142Y-83630952D01*
X141654761Y-83583333D01*
X141750000Y-83535714D01*
X141940476Y-83535714D01*
X142035714Y-83583333D01*
X142464285Y-84202380D02*
X142464285Y-83535714D01*
X142464285Y-83726190D02*
X142511904Y-83630952D01*
X142559523Y-83583333D01*
X142654761Y-83535714D01*
X142750000Y-83535714D01*
X143464285Y-84154761D02*
X143369047Y-84202380D01*
X143178571Y-84202380D01*
X143083333Y-84154761D01*
X143035714Y-84059523D01*
X143035714Y-83678571D01*
X143083333Y-83583333D01*
X143178571Y-83535714D01*
X143369047Y-83535714D01*
X143464285Y-83583333D01*
X143511904Y-83678571D01*
X143511904Y-83773809D01*
X143035714Y-83869047D01*
X144321428Y-84154761D02*
X144226190Y-84202380D01*
X144035714Y-84202380D01*
X143940476Y-84154761D01*
X143892857Y-84059523D01*
X143892857Y-83678571D01*
X143940476Y-83583333D01*
X144035714Y-83535714D01*
X144226190Y-83535714D01*
X144321428Y-83583333D01*
X144369047Y-83678571D01*
X144369047Y-83773809D01*
X143892857Y-83869047D01*
X144797619Y-83535714D02*
X144797619Y-84202380D01*
X144797619Y-83630952D02*
X144845238Y-83583333D01*
X144940476Y-83535714D01*
X145083333Y-83535714D01*
X145178571Y-83583333D01*
X145226190Y-83678571D01*
X145226190Y-84202380D01*
X146797619Y-83678571D02*
X146940476Y-83726190D01*
X146988095Y-83773809D01*
X147035714Y-83869047D01*
X147035714Y-84011904D01*
X146988095Y-84107142D01*
X146940476Y-84154761D01*
X146845238Y-84202380D01*
X146464285Y-84202380D01*
X146464285Y-83202380D01*
X146797619Y-83202380D01*
X146892857Y-83250000D01*
X146940476Y-83297619D01*
X146988095Y-83392857D01*
X146988095Y-83488095D01*
X146940476Y-83583333D01*
X146892857Y-83630952D01*
X146797619Y-83678571D01*
X146464285Y-83678571D01*
X147607142Y-84202380D02*
X147511904Y-84154761D01*
X147464285Y-84107142D01*
X147416666Y-84011904D01*
X147416666Y-83726190D01*
X147464285Y-83630952D01*
X147511904Y-83583333D01*
X147607142Y-83535714D01*
X147750000Y-83535714D01*
X147845238Y-83583333D01*
X147892857Y-83630952D01*
X147940476Y-83726190D01*
X147940476Y-84011904D01*
X147892857Y-84107142D01*
X147845238Y-84154761D01*
X147750000Y-84202380D01*
X147607142Y-84202380D01*
X148226190Y-83535714D02*
X148607142Y-83535714D01*
X148369047Y-83202380D02*
X148369047Y-84059523D01*
X148416666Y-84154761D01*
X148511904Y-84202380D01*
X148607142Y-84202380D01*
D11*
X150750000Y-99750000D02*
X135750000Y-99750000D01*
X135750000Y-97250000D02*
X150750000Y-97250000D01*
X150750000Y-97250000D02*
X150750000Y-99750000D01*
X150750000Y-93750000D02*
X135750000Y-93750000D01*
X135750000Y-91250000D02*
X150750000Y-91250000D01*
X135750000Y-93750000D02*
X135750000Y-91250000D01*
X150750000Y-91250000D02*
X150750000Y-93750000D01*
X135750000Y-99750000D02*
X135750000Y-97250000D01*
X150750000Y-94250000D02*
X150750000Y-96750000D01*
X135750000Y-96750000D02*
X135750000Y-94250000D01*
X150750000Y-96750000D02*
X135750000Y-96750000D01*
X135750000Y-94250000D02*
X150750000Y-94250000D01*
X150750000Y-84750000D02*
X135750000Y-84750000D01*
X135750000Y-84750000D02*
X135750000Y-82250000D01*
X135750000Y-82250000D02*
X150750000Y-82250000D01*
X150750000Y-82250000D02*
X150750000Y-84750000D01*
X150750000Y-85250000D02*
X150750000Y-87750000D01*
X150750000Y-87750000D02*
X135750000Y-87750000D01*
X135750000Y-85250000D02*
X150750000Y-85250000D01*
X135750000Y-87750000D02*
X135750000Y-85250000D01*
X135750000Y-90750000D02*
X135750000Y-88250000D01*
X150750000Y-88250000D02*
X150750000Y-90750000D01*
X135750000Y-88250000D02*
X150750000Y-88250000D01*
X150750000Y-90750000D02*
X135750000Y-90750000D01*
X150750000Y-81750000D02*
X135750000Y-81750000D01*
X135750000Y-79250000D02*
X150750000Y-79250000D01*
X135750000Y-81750000D02*
X135750000Y-79250000D01*
X150750000Y-79250000D02*
X150750000Y-81750000D01*
X150750000Y-78750000D02*
X135750000Y-78750000D01*
X135750000Y-76250000D02*
X150750000Y-76250000D01*
X135750000Y-78750000D02*
X135750000Y-76250000D01*
X150750000Y-76250000D02*
X150750000Y-78750000D01*
X150750000Y-75750000D02*
X135750000Y-75750000D01*
X135750000Y-73250000D02*
X150750000Y-73250000D01*
X135750000Y-75750000D02*
X135750000Y-73250000D01*
X150750000Y-73250000D02*
X150750000Y-75750000D01*
X150750000Y-72750000D02*
X135750000Y-72750000D01*
X135750000Y-70250000D02*
X150750000Y-70250000D01*
X135750000Y-72750000D02*
X135750000Y-70250000D01*
X150750000Y-70250000D02*
X150750000Y-72750000D01*
X135750000Y-69750000D02*
X135750000Y-67250000D01*
X150750000Y-69750000D02*
X135750000Y-69750000D01*
X150750000Y-67250000D02*
X150750000Y-69750000D01*
X135750000Y-67250000D02*
X150750000Y-67250000D01*
D12*
X114697161Y-70606073D02*
X114697161Y-71132216D01*
X114732238Y-71237445D01*
X114802390Y-71307597D01*
X114907619Y-71342673D01*
X114977771Y-71342673D01*
X114346400Y-71342673D02*
X114346400Y-70606073D01*
X114065790Y-70606073D01*
X113995638Y-70641150D01*
X113960561Y-70676226D01*
X113925485Y-70746378D01*
X113925485Y-70851607D01*
X113960561Y-70921759D01*
X113995638Y-70956835D01*
X114065790Y-70991911D01*
X114346400Y-70991911D01*
X113223961Y-71342673D02*
X113644876Y-71342673D01*
X113434419Y-71342673D02*
X113434419Y-70606073D01*
X113504571Y-70711302D01*
X113574723Y-70781454D01*
X113644876Y-70816530D01*
X112908276Y-71062064D02*
X112347057Y-71062064D01*
X111785838Y-71623283D02*
X111820914Y-71588207D01*
X111891066Y-71482978D01*
X111926142Y-71412826D01*
X111961219Y-71307597D01*
X111996295Y-71132216D01*
X111996295Y-70991911D01*
X111961219Y-70816530D01*
X111926142Y-70711302D01*
X111891066Y-70641150D01*
X111820914Y-70535921D01*
X111785838Y-70500845D01*
X111189542Y-71307597D02*
X111259695Y-71342673D01*
X111400000Y-71342673D01*
X111470152Y-71307597D01*
X111505228Y-71272521D01*
X111540304Y-71202369D01*
X111540304Y-70991911D01*
X111505228Y-70921759D01*
X111470152Y-70886683D01*
X111400000Y-70851607D01*
X111259695Y-70851607D01*
X111189542Y-70886683D01*
X110768628Y-71342673D02*
X110838780Y-71307597D01*
X110873857Y-71237445D01*
X110873857Y-70606073D01*
X110382790Y-71342673D02*
X110452942Y-71307597D01*
X110488019Y-71272521D01*
X110523095Y-71202369D01*
X110523095Y-70991911D01*
X110488019Y-70921759D01*
X110452942Y-70886683D01*
X110382790Y-70851607D01*
X110277561Y-70851607D01*
X110207409Y-70886683D01*
X110172333Y-70921759D01*
X110137257Y-70991911D01*
X110137257Y-71202369D01*
X110172333Y-71272521D01*
X110207409Y-71307597D01*
X110277561Y-71342673D01*
X110382790Y-71342673D01*
X109856647Y-71307597D02*
X109786495Y-71342673D01*
X109646190Y-71342673D01*
X109576038Y-71307597D01*
X109540961Y-71237445D01*
X109540961Y-71202369D01*
X109576038Y-71132216D01*
X109646190Y-71097140D01*
X109751419Y-71097140D01*
X109821571Y-71062064D01*
X109856647Y-70991911D01*
X109856647Y-70956835D01*
X109821571Y-70886683D01*
X109751419Y-70851607D01*
X109646190Y-70851607D01*
X109576038Y-70886683D01*
X108944666Y-71307597D02*
X109014819Y-71342673D01*
X109155123Y-71342673D01*
X109225276Y-71307597D01*
X109260352Y-71237445D01*
X109260352Y-70956835D01*
X109225276Y-70886683D01*
X109155123Y-70851607D01*
X109014819Y-70851607D01*
X108944666Y-70886683D01*
X108909590Y-70956835D01*
X108909590Y-71026988D01*
X109260352Y-71097140D01*
X108664057Y-71623283D02*
X108628980Y-71588207D01*
X108558828Y-71482978D01*
X108523752Y-71412826D01*
X108488676Y-71307597D01*
X108453600Y-71132216D01*
X108453600Y-70991911D01*
X108488676Y-70816530D01*
X108523752Y-70711302D01*
X108558828Y-70641150D01*
X108628980Y-70535921D01*
X108664057Y-70500845D01*
X113522109Y-72523773D02*
X113522109Y-71787173D01*
X113241500Y-71787173D01*
X113171347Y-71822250D01*
X113136271Y-71857326D01*
X113101195Y-71927478D01*
X113101195Y-72032707D01*
X113136271Y-72102859D01*
X113171347Y-72137935D01*
X113241500Y-72173011D01*
X113522109Y-72173011D01*
X112399671Y-71822250D02*
X112469823Y-71787173D01*
X112575052Y-71787173D01*
X112680280Y-71822250D01*
X112750433Y-71892402D01*
X112785509Y-71962554D01*
X112820585Y-72102859D01*
X112820585Y-72208088D01*
X112785509Y-72348392D01*
X112750433Y-72418545D01*
X112680280Y-72488697D01*
X112575052Y-72523773D01*
X112504900Y-72523773D01*
X112399671Y-72488697D01*
X112364595Y-72453621D01*
X112364595Y-72208088D01*
X112504900Y-72208088D01*
X111136928Y-72523773D02*
X111487690Y-72523773D01*
X111487690Y-71787173D01*
X110891395Y-72137935D02*
X110645861Y-72137935D01*
X110540633Y-72523773D02*
X110891395Y-72523773D01*
X110891395Y-71787173D01*
X110540633Y-71787173D01*
X110224947Y-72523773D02*
X110224947Y-71787173D01*
X110049566Y-71787173D01*
X109944338Y-71822250D01*
X109874185Y-71892402D01*
X109839109Y-71962554D01*
X109804033Y-72102859D01*
X109804033Y-72208088D01*
X109839109Y-72348392D01*
X109874185Y-72418545D01*
X109944338Y-72488697D01*
X110049566Y-72523773D01*
X110224947Y-72523773D01*
M02*
