%TF.GenerationSoftware,KiCad,Pcbnew,(5.1.6)-1*%
%TF.CreationDate,2020-07-26T11:23:49+05:30*%
%TF.ProjectId,KiCAD Demo- Buck-Boost Regulator,4b694341-4420-4446-956d-6f2d20427563,rev?*%
%TF.SameCoordinates,Original*%
%TF.FileFunction,Legend,Top*%
%TF.FilePolarity,Positive*%
%FSLAX46Y46*%
G04 Gerber Fmt 4.6, Leading zero omitted, Abs format (unit mm)*
G04 Created by KiCad (PCBNEW (5.1.6)-1) date 2020-07-26 11:23:49*
%MOMM*%
%LPD*%
G01*
G04 APERTURE LIST*
%ADD10C,0.150000*%
%ADD11C,0.120000*%
%ADD12C,0.101600*%
%ADD13C,0.200000*%
%ADD14C,0.100000*%
%ADD15C,0.125000*%
G04 APERTURE END LIST*
D10*
X92571428Y-96247619D02*
X92619047Y-96200000D01*
X92714285Y-96152380D01*
X92952380Y-96152380D01*
X93047619Y-96200000D01*
X93095238Y-96247619D01*
X93142857Y-96342857D01*
X93142857Y-96438095D01*
X93095238Y-96580952D01*
X92523809Y-97152380D01*
X93142857Y-97152380D01*
X94809523Y-97152380D02*
X94333333Y-97152380D01*
X94333333Y-96152380D01*
X95571428Y-97152380D02*
X95571428Y-96628571D01*
X95523809Y-96533333D01*
X95428571Y-96485714D01*
X95238095Y-96485714D01*
X95142857Y-96533333D01*
X95571428Y-97104761D02*
X95476190Y-97152380D01*
X95238095Y-97152380D01*
X95142857Y-97104761D01*
X95095238Y-97009523D01*
X95095238Y-96914285D01*
X95142857Y-96819047D01*
X95238095Y-96771428D01*
X95476190Y-96771428D01*
X95571428Y-96723809D01*
X95952380Y-96485714D02*
X96190476Y-97152380D01*
X96428571Y-96485714D02*
X96190476Y-97152380D01*
X96095238Y-97390476D01*
X96047619Y-97438095D01*
X95952380Y-97485714D01*
X97190476Y-97104761D02*
X97095238Y-97152380D01*
X96904761Y-97152380D01*
X96809523Y-97104761D01*
X96761904Y-97009523D01*
X96761904Y-96628571D01*
X96809523Y-96533333D01*
X96904761Y-96485714D01*
X97095238Y-96485714D01*
X97190476Y-96533333D01*
X97238095Y-96628571D01*
X97238095Y-96723809D01*
X96761904Y-96819047D01*
X97666666Y-97152380D02*
X97666666Y-96485714D01*
X97666666Y-96676190D02*
X97714285Y-96580952D01*
X97761904Y-96533333D01*
X97857142Y-96485714D01*
X97952380Y-96485714D01*
X99000000Y-97104761D02*
X99095238Y-97152380D01*
X99285714Y-97152380D01*
X99380952Y-97104761D01*
X99428571Y-97009523D01*
X99428571Y-96961904D01*
X99380952Y-96866666D01*
X99285714Y-96819047D01*
X99142857Y-96819047D01*
X99047619Y-96771428D01*
X99000000Y-96676190D01*
X99000000Y-96628571D01*
X99047619Y-96533333D01*
X99142857Y-96485714D01*
X99285714Y-96485714D01*
X99380952Y-96533333D01*
X99714285Y-96485714D02*
X100095238Y-96485714D01*
X99857142Y-96152380D02*
X99857142Y-97009523D01*
X99904761Y-97104761D01*
X100000000Y-97152380D01*
X100095238Y-97152380D01*
X100857142Y-97152380D02*
X100857142Y-96628571D01*
X100809523Y-96533333D01*
X100714285Y-96485714D01*
X100523809Y-96485714D01*
X100428571Y-96533333D01*
X100857142Y-97104761D02*
X100761904Y-97152380D01*
X100523809Y-97152380D01*
X100428571Y-97104761D01*
X100380952Y-97009523D01*
X100380952Y-96914285D01*
X100428571Y-96819047D01*
X100523809Y-96771428D01*
X100761904Y-96771428D01*
X100857142Y-96723809D01*
X101761904Y-97104761D02*
X101666666Y-97152380D01*
X101476190Y-97152380D01*
X101380952Y-97104761D01*
X101333333Y-97057142D01*
X101285714Y-96961904D01*
X101285714Y-96676190D01*
X101333333Y-96580952D01*
X101380952Y-96533333D01*
X101476190Y-96485714D01*
X101666666Y-96485714D01*
X101761904Y-96533333D01*
X102190476Y-97152380D02*
X102190476Y-96152380D01*
X102285714Y-96771428D02*
X102571428Y-97152380D01*
X102571428Y-96485714D02*
X102190476Y-96866666D01*
X103428571Y-96485714D02*
X103428571Y-97152380D01*
X103000000Y-96485714D02*
X103000000Y-97009523D01*
X103047619Y-97104761D01*
X103142857Y-97152380D01*
X103285714Y-97152380D01*
X103380952Y-97104761D01*
X103428571Y-97057142D01*
X103904761Y-96485714D02*
X103904761Y-97485714D01*
X103904761Y-96533333D02*
X104000000Y-96485714D01*
X104190476Y-96485714D01*
X104285714Y-96533333D01*
X104333333Y-96580952D01*
X104380952Y-96676190D01*
X104380952Y-96961904D01*
X104333333Y-97057142D01*
X104285714Y-97104761D01*
X104190476Y-97152380D01*
X104000000Y-97152380D01*
X103904761Y-97104761D01*
X104809523Y-96771428D02*
X105571428Y-96771428D01*
X106571428Y-97152380D02*
X106000000Y-97152380D01*
X106285714Y-97152380D02*
X106285714Y-96152380D01*
X106190476Y-96295238D01*
X106095238Y-96390476D01*
X106000000Y-96438095D01*
X107000000Y-97057142D02*
X107047619Y-97104761D01*
X107000000Y-97152380D01*
X106952380Y-97104761D01*
X107000000Y-97057142D01*
X107000000Y-97152380D01*
X107904761Y-96152380D02*
X107714285Y-96152380D01*
X107619047Y-96200000D01*
X107571428Y-96247619D01*
X107476190Y-96390476D01*
X107428571Y-96580952D01*
X107428571Y-96961904D01*
X107476190Y-97057142D01*
X107523809Y-97104761D01*
X107619047Y-97152380D01*
X107809523Y-97152380D01*
X107904761Y-97104761D01*
X107952380Y-97057142D01*
X107999999Y-96961904D01*
X107999999Y-96723809D01*
X107952380Y-96628571D01*
X107904761Y-96580952D01*
X107809523Y-96533333D01*
X107619047Y-96533333D01*
X107523809Y-96580952D01*
X107476190Y-96628571D01*
X107428571Y-96723809D01*
X108428571Y-97152380D02*
X108428571Y-96485714D01*
X108428571Y-96580952D02*
X108476190Y-96533333D01*
X108571428Y-96485714D01*
X108714285Y-96485714D01*
X108809523Y-96533333D01*
X108857142Y-96628571D01*
X108857142Y-97152380D01*
X108857142Y-96628571D02*
X108904761Y-96533333D01*
X108999999Y-96485714D01*
X109142857Y-96485714D01*
X109238095Y-96533333D01*
X109285714Y-96628571D01*
X109285714Y-97152380D01*
X109761904Y-97152380D02*
X109761904Y-96485714D01*
X109761904Y-96580952D02*
X109809523Y-96533333D01*
X109904761Y-96485714D01*
X110047619Y-96485714D01*
X110142857Y-96533333D01*
X110190476Y-96628571D01*
X110190476Y-97152380D01*
X110190476Y-96628571D02*
X110238095Y-96533333D01*
X110333333Y-96485714D01*
X110476190Y-96485714D01*
X110571428Y-96533333D01*
X110619047Y-96628571D01*
X110619047Y-97152380D01*
X91238095Y-99183333D02*
X91190476Y-99135714D01*
X91095238Y-98992857D01*
X91047619Y-98897619D01*
X91000000Y-98754761D01*
X90952380Y-98516666D01*
X90952380Y-98326190D01*
X91000000Y-98088095D01*
X91047619Y-97945238D01*
X91095238Y-97850000D01*
X91190476Y-97707142D01*
X91238095Y-97659523D01*
X91476190Y-97802380D02*
X92047619Y-97802380D01*
X91761904Y-98802380D02*
X91761904Y-97802380D01*
X92523809Y-98802380D02*
X92428571Y-98754761D01*
X92380952Y-98707142D01*
X92333333Y-98611904D01*
X92333333Y-98326190D01*
X92380952Y-98230952D01*
X92428571Y-98183333D01*
X92523809Y-98135714D01*
X92666666Y-98135714D01*
X92761904Y-98183333D01*
X92809523Y-98230952D01*
X92857142Y-98326190D01*
X92857142Y-98611904D01*
X92809523Y-98707142D01*
X92761904Y-98754761D01*
X92666666Y-98802380D01*
X92523809Y-98802380D01*
X93285714Y-98135714D02*
X93285714Y-99135714D01*
X93285714Y-98183333D02*
X93380952Y-98135714D01*
X93571428Y-98135714D01*
X93666666Y-98183333D01*
X93714285Y-98230952D01*
X93761904Y-98326190D01*
X93761904Y-98611904D01*
X93714285Y-98707142D01*
X93666666Y-98754761D01*
X93571428Y-98802380D01*
X93380952Y-98802380D01*
X93285714Y-98754761D01*
X94190476Y-98421428D02*
X94952380Y-98421428D01*
X95428571Y-98802380D02*
X95428571Y-97802380D01*
X95809523Y-97802380D01*
X95904761Y-97850000D01*
X95952380Y-97897619D01*
X96000000Y-97992857D01*
X96000000Y-98135714D01*
X95952380Y-98230952D01*
X95904761Y-98278571D01*
X95809523Y-98326190D01*
X95428571Y-98326190D01*
X96571428Y-98802380D02*
X96476190Y-98754761D01*
X96428571Y-98707142D01*
X96380952Y-98611904D01*
X96380952Y-98326190D01*
X96428571Y-98230952D01*
X96476190Y-98183333D01*
X96571428Y-98135714D01*
X96714285Y-98135714D01*
X96809523Y-98183333D01*
X96857142Y-98230952D01*
X96904761Y-98326190D01*
X96904761Y-98611904D01*
X96857142Y-98707142D01*
X96809523Y-98754761D01*
X96714285Y-98802380D01*
X96571428Y-98802380D01*
X97238095Y-98135714D02*
X97428571Y-98802380D01*
X97619047Y-98326190D01*
X97809523Y-98802380D01*
X98000000Y-98135714D01*
X98761904Y-98754761D02*
X98666666Y-98802380D01*
X98476190Y-98802380D01*
X98380952Y-98754761D01*
X98333333Y-98659523D01*
X98333333Y-98278571D01*
X98380952Y-98183333D01*
X98476190Y-98135714D01*
X98666666Y-98135714D01*
X98761904Y-98183333D01*
X98809523Y-98278571D01*
X98809523Y-98373809D01*
X98333333Y-98469047D01*
X99238095Y-98802380D02*
X99238095Y-98135714D01*
X99238095Y-98326190D02*
X99285714Y-98230952D01*
X99333333Y-98183333D01*
X99428571Y-98135714D01*
X99523809Y-98135714D01*
X99904761Y-98754761D02*
X99904761Y-98802380D01*
X99857142Y-98897619D01*
X99809523Y-98945238D01*
X101428571Y-98278571D02*
X101571428Y-98326190D01*
X101619047Y-98373809D01*
X101666666Y-98469047D01*
X101666666Y-98611904D01*
X101619047Y-98707142D01*
X101571428Y-98754761D01*
X101476190Y-98802380D01*
X101095238Y-98802380D01*
X101095238Y-97802380D01*
X101428571Y-97802380D01*
X101523809Y-97850000D01*
X101571428Y-97897619D01*
X101619047Y-97992857D01*
X101619047Y-98088095D01*
X101571428Y-98183333D01*
X101523809Y-98230952D01*
X101428571Y-98278571D01*
X101095238Y-98278571D01*
X102238095Y-98802380D02*
X102142857Y-98754761D01*
X102095238Y-98707142D01*
X102047619Y-98611904D01*
X102047619Y-98326190D01*
X102095238Y-98230952D01*
X102142857Y-98183333D01*
X102238095Y-98135714D01*
X102380952Y-98135714D01*
X102476190Y-98183333D01*
X102523809Y-98230952D01*
X102571428Y-98326190D01*
X102571428Y-98611904D01*
X102523809Y-98707142D01*
X102476190Y-98754761D01*
X102380952Y-98802380D01*
X102238095Y-98802380D01*
X102857142Y-98135714D02*
X103238095Y-98135714D01*
X103000000Y-97802380D02*
X103000000Y-98659523D01*
X103047619Y-98754761D01*
X103142857Y-98802380D01*
X103238095Y-98802380D01*
X103428571Y-98135714D02*
X103809523Y-98135714D01*
X103571428Y-97802380D02*
X103571428Y-98659523D01*
X103619047Y-98754761D01*
X103714285Y-98802380D01*
X103809523Y-98802380D01*
X104285714Y-98802380D02*
X104190476Y-98754761D01*
X104142857Y-98707142D01*
X104095238Y-98611904D01*
X104095238Y-98326190D01*
X104142857Y-98230952D01*
X104190476Y-98183333D01*
X104285714Y-98135714D01*
X104428571Y-98135714D01*
X104523809Y-98183333D01*
X104571428Y-98230952D01*
X104619047Y-98326190D01*
X104619047Y-98611904D01*
X104571428Y-98707142D01*
X104523809Y-98754761D01*
X104428571Y-98802380D01*
X104285714Y-98802380D01*
X105047619Y-98802380D02*
X105047619Y-98135714D01*
X105047619Y-98230952D02*
X105095238Y-98183333D01*
X105190476Y-98135714D01*
X105333333Y-98135714D01*
X105428571Y-98183333D01*
X105476190Y-98278571D01*
X105476190Y-98802380D01*
X105476190Y-98278571D02*
X105523809Y-98183333D01*
X105619047Y-98135714D01*
X105761904Y-98135714D01*
X105857142Y-98183333D01*
X105904761Y-98278571D01*
X105904761Y-98802380D01*
X106380952Y-98421428D02*
X107142857Y-98421428D01*
X108142857Y-97850000D02*
X108047619Y-97802380D01*
X107904761Y-97802380D01*
X107761904Y-97850000D01*
X107666666Y-97945238D01*
X107619047Y-98040476D01*
X107571428Y-98230952D01*
X107571428Y-98373809D01*
X107619047Y-98564285D01*
X107666666Y-98659523D01*
X107761904Y-98754761D01*
X107904761Y-98802380D01*
X108000000Y-98802380D01*
X108142857Y-98754761D01*
X108190476Y-98707142D01*
X108190476Y-98373809D01*
X108000000Y-98373809D01*
X108619047Y-98802380D02*
X108619047Y-98135714D01*
X108619047Y-98326190D02*
X108666666Y-98230952D01*
X108714285Y-98183333D01*
X108809523Y-98135714D01*
X108904761Y-98135714D01*
X109380952Y-98802380D02*
X109285714Y-98754761D01*
X109238095Y-98707142D01*
X109190476Y-98611904D01*
X109190476Y-98326190D01*
X109238095Y-98230952D01*
X109285714Y-98183333D01*
X109380952Y-98135714D01*
X109523809Y-98135714D01*
X109619047Y-98183333D01*
X109666666Y-98230952D01*
X109714285Y-98326190D01*
X109714285Y-98611904D01*
X109666666Y-98707142D01*
X109619047Y-98754761D01*
X109523809Y-98802380D01*
X109380952Y-98802380D01*
X110571428Y-98135714D02*
X110571428Y-98802380D01*
X110142857Y-98135714D02*
X110142857Y-98659523D01*
X110190476Y-98754761D01*
X110285714Y-98802380D01*
X110428571Y-98802380D01*
X110523809Y-98754761D01*
X110571428Y-98707142D01*
X111047619Y-98135714D02*
X111047619Y-98802380D01*
X111047619Y-98230952D02*
X111095238Y-98183333D01*
X111190476Y-98135714D01*
X111333333Y-98135714D01*
X111428571Y-98183333D01*
X111476190Y-98278571D01*
X111476190Y-98802380D01*
X112380952Y-98802380D02*
X112380952Y-97802380D01*
X112380952Y-98754761D02*
X112285714Y-98802380D01*
X112095238Y-98802380D01*
X112000000Y-98754761D01*
X111952380Y-98707142D01*
X111904761Y-98611904D01*
X111904761Y-98326190D01*
X111952380Y-98230952D01*
X112000000Y-98183333D01*
X112095238Y-98135714D01*
X112285714Y-98135714D01*
X112380952Y-98183333D01*
X112761904Y-99183333D02*
X112809523Y-99135714D01*
X112904761Y-98992857D01*
X112952380Y-98897619D01*
X113000000Y-98754761D01*
X113047619Y-98516666D01*
X113047619Y-98326190D01*
X113000000Y-98088095D01*
X112952380Y-97945238D01*
X112904761Y-97850000D01*
X112809523Y-97707142D01*
X112761904Y-97659523D01*
X95880952Y-100404761D02*
X96023809Y-100452380D01*
X96261904Y-100452380D01*
X96357142Y-100404761D01*
X96404761Y-100357142D01*
X96452380Y-100261904D01*
X96452380Y-100166666D01*
X96404761Y-100071428D01*
X96357142Y-100023809D01*
X96261904Y-99976190D01*
X96071428Y-99928571D01*
X95976190Y-99880952D01*
X95928571Y-99833333D01*
X95880952Y-99738095D01*
X95880952Y-99642857D01*
X95928571Y-99547619D01*
X95976190Y-99500000D01*
X96071428Y-99452380D01*
X96309523Y-99452380D01*
X96452380Y-99500000D01*
X97023809Y-100452380D02*
X96928571Y-100404761D01*
X96880952Y-100357142D01*
X96833333Y-100261904D01*
X96833333Y-99976190D01*
X96880952Y-99880952D01*
X96928571Y-99833333D01*
X97023809Y-99785714D01*
X97166666Y-99785714D01*
X97261904Y-99833333D01*
X97309523Y-99880952D01*
X97357142Y-99976190D01*
X97357142Y-100261904D01*
X97309523Y-100357142D01*
X97261904Y-100404761D01*
X97166666Y-100452380D01*
X97023809Y-100452380D01*
X97928571Y-100452380D02*
X97833333Y-100404761D01*
X97785714Y-100309523D01*
X97785714Y-99452380D01*
X98738095Y-100452380D02*
X98738095Y-99452380D01*
X98738095Y-100404761D02*
X98642857Y-100452380D01*
X98452380Y-100452380D01*
X98357142Y-100404761D01*
X98309523Y-100357142D01*
X98261904Y-100261904D01*
X98261904Y-99976190D01*
X98309523Y-99880952D01*
X98357142Y-99833333D01*
X98452380Y-99785714D01*
X98642857Y-99785714D01*
X98738095Y-99833333D01*
X99595238Y-100404761D02*
X99500000Y-100452380D01*
X99309523Y-100452380D01*
X99214285Y-100404761D01*
X99166666Y-100309523D01*
X99166666Y-99928571D01*
X99214285Y-99833333D01*
X99309523Y-99785714D01*
X99500000Y-99785714D01*
X99595238Y-99833333D01*
X99642857Y-99928571D01*
X99642857Y-100023809D01*
X99166666Y-100119047D01*
X100071428Y-100452380D02*
X100071428Y-99785714D01*
X100071428Y-99976190D02*
X100119047Y-99880952D01*
X100166666Y-99833333D01*
X100261904Y-99785714D01*
X100357142Y-99785714D01*
X100690476Y-100452380D02*
X100690476Y-99785714D01*
X100690476Y-99880952D02*
X100738095Y-99833333D01*
X100833333Y-99785714D01*
X100976190Y-99785714D01*
X101071428Y-99833333D01*
X101119047Y-99928571D01*
X101119047Y-100452380D01*
X101119047Y-99928571D02*
X101166666Y-99833333D01*
X101261904Y-99785714D01*
X101404761Y-99785714D01*
X101500000Y-99833333D01*
X101547619Y-99928571D01*
X101547619Y-100452380D01*
X102452380Y-100452380D02*
X102452380Y-99928571D01*
X102404761Y-99833333D01*
X102309523Y-99785714D01*
X102119047Y-99785714D01*
X102023809Y-99833333D01*
X102452380Y-100404761D02*
X102357142Y-100452380D01*
X102119047Y-100452380D01*
X102023809Y-100404761D01*
X101976190Y-100309523D01*
X101976190Y-100214285D01*
X102023809Y-100119047D01*
X102119047Y-100071428D01*
X102357142Y-100071428D01*
X102452380Y-100023809D01*
X102880952Y-100404761D02*
X102976190Y-100452380D01*
X103166666Y-100452380D01*
X103261904Y-100404761D01*
X103309523Y-100309523D01*
X103309523Y-100261904D01*
X103261904Y-100166666D01*
X103166666Y-100119047D01*
X103023809Y-100119047D01*
X102928571Y-100071428D01*
X102880952Y-99976190D01*
X102880952Y-99928571D01*
X102928571Y-99833333D01*
X103023809Y-99785714D01*
X103166666Y-99785714D01*
X103261904Y-99833333D01*
X103738095Y-100452380D02*
X103738095Y-99452380D01*
X103833333Y-100071428D02*
X104119047Y-100452380D01*
X104119047Y-99785714D02*
X103738095Y-100166666D01*
X104547619Y-100071428D02*
X105309523Y-100071428D01*
X106357142Y-100452380D02*
X106023809Y-99976190D01*
X105785714Y-100452380D02*
X105785714Y-99452380D01*
X106166666Y-99452380D01*
X106261904Y-99500000D01*
X106309523Y-99547619D01*
X106357142Y-99642857D01*
X106357142Y-99785714D01*
X106309523Y-99880952D01*
X106261904Y-99928571D01*
X106166666Y-99976190D01*
X105785714Y-99976190D01*
X107166666Y-100404761D02*
X107071428Y-100452380D01*
X106880952Y-100452380D01*
X106785714Y-100404761D01*
X106738095Y-100309523D01*
X106738095Y-99928571D01*
X106785714Y-99833333D01*
X106880952Y-99785714D01*
X107071428Y-99785714D01*
X107166666Y-99833333D01*
X107214285Y-99928571D01*
X107214285Y-100023809D01*
X106738095Y-100119047D01*
X108071428Y-100452380D02*
X108071428Y-99452380D01*
X108071428Y-100404761D02*
X107976190Y-100452380D01*
X107785714Y-100452380D01*
X107690476Y-100404761D01*
X107642857Y-100357142D01*
X107595238Y-100261904D01*
X107595238Y-99976190D01*
X107642857Y-99880952D01*
X107690476Y-99833333D01*
X107785714Y-99785714D01*
X107976190Y-99785714D01*
X108071428Y-99833333D01*
X95380952Y-102054761D02*
X95523809Y-102102380D01*
X95761904Y-102102380D01*
X95857142Y-102054761D01*
X95904761Y-102007142D01*
X95952380Y-101911904D01*
X95952380Y-101816666D01*
X95904761Y-101721428D01*
X95857142Y-101673809D01*
X95761904Y-101626190D01*
X95571428Y-101578571D01*
X95476190Y-101530952D01*
X95428571Y-101483333D01*
X95380952Y-101388095D01*
X95380952Y-101292857D01*
X95428571Y-101197619D01*
X95476190Y-101150000D01*
X95571428Y-101102380D01*
X95809523Y-101102380D01*
X95952380Y-101150000D01*
X96380952Y-102102380D02*
X96380952Y-101435714D01*
X96380952Y-101102380D02*
X96333333Y-101150000D01*
X96380952Y-101197619D01*
X96428571Y-101150000D01*
X96380952Y-101102380D01*
X96380952Y-101197619D01*
X97000000Y-102102380D02*
X96904761Y-102054761D01*
X96857142Y-101959523D01*
X96857142Y-101102380D01*
X97380952Y-102102380D02*
X97380952Y-101102380D01*
X97476190Y-101721428D02*
X97761904Y-102102380D01*
X97761904Y-101435714D02*
X97380952Y-101816666D01*
X98142857Y-102054761D02*
X98238095Y-102102380D01*
X98428571Y-102102380D01*
X98523809Y-102054761D01*
X98571428Y-101959523D01*
X98571428Y-101911904D01*
X98523809Y-101816666D01*
X98428571Y-101769047D01*
X98285714Y-101769047D01*
X98190476Y-101721428D01*
X98142857Y-101626190D01*
X98142857Y-101578571D01*
X98190476Y-101483333D01*
X98285714Y-101435714D01*
X98428571Y-101435714D01*
X98523809Y-101483333D01*
X99428571Y-102054761D02*
X99333333Y-102102380D01*
X99142857Y-102102380D01*
X99047619Y-102054761D01*
X99000000Y-102007142D01*
X98952380Y-101911904D01*
X98952380Y-101626190D01*
X99000000Y-101530952D01*
X99047619Y-101483333D01*
X99142857Y-101435714D01*
X99333333Y-101435714D01*
X99428571Y-101483333D01*
X99857142Y-102102380D02*
X99857142Y-101435714D01*
X99857142Y-101626190D02*
X99904761Y-101530952D01*
X99952380Y-101483333D01*
X100047619Y-101435714D01*
X100142857Y-101435714D01*
X100857142Y-102054761D02*
X100761904Y-102102380D01*
X100571428Y-102102380D01*
X100476190Y-102054761D01*
X100428571Y-101959523D01*
X100428571Y-101578571D01*
X100476190Y-101483333D01*
X100571428Y-101435714D01*
X100761904Y-101435714D01*
X100857142Y-101483333D01*
X100904761Y-101578571D01*
X100904761Y-101673809D01*
X100428571Y-101769047D01*
X101714285Y-102054761D02*
X101619047Y-102102380D01*
X101428571Y-102102380D01*
X101333333Y-102054761D01*
X101285714Y-101959523D01*
X101285714Y-101578571D01*
X101333333Y-101483333D01*
X101428571Y-101435714D01*
X101619047Y-101435714D01*
X101714285Y-101483333D01*
X101761904Y-101578571D01*
X101761904Y-101673809D01*
X101285714Y-101769047D01*
X102190476Y-101435714D02*
X102190476Y-102102380D01*
X102190476Y-101530952D02*
X102238095Y-101483333D01*
X102333333Y-101435714D01*
X102476190Y-101435714D01*
X102571428Y-101483333D01*
X102619047Y-101578571D01*
X102619047Y-102102380D01*
X103095238Y-101721428D02*
X103857142Y-101721428D01*
X105000000Y-101102380D02*
X105238095Y-102102380D01*
X105428571Y-101388095D01*
X105619047Y-102102380D01*
X105857142Y-101102380D01*
X106238095Y-102102380D02*
X106238095Y-101102380D01*
X106666666Y-102102380D02*
X106666666Y-101578571D01*
X106619047Y-101483333D01*
X106523809Y-101435714D01*
X106380952Y-101435714D01*
X106285714Y-101483333D01*
X106238095Y-101530952D01*
X107142857Y-102102380D02*
X107142857Y-101435714D01*
X107142857Y-101102380D02*
X107095238Y-101150000D01*
X107142857Y-101197619D01*
X107190476Y-101150000D01*
X107142857Y-101102380D01*
X107142857Y-101197619D01*
X107476190Y-101435714D02*
X107857142Y-101435714D01*
X107619047Y-101102380D02*
X107619047Y-101959523D01*
X107666666Y-102054761D01*
X107761904Y-102102380D01*
X107857142Y-102102380D01*
X108571428Y-102054761D02*
X108476190Y-102102380D01*
X108285714Y-102102380D01*
X108190476Y-102054761D01*
X108142857Y-101959523D01*
X108142857Y-101578571D01*
X108190476Y-101483333D01*
X108285714Y-101435714D01*
X108476190Y-101435714D01*
X108571428Y-101483333D01*
X108619047Y-101578571D01*
X108619047Y-101673809D01*
X108142857Y-101769047D01*
X93928571Y-103704761D02*
X94071428Y-103752380D01*
X94309523Y-103752380D01*
X94404761Y-103704761D01*
X94452380Y-103657142D01*
X94500000Y-103561904D01*
X94500000Y-103466666D01*
X94452380Y-103371428D01*
X94404761Y-103323809D01*
X94309523Y-103276190D01*
X94119047Y-103228571D01*
X94023809Y-103180952D01*
X93976190Y-103133333D01*
X93928571Y-103038095D01*
X93928571Y-102942857D01*
X93976190Y-102847619D01*
X94023809Y-102800000D01*
X94119047Y-102752380D01*
X94357142Y-102752380D01*
X94500000Y-102800000D01*
X95357142Y-103085714D02*
X95357142Y-103752380D01*
X94928571Y-103085714D02*
X94928571Y-103609523D01*
X94976190Y-103704761D01*
X95071428Y-103752380D01*
X95214285Y-103752380D01*
X95309523Y-103704761D01*
X95357142Y-103657142D01*
X95833333Y-103752380D02*
X95833333Y-103085714D01*
X95833333Y-103276190D02*
X95880952Y-103180952D01*
X95928571Y-103133333D01*
X96023809Y-103085714D01*
X96119047Y-103085714D01*
X96309523Y-103085714D02*
X96690476Y-103085714D01*
X96452380Y-103752380D02*
X96452380Y-102895238D01*
X96500000Y-102800000D01*
X96595238Y-102752380D01*
X96690476Y-102752380D01*
X97452380Y-103752380D02*
X97452380Y-103228571D01*
X97404761Y-103133333D01*
X97309523Y-103085714D01*
X97119047Y-103085714D01*
X97023809Y-103133333D01*
X97452380Y-103704761D02*
X97357142Y-103752380D01*
X97119047Y-103752380D01*
X97023809Y-103704761D01*
X96976190Y-103609523D01*
X96976190Y-103514285D01*
X97023809Y-103419047D01*
X97119047Y-103371428D01*
X97357142Y-103371428D01*
X97452380Y-103323809D01*
X98357142Y-103704761D02*
X98261904Y-103752380D01*
X98071428Y-103752380D01*
X97976190Y-103704761D01*
X97928571Y-103657142D01*
X97880952Y-103561904D01*
X97880952Y-103276190D01*
X97928571Y-103180952D01*
X97976190Y-103133333D01*
X98071428Y-103085714D01*
X98261904Y-103085714D01*
X98357142Y-103133333D01*
X99166666Y-103704761D02*
X99071428Y-103752380D01*
X98880952Y-103752380D01*
X98785714Y-103704761D01*
X98738095Y-103609523D01*
X98738095Y-103228571D01*
X98785714Y-103133333D01*
X98880952Y-103085714D01*
X99071428Y-103085714D01*
X99166666Y-103133333D01*
X99214285Y-103228571D01*
X99214285Y-103323809D01*
X98738095Y-103419047D01*
X100738095Y-103228571D02*
X100404761Y-103228571D01*
X100404761Y-103752380D02*
X100404761Y-102752380D01*
X100880952Y-102752380D01*
X101261904Y-103752380D02*
X101261904Y-103085714D01*
X101261904Y-102752380D02*
X101214285Y-102800000D01*
X101261904Y-102847619D01*
X101309523Y-102800000D01*
X101261904Y-102752380D01*
X101261904Y-102847619D01*
X101738095Y-103085714D02*
X101738095Y-103752380D01*
X101738095Y-103180952D02*
X101785714Y-103133333D01*
X101880952Y-103085714D01*
X102023809Y-103085714D01*
X102119047Y-103133333D01*
X102166666Y-103228571D01*
X102166666Y-103752380D01*
X102642857Y-103752380D02*
X102642857Y-103085714D01*
X102642857Y-102752380D02*
X102595238Y-102800000D01*
X102642857Y-102847619D01*
X102690476Y-102800000D01*
X102642857Y-102752380D01*
X102642857Y-102847619D01*
X103071428Y-103704761D02*
X103166666Y-103752380D01*
X103357142Y-103752380D01*
X103452380Y-103704761D01*
X103500000Y-103609523D01*
X103500000Y-103561904D01*
X103452380Y-103466666D01*
X103357142Y-103419047D01*
X103214285Y-103419047D01*
X103119047Y-103371428D01*
X103071428Y-103276190D01*
X103071428Y-103228571D01*
X103119047Y-103133333D01*
X103214285Y-103085714D01*
X103357142Y-103085714D01*
X103452380Y-103133333D01*
X103928571Y-103752380D02*
X103928571Y-102752380D01*
X104357142Y-103752380D02*
X104357142Y-103228571D01*
X104309523Y-103133333D01*
X104214285Y-103085714D01*
X104071428Y-103085714D01*
X103976190Y-103133333D01*
X103928571Y-103180952D01*
X104833333Y-103371428D02*
X105595238Y-103371428D01*
X106833333Y-103752380D02*
X106833333Y-102752380D01*
X106833333Y-103228571D02*
X107404761Y-103228571D01*
X107404761Y-103752380D02*
X107404761Y-102752380D01*
X107833333Y-103466666D02*
X108309523Y-103466666D01*
X107738095Y-103752380D02*
X108071428Y-102752380D01*
X108404761Y-103752380D01*
X108690476Y-103704761D02*
X108833333Y-103752380D01*
X109071428Y-103752380D01*
X109166666Y-103704761D01*
X109214285Y-103657142D01*
X109261904Y-103561904D01*
X109261904Y-103466666D01*
X109214285Y-103371428D01*
X109166666Y-103323809D01*
X109071428Y-103276190D01*
X108880952Y-103228571D01*
X108785714Y-103180952D01*
X108738095Y-103133333D01*
X108690476Y-103038095D01*
X108690476Y-102942857D01*
X108738095Y-102847619D01*
X108785714Y-102800000D01*
X108880952Y-102752380D01*
X109119047Y-102752380D01*
X109261904Y-102800000D01*
X110166666Y-103752380D02*
X109690476Y-103752380D01*
X109690476Y-102752380D01*
X138726190Y-66202380D02*
X138250000Y-66202380D01*
X138250000Y-65202380D01*
X139011904Y-65916666D02*
X139488095Y-65916666D01*
X138916666Y-66202380D02*
X139250000Y-65202380D01*
X139583333Y-66202380D01*
X140107142Y-65726190D02*
X140107142Y-66202380D01*
X139773809Y-65202380D02*
X140107142Y-65726190D01*
X140440476Y-65202380D01*
X140773809Y-65678571D02*
X141107142Y-65678571D01*
X141250000Y-66202380D02*
X140773809Y-66202380D01*
X140773809Y-65202380D01*
X141250000Y-65202380D01*
X142250000Y-66202380D02*
X141916666Y-65726190D01*
X141678571Y-66202380D02*
X141678571Y-65202380D01*
X142059523Y-65202380D01*
X142154761Y-65250000D01*
X142202380Y-65297619D01*
X142250000Y-65392857D01*
X142250000Y-65535714D01*
X142202380Y-65630952D01*
X142154761Y-65678571D01*
X142059523Y-65726190D01*
X141678571Y-65726190D01*
X142630952Y-66154761D02*
X142773809Y-66202380D01*
X143011904Y-66202380D01*
X143107142Y-66154761D01*
X143154761Y-66107142D01*
X143202380Y-66011904D01*
X143202380Y-65916666D01*
X143154761Y-65821428D01*
X143107142Y-65773809D01*
X143011904Y-65726190D01*
X142821428Y-65678571D01*
X142726190Y-65630952D01*
X142678571Y-65583333D01*
X142630952Y-65488095D01*
X142630952Y-65392857D01*
X142678571Y-65297619D01*
X142726190Y-65250000D01*
X142821428Y-65202380D01*
X143059523Y-65202380D01*
X143202380Y-65250000D01*
X144250000Y-65202380D02*
X144821428Y-65202380D01*
X144535714Y-66202380D02*
X144535714Y-65202380D01*
X145107142Y-65916666D02*
X145583333Y-65916666D01*
X145011904Y-66202380D02*
X145345238Y-65202380D01*
X145678571Y-66202380D01*
X146345238Y-65678571D02*
X146488095Y-65726190D01*
X146535714Y-65773809D01*
X146583333Y-65869047D01*
X146583333Y-66011904D01*
X146535714Y-66107142D01*
X146488095Y-66154761D01*
X146392857Y-66202380D01*
X146011904Y-66202380D01*
X146011904Y-65202380D01*
X146345238Y-65202380D01*
X146440476Y-65250000D01*
X146488095Y-65297619D01*
X146535714Y-65392857D01*
X146535714Y-65488095D01*
X146488095Y-65583333D01*
X146440476Y-65630952D01*
X146345238Y-65678571D01*
X146011904Y-65678571D01*
X147488095Y-66202380D02*
X147011904Y-66202380D01*
X147011904Y-65202380D01*
X147821428Y-65678571D02*
X148154761Y-65678571D01*
X148297619Y-66202380D02*
X147821428Y-66202380D01*
X147821428Y-65202380D01*
X148297619Y-65202380D01*
X137940476Y-81154761D02*
X138083333Y-81202380D01*
X138321428Y-81202380D01*
X138416666Y-81154761D01*
X138464285Y-81107142D01*
X138511904Y-81011904D01*
X138511904Y-80916666D01*
X138464285Y-80821428D01*
X138416666Y-80773809D01*
X138321428Y-80726190D01*
X138130952Y-80678571D01*
X138035714Y-80630952D01*
X137988095Y-80583333D01*
X137940476Y-80488095D01*
X137940476Y-80392857D01*
X137988095Y-80297619D01*
X138035714Y-80250000D01*
X138130952Y-80202380D01*
X138369047Y-80202380D01*
X138511904Y-80250000D01*
X138940476Y-81202380D02*
X138940476Y-80535714D01*
X138940476Y-80202380D02*
X138892857Y-80250000D01*
X138940476Y-80297619D01*
X138988095Y-80250000D01*
X138940476Y-80202380D01*
X138940476Y-80297619D01*
X139559523Y-81202380D02*
X139464285Y-81154761D01*
X139416666Y-81059523D01*
X139416666Y-80202380D01*
X139940476Y-81202380D02*
X139940476Y-80202380D01*
X140035714Y-80821428D02*
X140321428Y-81202380D01*
X140321428Y-80535714D02*
X139940476Y-80916666D01*
X140702380Y-81154761D02*
X140797619Y-81202380D01*
X140988095Y-81202380D01*
X141083333Y-81154761D01*
X141130952Y-81059523D01*
X141130952Y-81011904D01*
X141083333Y-80916666D01*
X140988095Y-80869047D01*
X140845238Y-80869047D01*
X140750000Y-80821428D01*
X140702380Y-80726190D01*
X140702380Y-80678571D01*
X140750000Y-80583333D01*
X140845238Y-80535714D01*
X140988095Y-80535714D01*
X141083333Y-80583333D01*
X141988095Y-81154761D02*
X141892857Y-81202380D01*
X141702380Y-81202380D01*
X141607142Y-81154761D01*
X141559523Y-81107142D01*
X141511904Y-81011904D01*
X141511904Y-80726190D01*
X141559523Y-80630952D01*
X141607142Y-80583333D01*
X141702380Y-80535714D01*
X141892857Y-80535714D01*
X141988095Y-80583333D01*
X142416666Y-81202380D02*
X142416666Y-80535714D01*
X142416666Y-80726190D02*
X142464285Y-80630952D01*
X142511904Y-80583333D01*
X142607142Y-80535714D01*
X142702380Y-80535714D01*
X143416666Y-81154761D02*
X143321428Y-81202380D01*
X143130952Y-81202380D01*
X143035714Y-81154761D01*
X142988095Y-81059523D01*
X142988095Y-80678571D01*
X143035714Y-80583333D01*
X143130952Y-80535714D01*
X143321428Y-80535714D01*
X143416666Y-80583333D01*
X143464285Y-80678571D01*
X143464285Y-80773809D01*
X142988095Y-80869047D01*
X144273809Y-81154761D02*
X144178571Y-81202380D01*
X143988095Y-81202380D01*
X143892857Y-81154761D01*
X143845238Y-81059523D01*
X143845238Y-80678571D01*
X143892857Y-80583333D01*
X143988095Y-80535714D01*
X144178571Y-80535714D01*
X144273809Y-80583333D01*
X144321428Y-80678571D01*
X144321428Y-80773809D01*
X143845238Y-80869047D01*
X144750000Y-80535714D02*
X144750000Y-81202380D01*
X144750000Y-80630952D02*
X144797619Y-80583333D01*
X144892857Y-80535714D01*
X145035714Y-80535714D01*
X145130952Y-80583333D01*
X145178571Y-80678571D01*
X145178571Y-81202380D01*
X146273809Y-80202380D02*
X146845238Y-80202380D01*
X146559523Y-81202380D02*
X146559523Y-80202380D01*
X147321428Y-81202380D02*
X147226190Y-81154761D01*
X147178571Y-81107142D01*
X147130952Y-81011904D01*
X147130952Y-80726190D01*
X147178571Y-80630952D01*
X147226190Y-80583333D01*
X147321428Y-80535714D01*
X147464285Y-80535714D01*
X147559523Y-80583333D01*
X147607142Y-80630952D01*
X147654761Y-80726190D01*
X147654761Y-81011904D01*
X147607142Y-81107142D01*
X147559523Y-81154761D01*
X147464285Y-81202380D01*
X147321428Y-81202380D01*
X148083333Y-80535714D02*
X148083333Y-81535714D01*
X148083333Y-80583333D02*
X148178571Y-80535714D01*
X148369047Y-80535714D01*
X148464285Y-80583333D01*
X148511904Y-80630952D01*
X148559523Y-80726190D01*
X148559523Y-81011904D01*
X148511904Y-81107142D01*
X148464285Y-81154761D01*
X148369047Y-81202380D01*
X148178571Y-81202380D01*
X148083333Y-81154761D01*
D11*
X150750000Y-97250000D02*
X150750000Y-99750000D01*
X135750000Y-97250000D02*
X150750000Y-97250000D01*
X135750000Y-99750000D02*
X135750000Y-97250000D01*
X135750000Y-93750000D02*
X135750000Y-91250000D01*
X135750000Y-91250000D02*
X150750000Y-91250000D01*
X150750000Y-91250000D02*
X150750000Y-93750000D01*
X150750000Y-93750000D02*
X135750000Y-93750000D01*
X150750000Y-99750000D02*
X135750000Y-99750000D01*
X135750000Y-94250000D02*
X150750000Y-94250000D01*
X135750000Y-96750000D02*
X135750000Y-94250000D01*
X150750000Y-94250000D02*
X150750000Y-96750000D01*
X150750000Y-96750000D02*
X135750000Y-96750000D01*
X150750000Y-82250000D02*
X150750000Y-84750000D01*
X135750000Y-84750000D02*
X135750000Y-82250000D01*
X135750000Y-82250000D02*
X150750000Y-82250000D01*
X150750000Y-84750000D02*
X135750000Y-84750000D01*
X135750000Y-85250000D02*
X150750000Y-85250000D01*
X135750000Y-87750000D02*
X135750000Y-85250000D01*
X150750000Y-85250000D02*
X150750000Y-87750000D01*
X150750000Y-87750000D02*
X135750000Y-87750000D01*
X150750000Y-90750000D02*
X135750000Y-90750000D01*
X150750000Y-88250000D02*
X150750000Y-90750000D01*
X135750000Y-90750000D02*
X135750000Y-88250000D01*
X135750000Y-88250000D02*
X150750000Y-88250000D01*
X150750000Y-81750000D02*
X135750000Y-81750000D01*
X135750000Y-81750000D02*
X135750000Y-79250000D01*
X150750000Y-79250000D02*
X150750000Y-81750000D01*
X135750000Y-79250000D02*
X150750000Y-79250000D01*
X150750000Y-78750000D02*
X135750000Y-78750000D01*
X135750000Y-78750000D02*
X135750000Y-76250000D01*
X150750000Y-76250000D02*
X150750000Y-78750000D01*
X135750000Y-76250000D02*
X150750000Y-76250000D01*
X150750000Y-75750000D02*
X135750000Y-75750000D01*
X135750000Y-75750000D02*
X135750000Y-73250000D01*
X150750000Y-73250000D02*
X150750000Y-75750000D01*
X135750000Y-73250000D02*
X150750000Y-73250000D01*
X150750000Y-72750000D02*
X135750000Y-72750000D01*
X135750000Y-72750000D02*
X135750000Y-70250000D01*
X150750000Y-70250000D02*
X150750000Y-72750000D01*
X135750000Y-70250000D02*
X150750000Y-70250000D01*
X135750000Y-69750000D02*
X135750000Y-67250000D01*
X150750000Y-69750000D02*
X135750000Y-69750000D01*
X150750000Y-67250000D02*
X150750000Y-69750000D01*
X135750000Y-67250000D02*
X150750000Y-67250000D01*
D12*
X104917857Y-87560414D02*
X105171857Y-88322414D01*
X105425857Y-87560414D01*
X105679857Y-88322414D02*
X105679857Y-87560414D01*
X106042714Y-88322414D02*
X106042714Y-87560414D01*
X106478142Y-88322414D01*
X106478142Y-87560414D01*
X106841000Y-88032128D02*
X107421571Y-88032128D01*
X108292428Y-87560414D02*
X108764142Y-87560414D01*
X108510142Y-87850700D01*
X108619000Y-87850700D01*
X108691571Y-87886985D01*
X108727857Y-87923271D01*
X108764142Y-87995842D01*
X108764142Y-88177271D01*
X108727857Y-88249842D01*
X108691571Y-88286128D01*
X108619000Y-88322414D01*
X108401285Y-88322414D01*
X108328714Y-88286128D01*
X108292428Y-88249842D01*
X109090714Y-88249842D02*
X109127000Y-88286128D01*
X109090714Y-88322414D01*
X109054428Y-88286128D01*
X109090714Y-88249842D01*
X109090714Y-88322414D01*
X109598714Y-87560414D02*
X109671285Y-87560414D01*
X109743857Y-87596700D01*
X109780142Y-87632985D01*
X109816428Y-87705557D01*
X109852714Y-87850700D01*
X109852714Y-88032128D01*
X109816428Y-88177271D01*
X109780142Y-88249842D01*
X109743857Y-88286128D01*
X109671285Y-88322414D01*
X109598714Y-88322414D01*
X109526142Y-88286128D01*
X109489857Y-88249842D01*
X109453571Y-88177271D01*
X109417285Y-88032128D01*
X109417285Y-87850700D01*
X109453571Y-87705557D01*
X109489857Y-87632985D01*
X109526142Y-87596700D01*
X109598714Y-87560414D01*
X110070428Y-87560414D02*
X110324428Y-88322414D01*
X110578428Y-87560414D01*
X111304142Y-87814414D02*
X111594428Y-87814414D01*
X111413000Y-87560414D02*
X111413000Y-88213557D01*
X111449285Y-88286128D01*
X111521857Y-88322414D01*
X111594428Y-88322414D01*
X111957285Y-88322414D02*
X111884714Y-88286128D01*
X111848428Y-88249842D01*
X111812142Y-88177271D01*
X111812142Y-87959557D01*
X111848428Y-87886985D01*
X111884714Y-87850700D01*
X111957285Y-87814414D01*
X112066142Y-87814414D01*
X112138714Y-87850700D01*
X112175000Y-87886985D01*
X112211285Y-87959557D01*
X112211285Y-88177271D01*
X112175000Y-88249842D01*
X112138714Y-88286128D01*
X112066142Y-88322414D01*
X111957285Y-88322414D01*
X113481285Y-87560414D02*
X113118428Y-87560414D01*
X113082142Y-87923271D01*
X113118428Y-87886985D01*
X113191000Y-87850700D01*
X113372428Y-87850700D01*
X113445000Y-87886985D01*
X113481285Y-87923271D01*
X113517571Y-87995842D01*
X113517571Y-88177271D01*
X113481285Y-88249842D01*
X113445000Y-88286128D01*
X113372428Y-88322414D01*
X113191000Y-88322414D01*
X113118428Y-88286128D01*
X113082142Y-88249842D01*
X113735285Y-87560414D02*
X113989285Y-88322414D01*
X114243285Y-87560414D01*
X102396000Y-88805014D02*
X102650000Y-89567014D01*
X102904000Y-88805014D01*
X103266857Y-89567014D02*
X103194285Y-89530728D01*
X103158000Y-89494442D01*
X103121714Y-89421871D01*
X103121714Y-89204157D01*
X103158000Y-89131585D01*
X103194285Y-89095300D01*
X103266857Y-89059014D01*
X103375714Y-89059014D01*
X103448285Y-89095300D01*
X103484571Y-89131585D01*
X103520857Y-89204157D01*
X103520857Y-89421871D01*
X103484571Y-89494442D01*
X103448285Y-89530728D01*
X103375714Y-89567014D01*
X103266857Y-89567014D01*
X104174000Y-89059014D02*
X104174000Y-89567014D01*
X103847428Y-89059014D02*
X103847428Y-89458157D01*
X103883714Y-89530728D01*
X103956285Y-89567014D01*
X104065142Y-89567014D01*
X104137714Y-89530728D01*
X104174000Y-89494442D01*
X104428000Y-89059014D02*
X104718285Y-89059014D01*
X104536857Y-88805014D02*
X104536857Y-89458157D01*
X104573142Y-89530728D01*
X104645714Y-89567014D01*
X104718285Y-89567014D01*
X105552857Y-89276728D02*
X106133428Y-89276728D01*
X106895428Y-89567014D02*
X106460000Y-89567014D01*
X106677714Y-89567014D02*
X106677714Y-88805014D01*
X106605142Y-88913871D01*
X106532571Y-88986442D01*
X106460000Y-89022728D01*
X107222000Y-89494442D02*
X107258285Y-89530728D01*
X107222000Y-89567014D01*
X107185714Y-89530728D01*
X107222000Y-89494442D01*
X107222000Y-89567014D01*
X107693714Y-89131585D02*
X107621142Y-89095300D01*
X107584857Y-89059014D01*
X107548571Y-88986442D01*
X107548571Y-88950157D01*
X107584857Y-88877585D01*
X107621142Y-88841300D01*
X107693714Y-88805014D01*
X107838857Y-88805014D01*
X107911428Y-88841300D01*
X107947714Y-88877585D01*
X107984000Y-88950157D01*
X107984000Y-88986442D01*
X107947714Y-89059014D01*
X107911428Y-89095300D01*
X107838857Y-89131585D01*
X107693714Y-89131585D01*
X107621142Y-89167871D01*
X107584857Y-89204157D01*
X107548571Y-89276728D01*
X107548571Y-89421871D01*
X107584857Y-89494442D01*
X107621142Y-89530728D01*
X107693714Y-89567014D01*
X107838857Y-89567014D01*
X107911428Y-89530728D01*
X107947714Y-89494442D01*
X107984000Y-89421871D01*
X107984000Y-89276728D01*
X107947714Y-89204157D01*
X107911428Y-89167871D01*
X107838857Y-89131585D01*
X108201714Y-88805014D02*
X108455714Y-89567014D01*
X108709714Y-88805014D01*
X108963714Y-89276728D02*
X109544285Y-89276728D01*
X109834571Y-88805014D02*
X110306285Y-88805014D01*
X110052285Y-89095300D01*
X110161142Y-89095300D01*
X110233714Y-89131585D01*
X110270000Y-89167871D01*
X110306285Y-89240442D01*
X110306285Y-89421871D01*
X110270000Y-89494442D01*
X110233714Y-89530728D01*
X110161142Y-89567014D01*
X109943428Y-89567014D01*
X109870857Y-89530728D01*
X109834571Y-89494442D01*
X110632857Y-89494442D02*
X110669142Y-89530728D01*
X110632857Y-89567014D01*
X110596571Y-89530728D01*
X110632857Y-89494442D01*
X110632857Y-89567014D01*
X111104571Y-89131585D02*
X111032000Y-89095300D01*
X110995714Y-89059014D01*
X110959428Y-88986442D01*
X110959428Y-88950157D01*
X110995714Y-88877585D01*
X111032000Y-88841300D01*
X111104571Y-88805014D01*
X111249714Y-88805014D01*
X111322285Y-88841300D01*
X111358571Y-88877585D01*
X111394857Y-88950157D01*
X111394857Y-88986442D01*
X111358571Y-89059014D01*
X111322285Y-89095300D01*
X111249714Y-89131585D01*
X111104571Y-89131585D01*
X111032000Y-89167871D01*
X110995714Y-89204157D01*
X110959428Y-89276728D01*
X110959428Y-89421871D01*
X110995714Y-89494442D01*
X111032000Y-89530728D01*
X111104571Y-89567014D01*
X111249714Y-89567014D01*
X111322285Y-89530728D01*
X111358571Y-89494442D01*
X111394857Y-89421871D01*
X111394857Y-89276728D01*
X111358571Y-89204157D01*
X111322285Y-89167871D01*
X111249714Y-89131585D01*
X111612571Y-88805014D02*
X111866571Y-89567014D01*
X112120571Y-88805014D01*
X112592285Y-89857300D02*
X112556000Y-89821014D01*
X112483428Y-89712157D01*
X112447142Y-89639585D01*
X112410857Y-89530728D01*
X112374571Y-89349300D01*
X112374571Y-89204157D01*
X112410857Y-89022728D01*
X112447142Y-88913871D01*
X112483428Y-88841300D01*
X112556000Y-88732442D01*
X112592285Y-88696157D01*
X112810000Y-88805014D02*
X113281714Y-88805014D01*
X113027714Y-89095300D01*
X113136571Y-89095300D01*
X113209142Y-89131585D01*
X113245428Y-89167871D01*
X113281714Y-89240442D01*
X113281714Y-89421871D01*
X113245428Y-89494442D01*
X113209142Y-89530728D01*
X113136571Y-89567014D01*
X112918857Y-89567014D01*
X112846285Y-89530728D01*
X112810000Y-89494442D01*
X113608285Y-89494442D02*
X113644571Y-89530728D01*
X113608285Y-89567014D01*
X113572000Y-89530728D01*
X113608285Y-89494442D01*
X113608285Y-89567014D01*
X114080000Y-89131585D02*
X114007428Y-89095300D01*
X113971142Y-89059014D01*
X113934857Y-88986442D01*
X113934857Y-88950157D01*
X113971142Y-88877585D01*
X114007428Y-88841300D01*
X114080000Y-88805014D01*
X114225142Y-88805014D01*
X114297714Y-88841300D01*
X114334000Y-88877585D01*
X114370285Y-88950157D01*
X114370285Y-88986442D01*
X114334000Y-89059014D01*
X114297714Y-89095300D01*
X114225142Y-89131585D01*
X114080000Y-89131585D01*
X114007428Y-89167871D01*
X113971142Y-89204157D01*
X113934857Y-89276728D01*
X113934857Y-89421871D01*
X113971142Y-89494442D01*
X114007428Y-89530728D01*
X114080000Y-89567014D01*
X114225142Y-89567014D01*
X114297714Y-89530728D01*
X114334000Y-89494442D01*
X114370285Y-89421871D01*
X114370285Y-89276728D01*
X114334000Y-89204157D01*
X114297714Y-89167871D01*
X114225142Y-89131585D01*
X114588000Y-88805014D02*
X114842000Y-89567014D01*
X115096000Y-88805014D01*
X115277428Y-89857300D02*
X115313714Y-89821014D01*
X115386285Y-89712157D01*
X115422571Y-89639585D01*
X115458857Y-89530728D01*
X115495142Y-89349300D01*
X115495142Y-89204157D01*
X115458857Y-89022728D01*
X115422571Y-88913871D01*
X115386285Y-88841300D01*
X115313714Y-88732442D01*
X115277428Y-88696157D01*
D10*
X119638095Y-84700000D02*
X119542857Y-84652380D01*
X119400000Y-84652380D01*
X119257142Y-84700000D01*
X119161904Y-84795238D01*
X119114285Y-84890476D01*
X119066666Y-85080952D01*
X119066666Y-85223809D01*
X119114285Y-85414285D01*
X119161904Y-85509523D01*
X119257142Y-85604761D01*
X119400000Y-85652380D01*
X119495238Y-85652380D01*
X119638095Y-85604761D01*
X119685714Y-85557142D01*
X119685714Y-85223809D01*
X119495238Y-85223809D01*
X120114285Y-85652380D02*
X120114285Y-84652380D01*
X120685714Y-85652380D01*
X120685714Y-84652380D01*
X121161904Y-85652380D02*
X121161904Y-84652380D01*
X121400000Y-84652380D01*
X121542857Y-84700000D01*
X121638095Y-84795238D01*
X121685714Y-84890476D01*
X121733333Y-85080952D01*
X121733333Y-85223809D01*
X121685714Y-85414285D01*
X121638095Y-85509523D01*
X121542857Y-85604761D01*
X121400000Y-85652380D01*
X121161904Y-85652380D01*
X118438095Y-77052380D02*
X118771428Y-78052380D01*
X119104761Y-77052380D01*
X119628571Y-77052380D02*
X119819047Y-77052380D01*
X119914285Y-77100000D01*
X120009523Y-77195238D01*
X120057142Y-77385714D01*
X120057142Y-77719047D01*
X120009523Y-77909523D01*
X119914285Y-78004761D01*
X119819047Y-78052380D01*
X119628571Y-78052380D01*
X119533333Y-78004761D01*
X119438095Y-77909523D01*
X119390476Y-77719047D01*
X119390476Y-77385714D01*
X119438095Y-77195238D01*
X119533333Y-77100000D01*
X119628571Y-77052380D01*
X120485714Y-77052380D02*
X120485714Y-77861904D01*
X120533333Y-77957142D01*
X120580952Y-78004761D01*
X120676190Y-78052380D01*
X120866666Y-78052380D01*
X120961904Y-78004761D01*
X121009523Y-77957142D01*
X121057142Y-77861904D01*
X121057142Y-77052380D01*
X121390476Y-77052380D02*
X121961904Y-77052380D01*
X121676190Y-78052380D02*
X121676190Y-77052380D01*
D12*
X100619428Y-74419000D02*
X100546857Y-74382714D01*
X100438000Y-74382714D01*
X100329142Y-74419000D01*
X100256571Y-74491571D01*
X100220285Y-74564142D01*
X100184000Y-74709285D01*
X100184000Y-74818142D01*
X100220285Y-74963285D01*
X100256571Y-75035857D01*
X100329142Y-75108428D01*
X100438000Y-75144714D01*
X100510571Y-75144714D01*
X100619428Y-75108428D01*
X100655714Y-75072142D01*
X100655714Y-74818142D01*
X100510571Y-74818142D01*
X100982285Y-75144714D02*
X100982285Y-74382714D01*
X101417714Y-75144714D01*
X101417714Y-74382714D01*
X101780571Y-75144714D02*
X101780571Y-74382714D01*
X101962000Y-74382714D01*
X102070857Y-74419000D01*
X102143428Y-74491571D01*
X102179714Y-74564142D01*
X102216000Y-74709285D01*
X102216000Y-74818142D01*
X102179714Y-74963285D01*
X102143428Y-75035857D01*
X102070857Y-75108428D01*
X101962000Y-75144714D01*
X101780571Y-75144714D01*
D10*
X100028571Y-81671428D02*
X100790476Y-81671428D01*
X100409523Y-82052380D02*
X100409523Y-81290476D01*
X101123809Y-81052380D02*
X101457142Y-82052380D01*
X101790476Y-81052380D01*
X102123809Y-82052380D02*
X102123809Y-81052380D01*
X102600000Y-82052380D02*
X102600000Y-81052380D01*
X103171428Y-82052380D01*
X103171428Y-81052380D01*
X131817619Y-76738095D02*
X131817619Y-76833333D01*
X131770000Y-76928571D01*
X131722380Y-76976190D01*
X131627142Y-77023809D01*
X131436666Y-77071428D01*
X131198571Y-77071428D01*
X131008095Y-77023809D01*
X130912857Y-76976190D01*
X130865238Y-76928571D01*
X130817619Y-76833333D01*
X130817619Y-76738095D01*
X130865238Y-76642857D01*
X130912857Y-76595238D01*
X131008095Y-76547619D01*
X131198571Y-76500000D01*
X131436666Y-76500000D01*
X131627142Y-76547619D01*
X131722380Y-76595238D01*
X131770000Y-76642857D01*
X131817619Y-76738095D01*
X130912857Y-77500000D02*
X130865238Y-77547619D01*
X130817619Y-77500000D01*
X130865238Y-77452380D01*
X130912857Y-77500000D01*
X130817619Y-77500000D01*
X131817619Y-77880952D02*
X131817619Y-78547619D01*
X130817619Y-78119047D01*
X131389047Y-79071428D02*
X131436666Y-78976190D01*
X131484285Y-78928571D01*
X131579523Y-78880952D01*
X131627142Y-78880952D01*
X131722380Y-78928571D01*
X131770000Y-78976190D01*
X131817619Y-79071428D01*
X131817619Y-79261904D01*
X131770000Y-79357142D01*
X131722380Y-79404761D01*
X131627142Y-79452380D01*
X131579523Y-79452380D01*
X131484285Y-79404761D01*
X131436666Y-79357142D01*
X131389047Y-79261904D01*
X131389047Y-79071428D01*
X131341428Y-78976190D01*
X131293809Y-78928571D01*
X131198571Y-78880952D01*
X131008095Y-78880952D01*
X130912857Y-78928571D01*
X130865238Y-78976190D01*
X130817619Y-79071428D01*
X130817619Y-79261904D01*
X130865238Y-79357142D01*
X130912857Y-79404761D01*
X131008095Y-79452380D01*
X131198571Y-79452380D01*
X131293809Y-79404761D01*
X131341428Y-79357142D01*
X131389047Y-79261904D01*
X131817619Y-79785714D02*
X131817619Y-80452380D01*
X130817619Y-80023809D01*
X131484285Y-81261904D02*
X130817619Y-81261904D01*
X131865238Y-81023809D02*
X131150952Y-80785714D01*
X131150952Y-81404761D01*
X130817619Y-82547619D02*
X131484285Y-82547619D01*
X131817619Y-82547619D02*
X131770000Y-82500000D01*
X131722380Y-82547619D01*
X131770000Y-82595238D01*
X131817619Y-82547619D01*
X131722380Y-82547619D01*
X131484285Y-83023809D02*
X130817619Y-83023809D01*
X131389047Y-83023809D02*
X131436666Y-83071428D01*
X131484285Y-83166666D01*
X131484285Y-83309523D01*
X131436666Y-83404761D01*
X131341428Y-83452380D01*
X130817619Y-83452380D01*
D11*
X130000000Y-70000000D02*
X130000000Y-90000000D01*
X122000000Y-70000000D02*
X130586421Y-70000000D01*
X122000000Y-90000000D02*
X130586421Y-90000000D01*
X130000000Y-90000000D02*
X129413579Y-88873496D01*
X130000000Y-90000000D02*
X130586421Y-88873496D01*
X130000000Y-70000000D02*
X129413579Y-71126504D01*
X130000000Y-70000000D02*
X130586421Y-71126504D01*
D10*
X125817619Y-84142857D02*
X125770000Y-84095238D01*
X125722380Y-84000000D01*
X125722380Y-83761904D01*
X125770000Y-83666666D01*
X125817619Y-83619047D01*
X125912857Y-83571428D01*
X126008095Y-83571428D01*
X126150952Y-83619047D01*
X126722380Y-84190476D01*
X126722380Y-83571428D01*
X125722380Y-82952380D02*
X125722380Y-82857142D01*
X125770000Y-82761904D01*
X125817619Y-82714285D01*
X125912857Y-82666666D01*
X126103333Y-82619047D01*
X126341428Y-82619047D01*
X126531904Y-82666666D01*
X126627142Y-82714285D01*
X126674761Y-82761904D01*
X126722380Y-82857142D01*
X126722380Y-82952380D01*
X126674761Y-83047619D01*
X126627142Y-83095238D01*
X126531904Y-83142857D01*
X126341428Y-83190476D01*
X126103333Y-83190476D01*
X125912857Y-83142857D01*
X125817619Y-83095238D01*
X125770000Y-83047619D01*
X125722380Y-82952380D01*
X126627142Y-82190476D02*
X126674761Y-82142857D01*
X126722380Y-82190476D01*
X126674761Y-82238095D01*
X126627142Y-82190476D01*
X126722380Y-82190476D01*
X125722380Y-81523809D02*
X125722380Y-81428571D01*
X125770000Y-81333333D01*
X125817619Y-81285714D01*
X125912857Y-81238095D01*
X126103333Y-81190476D01*
X126341428Y-81190476D01*
X126531904Y-81238095D01*
X126627142Y-81285714D01*
X126674761Y-81333333D01*
X126722380Y-81428571D01*
X126722380Y-81523809D01*
X126674761Y-81619047D01*
X126627142Y-81666666D01*
X126531904Y-81714285D01*
X126341428Y-81761904D01*
X126103333Y-81761904D01*
X125912857Y-81714285D01*
X125817619Y-81666666D01*
X125770000Y-81619047D01*
X125722380Y-81523809D01*
X125722380Y-80571428D02*
X125722380Y-80476190D01*
X125770000Y-80380952D01*
X125817619Y-80333333D01*
X125912857Y-80285714D01*
X126103333Y-80238095D01*
X126341428Y-80238095D01*
X126531904Y-80285714D01*
X126627142Y-80333333D01*
X126674761Y-80380952D01*
X126722380Y-80476190D01*
X126722380Y-80571428D01*
X126674761Y-80666666D01*
X126627142Y-80714285D01*
X126531904Y-80761904D01*
X126341428Y-80809523D01*
X126103333Y-80809523D01*
X125912857Y-80761904D01*
X125817619Y-80714285D01*
X125770000Y-80666666D01*
X125722380Y-80571428D01*
X125722380Y-79619047D02*
X125722380Y-79523809D01*
X125770000Y-79428571D01*
X125817619Y-79380952D01*
X125912857Y-79333333D01*
X126103333Y-79285714D01*
X126341428Y-79285714D01*
X126531904Y-79333333D01*
X126627142Y-79380952D01*
X126674761Y-79428571D01*
X126722380Y-79523809D01*
X126722380Y-79619047D01*
X126674761Y-79714285D01*
X126627142Y-79761904D01*
X126531904Y-79809523D01*
X126341428Y-79857142D01*
X126103333Y-79857142D01*
X125912857Y-79809523D01*
X125817619Y-79761904D01*
X125770000Y-79714285D01*
X125722380Y-79619047D01*
X126722380Y-78095238D02*
X126055714Y-78095238D01*
X126150952Y-78095238D02*
X126103333Y-78047619D01*
X126055714Y-77952380D01*
X126055714Y-77809523D01*
X126103333Y-77714285D01*
X126198571Y-77666666D01*
X126722380Y-77666666D01*
X126198571Y-77666666D02*
X126103333Y-77619047D01*
X126055714Y-77523809D01*
X126055714Y-77380952D01*
X126103333Y-77285714D01*
X126198571Y-77238095D01*
X126722380Y-77238095D01*
X126722380Y-76761904D02*
X126055714Y-76761904D01*
X126150952Y-76761904D02*
X126103333Y-76714285D01*
X126055714Y-76619047D01*
X126055714Y-76476190D01*
X126103333Y-76380952D01*
X126198571Y-76333333D01*
X126722380Y-76333333D01*
X126198571Y-76333333D02*
X126103333Y-76285714D01*
X126055714Y-76190476D01*
X126055714Y-76047619D01*
X126103333Y-75952380D01*
X126198571Y-75904761D01*
X126722380Y-75904761D01*
D11*
X125000000Y-90000000D02*
X125000000Y-70000000D01*
X122000000Y-90000000D02*
X125586421Y-90000000D01*
X122000000Y-70000000D02*
X125586421Y-70000000D01*
X125000000Y-70000000D02*
X125586421Y-71126504D01*
X125000000Y-70000000D02*
X124413579Y-71126504D01*
X125000000Y-90000000D02*
X125586421Y-88873496D01*
X125000000Y-90000000D02*
X124413579Y-88873496D01*
D10*
X106857142Y-65777619D02*
X106904761Y-65730000D01*
X107000000Y-65682380D01*
X107238095Y-65682380D01*
X107333333Y-65730000D01*
X107380952Y-65777619D01*
X107428571Y-65872857D01*
X107428571Y-65968095D01*
X107380952Y-66110952D01*
X106809523Y-66682380D01*
X107428571Y-66682380D01*
X107809523Y-65777619D02*
X107857142Y-65730000D01*
X107952380Y-65682380D01*
X108190476Y-65682380D01*
X108285714Y-65730000D01*
X108333333Y-65777619D01*
X108380952Y-65872857D01*
X108380952Y-65968095D01*
X108333333Y-66110952D01*
X107761904Y-66682380D01*
X108380952Y-66682380D01*
X108809523Y-66587142D02*
X108857142Y-66634761D01*
X108809523Y-66682380D01*
X108761904Y-66634761D01*
X108809523Y-66587142D01*
X108809523Y-66682380D01*
X109476190Y-65682380D02*
X109571428Y-65682380D01*
X109666666Y-65730000D01*
X109714285Y-65777619D01*
X109761904Y-65872857D01*
X109809523Y-66063333D01*
X109809523Y-66301428D01*
X109761904Y-66491904D01*
X109714285Y-66587142D01*
X109666666Y-66634761D01*
X109571428Y-66682380D01*
X109476190Y-66682380D01*
X109380952Y-66634761D01*
X109333333Y-66587142D01*
X109285714Y-66491904D01*
X109238095Y-66301428D01*
X109238095Y-66063333D01*
X109285714Y-65872857D01*
X109333333Y-65777619D01*
X109380952Y-65730000D01*
X109476190Y-65682380D01*
X110428571Y-65682380D02*
X110523809Y-65682380D01*
X110619047Y-65730000D01*
X110666666Y-65777619D01*
X110714285Y-65872857D01*
X110761904Y-66063333D01*
X110761904Y-66301428D01*
X110714285Y-66491904D01*
X110666666Y-66587142D01*
X110619047Y-66634761D01*
X110523809Y-66682380D01*
X110428571Y-66682380D01*
X110333333Y-66634761D01*
X110285714Y-66587142D01*
X110238095Y-66491904D01*
X110190476Y-66301428D01*
X110190476Y-66063333D01*
X110238095Y-65872857D01*
X110285714Y-65777619D01*
X110333333Y-65730000D01*
X110428571Y-65682380D01*
X111380952Y-65682380D02*
X111476190Y-65682380D01*
X111571428Y-65730000D01*
X111619047Y-65777619D01*
X111666666Y-65872857D01*
X111714285Y-66063333D01*
X111714285Y-66301428D01*
X111666666Y-66491904D01*
X111619047Y-66587142D01*
X111571428Y-66634761D01*
X111476190Y-66682380D01*
X111380952Y-66682380D01*
X111285714Y-66634761D01*
X111238095Y-66587142D01*
X111190476Y-66491904D01*
X111142857Y-66301428D01*
X111142857Y-66063333D01*
X111190476Y-65872857D01*
X111238095Y-65777619D01*
X111285714Y-65730000D01*
X111380952Y-65682380D01*
X112904761Y-66682380D02*
X112904761Y-66015714D01*
X112904761Y-66110952D02*
X112952380Y-66063333D01*
X113047619Y-66015714D01*
X113190476Y-66015714D01*
X113285714Y-66063333D01*
X113333333Y-66158571D01*
X113333333Y-66682380D01*
X113333333Y-66158571D02*
X113380952Y-66063333D01*
X113476190Y-66015714D01*
X113619047Y-66015714D01*
X113714285Y-66063333D01*
X113761904Y-66158571D01*
X113761904Y-66682380D01*
X114238095Y-66682380D02*
X114238095Y-66015714D01*
X114238095Y-66110952D02*
X114285714Y-66063333D01*
X114380952Y-66015714D01*
X114523809Y-66015714D01*
X114619047Y-66063333D01*
X114666666Y-66158571D01*
X114666666Y-66682380D01*
X114666666Y-66158571D02*
X114714285Y-66063333D01*
X114809523Y-66015714D01*
X114952380Y-66015714D01*
X115047619Y-66063333D01*
X115095238Y-66158571D01*
X115095238Y-66682380D01*
D11*
X100000000Y-67500000D02*
X122000000Y-67500000D01*
X100000000Y-70000000D02*
X100000000Y-66913579D01*
X122000000Y-70000000D02*
X122000000Y-66913579D01*
X122000000Y-67500000D02*
X120873496Y-68086421D01*
X122000000Y-67500000D02*
X120873496Y-66913579D01*
X100000000Y-67500000D02*
X101126504Y-68086421D01*
X100000000Y-67500000D02*
X101126504Y-66913579D01*
D10*
X107738095Y-63182380D02*
X107833333Y-63182380D01*
X107928571Y-63230000D01*
X107976190Y-63277619D01*
X108023809Y-63372857D01*
X108071428Y-63563333D01*
X108071428Y-63801428D01*
X108023809Y-63991904D01*
X107976190Y-64087142D01*
X107928571Y-64134761D01*
X107833333Y-64182380D01*
X107738095Y-64182380D01*
X107642857Y-64134761D01*
X107595238Y-64087142D01*
X107547619Y-63991904D01*
X107500000Y-63801428D01*
X107500000Y-63563333D01*
X107547619Y-63372857D01*
X107595238Y-63277619D01*
X107642857Y-63230000D01*
X107738095Y-63182380D01*
X108500000Y-64087142D02*
X108547619Y-64134761D01*
X108500000Y-64182380D01*
X108452380Y-64134761D01*
X108500000Y-64087142D01*
X108500000Y-64182380D01*
X109119047Y-63610952D02*
X109023809Y-63563333D01*
X108976190Y-63515714D01*
X108928571Y-63420476D01*
X108928571Y-63372857D01*
X108976190Y-63277619D01*
X109023809Y-63230000D01*
X109119047Y-63182380D01*
X109309523Y-63182380D01*
X109404761Y-63230000D01*
X109452380Y-63277619D01*
X109500000Y-63372857D01*
X109500000Y-63420476D01*
X109452380Y-63515714D01*
X109404761Y-63563333D01*
X109309523Y-63610952D01*
X109119047Y-63610952D01*
X109023809Y-63658571D01*
X108976190Y-63706190D01*
X108928571Y-63801428D01*
X108928571Y-63991904D01*
X108976190Y-64087142D01*
X109023809Y-64134761D01*
X109119047Y-64182380D01*
X109309523Y-64182380D01*
X109404761Y-64134761D01*
X109452380Y-64087142D01*
X109500000Y-63991904D01*
X109500000Y-63801428D01*
X109452380Y-63706190D01*
X109404761Y-63658571D01*
X109309523Y-63610952D01*
X110357142Y-63182380D02*
X110166666Y-63182380D01*
X110071428Y-63230000D01*
X110023809Y-63277619D01*
X109928571Y-63420476D01*
X109880952Y-63610952D01*
X109880952Y-63991904D01*
X109928571Y-64087142D01*
X109976190Y-64134761D01*
X110071428Y-64182380D01*
X110261904Y-64182380D01*
X110357142Y-64134761D01*
X110404761Y-64087142D01*
X110452380Y-63991904D01*
X110452380Y-63753809D01*
X110404761Y-63658571D01*
X110357142Y-63610952D01*
X110261904Y-63563333D01*
X110071428Y-63563333D01*
X109976190Y-63610952D01*
X109928571Y-63658571D01*
X109880952Y-63753809D01*
X111309523Y-63182380D02*
X111119047Y-63182380D01*
X111023809Y-63230000D01*
X110976190Y-63277619D01*
X110880952Y-63420476D01*
X110833333Y-63610952D01*
X110833333Y-63991904D01*
X110880952Y-64087142D01*
X110928571Y-64134761D01*
X111023809Y-64182380D01*
X111214285Y-64182380D01*
X111309523Y-64134761D01*
X111357142Y-64087142D01*
X111404761Y-63991904D01*
X111404761Y-63753809D01*
X111357142Y-63658571D01*
X111309523Y-63610952D01*
X111214285Y-63563333D01*
X111023809Y-63563333D01*
X110928571Y-63610952D01*
X110880952Y-63658571D01*
X110833333Y-63753809D01*
X112357142Y-64182380D02*
X111785714Y-64182380D01*
X112071428Y-64182380D02*
X112071428Y-63182380D01*
X111976190Y-63325238D01*
X111880952Y-63420476D01*
X111785714Y-63468095D01*
X113547619Y-64182380D02*
X113547619Y-63515714D01*
X113547619Y-63182380D02*
X113500000Y-63230000D01*
X113547619Y-63277619D01*
X113595238Y-63230000D01*
X113547619Y-63182380D01*
X113547619Y-63277619D01*
X114023809Y-63515714D02*
X114023809Y-64182380D01*
X114023809Y-63610952D02*
X114071428Y-63563333D01*
X114166666Y-63515714D01*
X114309523Y-63515714D01*
X114404761Y-63563333D01*
X114452380Y-63658571D01*
X114452380Y-64182380D01*
D11*
X100000000Y-65000000D02*
X122000000Y-65000000D01*
X100000000Y-70000000D02*
X100000000Y-64413579D01*
X122000000Y-70000000D02*
X122000000Y-64413579D01*
X122000000Y-65000000D02*
X120873496Y-65586421D01*
X122000000Y-65000000D02*
X120873496Y-64413579D01*
X100000000Y-65000000D02*
X101126504Y-65586421D01*
X100000000Y-65000000D02*
X101126504Y-64413579D01*
D10*
%TO.C,R5*%
X111000000Y-83700000D02*
X113500000Y-83700000D01*
X113500000Y-83700000D02*
X113500000Y-84700000D01*
X113500000Y-84700000D02*
X111000000Y-84700000D01*
X111000000Y-84700000D02*
X111000000Y-83700000D01*
%TO.C,R1*%
X117700000Y-79600000D02*
X117700000Y-82100000D01*
X117700000Y-82100000D02*
X116700000Y-82100000D01*
X116700000Y-82100000D02*
X116700000Y-79600000D01*
X116700000Y-79600000D02*
X117700000Y-79600000D01*
%TO.C,C1*%
X106000000Y-77700000D02*
X106000000Y-78700000D01*
X103500000Y-77700000D02*
X106000000Y-77700000D01*
X103500000Y-78700000D02*
X103500000Y-77700000D01*
X106000000Y-78700000D02*
X103500000Y-78700000D01*
%TO.C,C2*%
X106200000Y-79400000D02*
X107200000Y-79400000D01*
X106200000Y-81900000D02*
X106200000Y-79400000D01*
X107200000Y-81900000D02*
X106200000Y-81900000D01*
X107200000Y-79400000D02*
X107200000Y-81900000D01*
%TO.C,C3*%
X107400000Y-79400000D02*
X108400000Y-79400000D01*
X107400000Y-81900000D02*
X107400000Y-79400000D01*
X108400000Y-81900000D02*
X107400000Y-81900000D01*
X108400000Y-79400000D02*
X108400000Y-81900000D01*
%TO.C,C4*%
X109600000Y-79400000D02*
X109600000Y-81900000D01*
X109600000Y-81900000D02*
X108600000Y-81900000D01*
X108600000Y-81900000D02*
X108600000Y-79400000D01*
X108600000Y-79400000D02*
X109600000Y-79400000D01*
%TO.C,C5*%
X114500000Y-79600000D02*
X114500000Y-82100000D01*
X114500000Y-82100000D02*
X113500000Y-82100000D01*
X113500000Y-82100000D02*
X113500000Y-79600000D01*
X113500000Y-79600000D02*
X114500000Y-79600000D01*
%TO.C,C6*%
X115600000Y-79600000D02*
X115600000Y-82100000D01*
X115600000Y-82100000D02*
X114600000Y-82100000D01*
X114600000Y-82100000D02*
X114600000Y-79600000D01*
X114600000Y-79600000D02*
X115600000Y-79600000D01*
%TO.C,C7*%
X115700000Y-79600000D02*
X116700000Y-79600000D01*
X115700000Y-82100000D02*
X115700000Y-79600000D01*
X116700000Y-82100000D02*
X115700000Y-82100000D01*
X116700000Y-79600000D02*
X116700000Y-82100000D01*
%TO.C,D1*%
X121600000Y-75000000D02*
X121600000Y-76400000D01*
X118400000Y-75000000D02*
X121600000Y-75000000D01*
X118400000Y-76400000D02*
X118400000Y-75000000D01*
X121600000Y-76400000D02*
X118400000Y-76400000D01*
D11*
%TO.C,J1*%
X101600000Y-82270000D02*
X102930000Y-82270000D01*
X102930000Y-82270000D02*
X102930000Y-83600000D01*
X102930000Y-84870000D02*
X102930000Y-87470000D01*
X100270000Y-87470000D02*
X102930000Y-87470000D01*
X100270000Y-84870000D02*
X100270000Y-87470000D01*
X100270000Y-84870000D02*
X102930000Y-84870000D01*
%TO.C,J2*%
X120400000Y-78770000D02*
X121730000Y-78770000D01*
X121730000Y-78770000D02*
X121730000Y-80100000D01*
X121730000Y-81370000D02*
X121730000Y-83970000D01*
X119070000Y-83970000D02*
X121730000Y-83970000D01*
X119070000Y-81370000D02*
X119070000Y-83970000D01*
X119070000Y-81370000D02*
X121730000Y-81370000D01*
%TO.C,J3*%
X102930000Y-78330000D02*
X100270000Y-78330000D01*
X102930000Y-78330000D02*
X102930000Y-75730000D01*
X102930000Y-75730000D02*
X100270000Y-75730000D01*
X100270000Y-78330000D02*
X100270000Y-75730000D01*
X100270000Y-80930000D02*
X100270000Y-79600000D01*
X101600000Y-80930000D02*
X100270000Y-80930000D01*
%TO.C,JP1*%
X116470000Y-72730000D02*
X116470000Y-71400000D01*
X117800000Y-72730000D02*
X116470000Y-72730000D01*
X119070000Y-72730000D02*
X119070000Y-70070000D01*
X119070000Y-70070000D02*
X121670000Y-70070000D01*
X119070000Y-72730000D02*
X121670000Y-72730000D01*
X121670000Y-72730000D02*
X121670000Y-70070000D01*
%TO.C,L1*%
X109400000Y-78300000D02*
X109400000Y-74300000D01*
X113400000Y-78300000D02*
X109400000Y-78300000D01*
X113400000Y-74300000D02*
X113400000Y-78300000D01*
X109400000Y-74300000D02*
X113400000Y-74300000D01*
%TO.C,Q1*%
X103640000Y-78920000D02*
X103640000Y-79850000D01*
X103640000Y-82080000D02*
X103640000Y-81150000D01*
X103640000Y-82080000D02*
X105800000Y-82080000D01*
X103640000Y-78920000D02*
X105100000Y-78920000D01*
D10*
%TO.C,R2*%
X106200000Y-76600000D02*
X107200000Y-76600000D01*
X106200000Y-79100000D02*
X106200000Y-76600000D01*
X107200000Y-79100000D02*
X106200000Y-79100000D01*
X107200000Y-76600000D02*
X107200000Y-79100000D01*
%TO.C,R4*%
X107600000Y-83300000D02*
X110800000Y-83300000D01*
X110800000Y-83300000D02*
X110800000Y-84700000D01*
X110800000Y-84700000D02*
X107600000Y-84700000D01*
X107600000Y-84700000D02*
X107600000Y-83300000D01*
%TO.C,R6*%
X121600000Y-73500000D02*
X121600000Y-74900000D01*
X118400000Y-73500000D02*
X121600000Y-73500000D01*
X118400000Y-74900000D02*
X118400000Y-73500000D01*
X121600000Y-74900000D02*
X118400000Y-74900000D01*
D13*
%TO.C,U1*%
X110350000Y-82350000D02*
G75*
G03*
X110350000Y-82350000I-100000J0D01*
G01*
D10*
X109900000Y-81900000D02*
X109900000Y-79200000D01*
X109900000Y-79200000D02*
X113100000Y-79200000D01*
X113100000Y-79200000D02*
X113100000Y-82000000D01*
X113100000Y-82000000D02*
X109900000Y-82000000D01*
X109900000Y-82000000D02*
X109900000Y-81900000D01*
%TO.C,R3*%
X118700000Y-82100000D02*
X117700000Y-82100000D01*
X118700000Y-79600000D02*
X118700000Y-82100000D01*
X117700000Y-79600000D02*
X118700000Y-79600000D01*
X117700000Y-82100000D02*
X117700000Y-79600000D01*
D11*
%TO.C,IN*%
X104500000Y-76100000D02*
X105900000Y-76100000D01*
X105900000Y-76100000D02*
X105900000Y-77500000D01*
X105900000Y-77500000D02*
X104500000Y-77500000D01*
X104500000Y-77500000D02*
X104500000Y-76100000D01*
%TO.C,3V8*%
X115800000Y-79200000D02*
X115800000Y-77800000D01*
X117200000Y-79200000D02*
X115800000Y-79200000D01*
X117200000Y-77800000D02*
X117200000Y-79200000D01*
X115800000Y-77800000D02*
X117200000Y-77800000D01*
%TO.C,R5*%
D14*
X111883333Y-85616666D02*
X111650000Y-85283333D01*
X111483333Y-85616666D02*
X111483333Y-84916666D01*
X111750000Y-84916666D01*
X111816666Y-84950000D01*
X111850000Y-84983333D01*
X111883333Y-85050000D01*
X111883333Y-85150000D01*
X111850000Y-85216666D01*
X111816666Y-85250000D01*
X111750000Y-85283333D01*
X111483333Y-85283333D01*
X112516666Y-84916666D02*
X112183333Y-84916666D01*
X112150000Y-85250000D01*
X112183333Y-85216666D01*
X112250000Y-85183333D01*
X112416666Y-85183333D01*
X112483333Y-85216666D01*
X112516666Y-85250000D01*
X112550000Y-85316666D01*
X112550000Y-85483333D01*
X112516666Y-85550000D01*
X112483333Y-85583333D01*
X112416666Y-85616666D01*
X112250000Y-85616666D01*
X112183333Y-85583333D01*
X112150000Y-85550000D01*
%TO.C,R1*%
X118516666Y-78916666D02*
X118183333Y-79150000D01*
X118516666Y-79316666D02*
X117816666Y-79316666D01*
X117816666Y-79050000D01*
X117850000Y-78983333D01*
X117883333Y-78950000D01*
X117950000Y-78916666D01*
X118050000Y-78916666D01*
X118116666Y-78950000D01*
X118150000Y-78983333D01*
X118183333Y-79050000D01*
X118183333Y-79316666D01*
X118516666Y-78250000D02*
X118516666Y-78650000D01*
X118516666Y-78450000D02*
X117816666Y-78450000D01*
X117916666Y-78516666D01*
X117983333Y-78583333D01*
X118016666Y-78650000D01*
%TO.C,C1*%
X103683333Y-77450000D02*
X103650000Y-77483333D01*
X103550000Y-77516666D01*
X103483333Y-77516666D01*
X103383333Y-77483333D01*
X103316666Y-77416666D01*
X103283333Y-77350000D01*
X103250000Y-77216666D01*
X103250000Y-77116666D01*
X103283333Y-76983333D01*
X103316666Y-76916666D01*
X103383333Y-76850000D01*
X103483333Y-76816666D01*
X103550000Y-76816666D01*
X103650000Y-76850000D01*
X103683333Y-76883333D01*
X104350000Y-77516666D02*
X103950000Y-77516666D01*
X104150000Y-77516666D02*
X104150000Y-76816666D01*
X104083333Y-76916666D01*
X104016666Y-76983333D01*
X103950000Y-77016666D01*
%TO.C,C2*%
X106814285Y-83300000D02*
X106842857Y-83328571D01*
X106871428Y-83414285D01*
X106871428Y-83471428D01*
X106842857Y-83557142D01*
X106785714Y-83614285D01*
X106728571Y-83642857D01*
X106614285Y-83671428D01*
X106528571Y-83671428D01*
X106414285Y-83642857D01*
X106357142Y-83614285D01*
X106300000Y-83557142D01*
X106271428Y-83471428D01*
X106271428Y-83414285D01*
X106300000Y-83328571D01*
X106328571Y-83300000D01*
X106328571Y-83071428D02*
X106300000Y-83042857D01*
X106271428Y-82985714D01*
X106271428Y-82842857D01*
X106300000Y-82785714D01*
X106328571Y-82757142D01*
X106385714Y-82728571D01*
X106442857Y-82728571D01*
X106528571Y-82757142D01*
X106871428Y-83100000D01*
X106871428Y-82728571D01*
%TO.C,C3*%
X108050000Y-78716666D02*
X108083333Y-78750000D01*
X108116666Y-78850000D01*
X108116666Y-78916666D01*
X108083333Y-79016666D01*
X108016666Y-79083333D01*
X107950000Y-79116666D01*
X107816666Y-79150000D01*
X107716666Y-79150000D01*
X107583333Y-79116666D01*
X107516666Y-79083333D01*
X107450000Y-79016666D01*
X107416666Y-78916666D01*
X107416666Y-78850000D01*
X107450000Y-78750000D01*
X107483333Y-78716666D01*
X107416666Y-78483333D02*
X107416666Y-78050000D01*
X107683333Y-78283333D01*
X107683333Y-78183333D01*
X107716666Y-78116666D01*
X107750000Y-78083333D01*
X107816666Y-78050000D01*
X107983333Y-78050000D01*
X108050000Y-78083333D01*
X108083333Y-78116666D01*
X108116666Y-78183333D01*
X108116666Y-78383333D01*
X108083333Y-78450000D01*
X108050000Y-78483333D01*
%TO.C,C4*%
X109050000Y-78716666D02*
X109083333Y-78750000D01*
X109116666Y-78850000D01*
X109116666Y-78916666D01*
X109083333Y-79016666D01*
X109016666Y-79083333D01*
X108950000Y-79116666D01*
X108816666Y-79150000D01*
X108716666Y-79150000D01*
X108583333Y-79116666D01*
X108516666Y-79083333D01*
X108450000Y-79016666D01*
X108416666Y-78916666D01*
X108416666Y-78850000D01*
X108450000Y-78750000D01*
X108483333Y-78716666D01*
X108650000Y-78116666D02*
X109116666Y-78116666D01*
X108383333Y-78283333D02*
X108883333Y-78450000D01*
X108883333Y-78016666D01*
%TO.C,C5*%
X114250000Y-78716666D02*
X114283333Y-78750000D01*
X114316666Y-78850000D01*
X114316666Y-78916666D01*
X114283333Y-79016666D01*
X114216666Y-79083333D01*
X114150000Y-79116666D01*
X114016666Y-79150000D01*
X113916666Y-79150000D01*
X113783333Y-79116666D01*
X113716666Y-79083333D01*
X113650000Y-79016666D01*
X113616666Y-78916666D01*
X113616666Y-78850000D01*
X113650000Y-78750000D01*
X113683333Y-78716666D01*
X113616666Y-78083333D02*
X113616666Y-78416666D01*
X113950000Y-78450000D01*
X113916666Y-78416666D01*
X113883333Y-78350000D01*
X113883333Y-78183333D01*
X113916666Y-78116666D01*
X113950000Y-78083333D01*
X114016666Y-78050000D01*
X114183333Y-78050000D01*
X114250000Y-78083333D01*
X114283333Y-78116666D01*
X114316666Y-78183333D01*
X114316666Y-78350000D01*
X114283333Y-78416666D01*
X114250000Y-78450000D01*
%TO.C,C6*%
X115450000Y-78716666D02*
X115483333Y-78750000D01*
X115516666Y-78850000D01*
X115516666Y-78916666D01*
X115483333Y-79016666D01*
X115416666Y-79083333D01*
X115350000Y-79116666D01*
X115216666Y-79150000D01*
X115116666Y-79150000D01*
X114983333Y-79116666D01*
X114916666Y-79083333D01*
X114850000Y-79016666D01*
X114816666Y-78916666D01*
X114816666Y-78850000D01*
X114850000Y-78750000D01*
X114883333Y-78716666D01*
X114816666Y-78116666D02*
X114816666Y-78250000D01*
X114850000Y-78316666D01*
X114883333Y-78350000D01*
X114983333Y-78416666D01*
X115116666Y-78450000D01*
X115383333Y-78450000D01*
X115450000Y-78416666D01*
X115483333Y-78383333D01*
X115516666Y-78316666D01*
X115516666Y-78183333D01*
X115483333Y-78116666D01*
X115450000Y-78083333D01*
X115383333Y-78050000D01*
X115216666Y-78050000D01*
X115150000Y-78083333D01*
X115116666Y-78116666D01*
X115083333Y-78183333D01*
X115083333Y-78316666D01*
X115116666Y-78383333D01*
X115150000Y-78416666D01*
X115216666Y-78450000D01*
%TO.C,C7*%
X116250000Y-84116666D02*
X116283333Y-84150000D01*
X116316666Y-84250000D01*
X116316666Y-84316666D01*
X116283333Y-84416666D01*
X116216666Y-84483333D01*
X116150000Y-84516666D01*
X116016666Y-84550000D01*
X115916666Y-84550000D01*
X115783333Y-84516666D01*
X115716666Y-84483333D01*
X115650000Y-84416666D01*
X115616666Y-84316666D01*
X115616666Y-84250000D01*
X115650000Y-84150000D01*
X115683333Y-84116666D01*
X115616666Y-83883333D02*
X115616666Y-83416666D01*
X116316666Y-83716666D01*
%TO.C,D1*%
X116983333Y-76216666D02*
X116983333Y-75516666D01*
X117150000Y-75516666D01*
X117250000Y-75550000D01*
X117316666Y-75616666D01*
X117350000Y-75683333D01*
X117383333Y-75816666D01*
X117383333Y-75916666D01*
X117350000Y-76050000D01*
X117316666Y-76116666D01*
X117250000Y-76183333D01*
X117150000Y-76216666D01*
X116983333Y-76216666D01*
X118050000Y-76216666D02*
X117650000Y-76216666D01*
X117850000Y-76216666D02*
X117850000Y-75516666D01*
X117783333Y-75616666D01*
X117716666Y-75683333D01*
X117650000Y-75716666D01*
%TO.C,J1*%
D10*
X101266666Y-88052380D02*
X101266666Y-88766666D01*
X101219047Y-88909523D01*
X101123809Y-89004761D01*
X100980952Y-89052380D01*
X100885714Y-89052380D01*
X102266666Y-89052380D02*
X101695238Y-89052380D01*
X101980952Y-89052380D02*
X101980952Y-88052380D01*
X101885714Y-88195238D01*
X101790476Y-88290476D01*
X101695238Y-88338095D01*
%TO.C,J2*%
D12*
X117746000Y-82582714D02*
X117746000Y-83127000D01*
X117709714Y-83235857D01*
X117637142Y-83308428D01*
X117528285Y-83344714D01*
X117455714Y-83344714D01*
X118072571Y-82655285D02*
X118108857Y-82619000D01*
X118181428Y-82582714D01*
X118362857Y-82582714D01*
X118435428Y-82619000D01*
X118471714Y-82655285D01*
X118508000Y-82727857D01*
X118508000Y-82800428D01*
X118471714Y-82909285D01*
X118036285Y-83344714D01*
X118508000Y-83344714D01*
%TO.C,J3*%
D10*
X100466666Y-71252380D02*
X100466666Y-71966666D01*
X100419047Y-72109523D01*
X100323809Y-72204761D01*
X100180952Y-72252380D01*
X100085714Y-72252380D01*
X100847619Y-71252380D02*
X101466666Y-71252380D01*
X101133333Y-71633333D01*
X101276190Y-71633333D01*
X101371428Y-71680952D01*
X101419047Y-71728571D01*
X101466666Y-71823809D01*
X101466666Y-72061904D01*
X101419047Y-72157142D01*
X101371428Y-72204761D01*
X101276190Y-72252380D01*
X100990476Y-72252380D01*
X100895238Y-72204761D01*
X100847619Y-72157142D01*
%TO.C,JP1*%
D15*
X115196190Y-71816666D02*
X115553333Y-71816666D01*
X115624761Y-71840476D01*
X115672380Y-71888095D01*
X115696190Y-71959523D01*
X115696190Y-72007142D01*
X115696190Y-71578571D02*
X115196190Y-71578571D01*
X115196190Y-71388095D01*
X115220000Y-71340476D01*
X115243809Y-71316666D01*
X115291428Y-71292857D01*
X115362857Y-71292857D01*
X115410476Y-71316666D01*
X115434285Y-71340476D01*
X115458095Y-71388095D01*
X115458095Y-71578571D01*
X115696190Y-70816666D02*
X115696190Y-71102380D01*
X115696190Y-70959523D02*
X115196190Y-70959523D01*
X115267619Y-71007142D01*
X115315238Y-71054761D01*
X115339047Y-71102380D01*
%TO.C,L1*%
D10*
X111283333Y-73916666D02*
X110950000Y-73916666D01*
X110950000Y-73216666D01*
X111883333Y-73916666D02*
X111483333Y-73916666D01*
X111683333Y-73916666D02*
X111683333Y-73216666D01*
X111616666Y-73316666D01*
X111550000Y-73383333D01*
X111483333Y-73416666D01*
%TO.C,Q1*%
D14*
X104742857Y-82928571D02*
X104685714Y-82900000D01*
X104628571Y-82842857D01*
X104542857Y-82757142D01*
X104485714Y-82728571D01*
X104428571Y-82728571D01*
X104457142Y-82871428D02*
X104400000Y-82842857D01*
X104342857Y-82785714D01*
X104314285Y-82671428D01*
X104314285Y-82471428D01*
X104342857Y-82357142D01*
X104400000Y-82300000D01*
X104457142Y-82271428D01*
X104571428Y-82271428D01*
X104628571Y-82300000D01*
X104685714Y-82357142D01*
X104714285Y-82471428D01*
X104714285Y-82671428D01*
X104685714Y-82785714D01*
X104628571Y-82842857D01*
X104571428Y-82871428D01*
X104457142Y-82871428D01*
X105285714Y-82871428D02*
X104942857Y-82871428D01*
X105114285Y-82871428D02*
X105114285Y-82271428D01*
X105057142Y-82357142D01*
X105000000Y-82414285D01*
X104942857Y-82442857D01*
%TO.C,R2*%
X106916666Y-75716666D02*
X106583333Y-75950000D01*
X106916666Y-76116666D02*
X106216666Y-76116666D01*
X106216666Y-75850000D01*
X106250000Y-75783333D01*
X106283333Y-75750000D01*
X106350000Y-75716666D01*
X106450000Y-75716666D01*
X106516666Y-75750000D01*
X106550000Y-75783333D01*
X106583333Y-75850000D01*
X106583333Y-76116666D01*
X106283333Y-75450000D02*
X106250000Y-75416666D01*
X106216666Y-75350000D01*
X106216666Y-75183333D01*
X106250000Y-75116666D01*
X106283333Y-75083333D01*
X106350000Y-75050000D01*
X106416666Y-75050000D01*
X106516666Y-75083333D01*
X106916666Y-75483333D01*
X106916666Y-75050000D01*
%TO.C,R4*%
X108683333Y-85616666D02*
X108450000Y-85283333D01*
X108283333Y-85616666D02*
X108283333Y-84916666D01*
X108550000Y-84916666D01*
X108616666Y-84950000D01*
X108650000Y-84983333D01*
X108683333Y-85050000D01*
X108683333Y-85150000D01*
X108650000Y-85216666D01*
X108616666Y-85250000D01*
X108550000Y-85283333D01*
X108283333Y-85283333D01*
X109283333Y-85150000D02*
X109283333Y-85616666D01*
X109116666Y-84883333D02*
X108950000Y-85383333D01*
X109383333Y-85383333D01*
%TO.C,R6*%
X117383333Y-74516666D02*
X117150000Y-74183333D01*
X116983333Y-74516666D02*
X116983333Y-73816666D01*
X117250000Y-73816666D01*
X117316666Y-73850000D01*
X117350000Y-73883333D01*
X117383333Y-73950000D01*
X117383333Y-74050000D01*
X117350000Y-74116666D01*
X117316666Y-74150000D01*
X117250000Y-74183333D01*
X116983333Y-74183333D01*
X117983333Y-73816666D02*
X117850000Y-73816666D01*
X117783333Y-73850000D01*
X117750000Y-73883333D01*
X117683333Y-73983333D01*
X117650000Y-74116666D01*
X117650000Y-74383333D01*
X117683333Y-74450000D01*
X117716666Y-74483333D01*
X117783333Y-74516666D01*
X117916666Y-74516666D01*
X117983333Y-74483333D01*
X118016666Y-74450000D01*
X118050000Y-74383333D01*
X118050000Y-74216666D01*
X118016666Y-74150000D01*
X117983333Y-74116666D01*
X117916666Y-74083333D01*
X117783333Y-74083333D01*
X117716666Y-74116666D01*
X117683333Y-74150000D01*
X117650000Y-74216666D01*
%TO.C,R3*%
X117316666Y-84116666D02*
X116983333Y-84350000D01*
X117316666Y-84516666D02*
X116616666Y-84516666D01*
X116616666Y-84250000D01*
X116650000Y-84183333D01*
X116683333Y-84150000D01*
X116750000Y-84116666D01*
X116850000Y-84116666D01*
X116916666Y-84150000D01*
X116950000Y-84183333D01*
X116983333Y-84250000D01*
X116983333Y-84516666D01*
X116616666Y-83883333D02*
X116616666Y-83450000D01*
X116883333Y-83683333D01*
X116883333Y-83583333D01*
X116916666Y-83516666D01*
X116950000Y-83483333D01*
X117016666Y-83450000D01*
X117183333Y-83450000D01*
X117250000Y-83483333D01*
X117283333Y-83516666D01*
X117316666Y-83583333D01*
X117316666Y-83783333D01*
X117283333Y-83850000D01*
X117250000Y-83883333D01*
%TO.C,IN*%
X104833333Y-75916666D02*
X104833333Y-75216666D01*
X105166666Y-75916666D02*
X105166666Y-75216666D01*
X105566666Y-75916666D01*
X105566666Y-75216666D01*
%TO.C,3V8*%
X115757142Y-76671428D02*
X116128571Y-76671428D01*
X115928571Y-76900000D01*
X116014285Y-76900000D01*
X116071428Y-76928571D01*
X116100000Y-76957142D01*
X116128571Y-77014285D01*
X116128571Y-77157142D01*
X116100000Y-77214285D01*
X116071428Y-77242857D01*
X116014285Y-77271428D01*
X115842857Y-77271428D01*
X115785714Y-77242857D01*
X115757142Y-77214285D01*
X116300000Y-76671428D02*
X116500000Y-77271428D01*
X116700000Y-76671428D01*
X116985714Y-76928571D02*
X116928571Y-76900000D01*
X116900000Y-76871428D01*
X116871428Y-76814285D01*
X116871428Y-76785714D01*
X116900000Y-76728571D01*
X116928571Y-76700000D01*
X116985714Y-76671428D01*
X117100000Y-76671428D01*
X117157142Y-76700000D01*
X117185714Y-76728571D01*
X117214285Y-76785714D01*
X117214285Y-76814285D01*
X117185714Y-76871428D01*
X117157142Y-76900000D01*
X117100000Y-76928571D01*
X116985714Y-76928571D01*
X116928571Y-76957142D01*
X116900000Y-76985714D01*
X116871428Y-77042857D01*
X116871428Y-77157142D01*
X116900000Y-77214285D01*
X116928571Y-77242857D01*
X116985714Y-77271428D01*
X117100000Y-77271428D01*
X117157142Y-77242857D01*
X117185714Y-77214285D01*
X117214285Y-77157142D01*
X117214285Y-77042857D01*
X117185714Y-76985714D01*
X117157142Y-76957142D01*
X117100000Y-76928571D01*
%TD*%
M02*
