%TF.GenerationSoftware,KiCad,Pcbnew,(5.1.6)-1*%
%TF.CreationDate,2020-07-26T11:23:49+05:30*%
%TF.ProjectId,KiCAD Demo- Buck-Boost Regulator,4b694341-4420-4446-956d-6f2d20427563,rev?*%
%TF.SameCoordinates,Original*%
%TF.FileFunction,Paste,Bot*%
%TF.FilePolarity,Positive*%
%FSLAX46Y46*%
G04 Gerber Fmt 4.6, Leading zero omitted, Abs format (unit mm)*
G04 Created by KiCad (PCBNEW (5.1.6)-1) date 2020-07-26 11:23:49*
%MOMM*%
%LPD*%
G01*
G04 APERTURE LIST*
%ADD10C,0.150000*%
G04 APERTURE END LIST*
D10*
X138726190Y-66202380D02*
X138250000Y-66202380D01*
X138250000Y-65202380D01*
X139011904Y-65916666D02*
X139488095Y-65916666D01*
X138916666Y-66202380D02*
X139250000Y-65202380D01*
X139583333Y-66202380D01*
X140107142Y-65726190D02*
X140107142Y-66202380D01*
X139773809Y-65202380D02*
X140107142Y-65726190D01*
X140440476Y-65202380D01*
X140773809Y-65678571D02*
X141107142Y-65678571D01*
X141250000Y-66202380D02*
X140773809Y-66202380D01*
X140773809Y-65202380D01*
X141250000Y-65202380D01*
X142250000Y-66202380D02*
X141916666Y-65726190D01*
X141678571Y-66202380D02*
X141678571Y-65202380D01*
X142059523Y-65202380D01*
X142154761Y-65250000D01*
X142202380Y-65297619D01*
X142250000Y-65392857D01*
X142250000Y-65535714D01*
X142202380Y-65630952D01*
X142154761Y-65678571D01*
X142059523Y-65726190D01*
X141678571Y-65726190D01*
X142630952Y-66154761D02*
X142773809Y-66202380D01*
X143011904Y-66202380D01*
X143107142Y-66154761D01*
X143154761Y-66107142D01*
X143202380Y-66011904D01*
X143202380Y-65916666D01*
X143154761Y-65821428D01*
X143107142Y-65773809D01*
X143011904Y-65726190D01*
X142821428Y-65678571D01*
X142726190Y-65630952D01*
X142678571Y-65583333D01*
X142630952Y-65488095D01*
X142630952Y-65392857D01*
X142678571Y-65297619D01*
X142726190Y-65250000D01*
X142821428Y-65202380D01*
X143059523Y-65202380D01*
X143202380Y-65250000D01*
X144250000Y-65202380D02*
X144821428Y-65202380D01*
X144535714Y-66202380D02*
X144535714Y-65202380D01*
X145107142Y-65916666D02*
X145583333Y-65916666D01*
X145011904Y-66202380D02*
X145345238Y-65202380D01*
X145678571Y-66202380D01*
X146345238Y-65678571D02*
X146488095Y-65726190D01*
X146535714Y-65773809D01*
X146583333Y-65869047D01*
X146583333Y-66011904D01*
X146535714Y-66107142D01*
X146488095Y-66154761D01*
X146392857Y-66202380D01*
X146011904Y-66202380D01*
X146011904Y-65202380D01*
X146345238Y-65202380D01*
X146440476Y-65250000D01*
X146488095Y-65297619D01*
X146535714Y-65392857D01*
X146535714Y-65488095D01*
X146488095Y-65583333D01*
X146440476Y-65630952D01*
X146345238Y-65678571D01*
X146011904Y-65678571D01*
X147488095Y-66202380D02*
X147011904Y-66202380D01*
X147011904Y-65202380D01*
X147821428Y-65678571D02*
X148154761Y-65678571D01*
X148297619Y-66202380D02*
X147821428Y-66202380D01*
X147821428Y-65202380D01*
X148297619Y-65202380D01*
X137369047Y-78154761D02*
X137511904Y-78202380D01*
X137750000Y-78202380D01*
X137845238Y-78154761D01*
X137892857Y-78107142D01*
X137940476Y-78011904D01*
X137940476Y-77916666D01*
X137892857Y-77821428D01*
X137845238Y-77773809D01*
X137750000Y-77726190D01*
X137559523Y-77678571D01*
X137464285Y-77630952D01*
X137416666Y-77583333D01*
X137369047Y-77488095D01*
X137369047Y-77392857D01*
X137416666Y-77297619D01*
X137464285Y-77250000D01*
X137559523Y-77202380D01*
X137797619Y-77202380D01*
X137940476Y-77250000D01*
X138511904Y-78202380D02*
X138416666Y-78154761D01*
X138369047Y-78107142D01*
X138321428Y-78011904D01*
X138321428Y-77726190D01*
X138369047Y-77630952D01*
X138416666Y-77583333D01*
X138511904Y-77535714D01*
X138654761Y-77535714D01*
X138750000Y-77583333D01*
X138797619Y-77630952D01*
X138845238Y-77726190D01*
X138845238Y-78011904D01*
X138797619Y-78107142D01*
X138750000Y-78154761D01*
X138654761Y-78202380D01*
X138511904Y-78202380D01*
X139416666Y-78202380D02*
X139321428Y-78154761D01*
X139273809Y-78059523D01*
X139273809Y-77202380D01*
X140226190Y-78202380D02*
X140226190Y-77202380D01*
X140226190Y-78154761D02*
X140130952Y-78202380D01*
X139940476Y-78202380D01*
X139845238Y-78154761D01*
X139797619Y-78107142D01*
X139750000Y-78011904D01*
X139750000Y-77726190D01*
X139797619Y-77630952D01*
X139845238Y-77583333D01*
X139940476Y-77535714D01*
X140130952Y-77535714D01*
X140226190Y-77583333D01*
X141083333Y-78154761D02*
X140988095Y-78202380D01*
X140797619Y-78202380D01*
X140702380Y-78154761D01*
X140654761Y-78059523D01*
X140654761Y-77678571D01*
X140702380Y-77583333D01*
X140797619Y-77535714D01*
X140988095Y-77535714D01*
X141083333Y-77583333D01*
X141130952Y-77678571D01*
X141130952Y-77773809D01*
X140654761Y-77869047D01*
X141559523Y-78202380D02*
X141559523Y-77535714D01*
X141559523Y-77726190D02*
X141607142Y-77630952D01*
X141654761Y-77583333D01*
X141750000Y-77535714D01*
X141845238Y-77535714D01*
X142178571Y-78202380D02*
X142178571Y-77202380D01*
X142559523Y-77202380D01*
X142654761Y-77250000D01*
X142702380Y-77297619D01*
X142750000Y-77392857D01*
X142750000Y-77535714D01*
X142702380Y-77630952D01*
X142654761Y-77678571D01*
X142559523Y-77726190D01*
X142178571Y-77726190D01*
X143607142Y-78202380D02*
X143607142Y-77678571D01*
X143559523Y-77583333D01*
X143464285Y-77535714D01*
X143273809Y-77535714D01*
X143178571Y-77583333D01*
X143607142Y-78154761D02*
X143511904Y-78202380D01*
X143273809Y-78202380D01*
X143178571Y-78154761D01*
X143130952Y-78059523D01*
X143130952Y-77964285D01*
X143178571Y-77869047D01*
X143273809Y-77821428D01*
X143511904Y-77821428D01*
X143607142Y-77773809D01*
X144035714Y-78154761D02*
X144130952Y-78202380D01*
X144321428Y-78202380D01*
X144416666Y-78154761D01*
X144464285Y-78059523D01*
X144464285Y-78011904D01*
X144416666Y-77916666D01*
X144321428Y-77869047D01*
X144178571Y-77869047D01*
X144083333Y-77821428D01*
X144035714Y-77726190D01*
X144035714Y-77678571D01*
X144083333Y-77583333D01*
X144178571Y-77535714D01*
X144321428Y-77535714D01*
X144416666Y-77583333D01*
X144750000Y-77535714D02*
X145130952Y-77535714D01*
X144892857Y-77202380D02*
X144892857Y-78059523D01*
X144940476Y-78154761D01*
X145035714Y-78202380D01*
X145130952Y-78202380D01*
X145845238Y-78154761D02*
X145750000Y-78202380D01*
X145559523Y-78202380D01*
X145464285Y-78154761D01*
X145416666Y-78059523D01*
X145416666Y-77678571D01*
X145464285Y-77583333D01*
X145559523Y-77535714D01*
X145750000Y-77535714D01*
X145845238Y-77583333D01*
X145892857Y-77678571D01*
X145892857Y-77773809D01*
X145416666Y-77869047D01*
X147416666Y-77678571D02*
X147559523Y-77726190D01*
X147607142Y-77773809D01*
X147654761Y-77869047D01*
X147654761Y-78011904D01*
X147607142Y-78107142D01*
X147559523Y-78154761D01*
X147464285Y-78202380D01*
X147083333Y-78202380D01*
X147083333Y-77202380D01*
X147416666Y-77202380D01*
X147511904Y-77250000D01*
X147559523Y-77297619D01*
X147607142Y-77392857D01*
X147607142Y-77488095D01*
X147559523Y-77583333D01*
X147511904Y-77630952D01*
X147416666Y-77678571D01*
X147083333Y-77678571D01*
X148226190Y-78202380D02*
X148130952Y-78154761D01*
X148083333Y-78107142D01*
X148035714Y-78011904D01*
X148035714Y-77726190D01*
X148083333Y-77630952D01*
X148130952Y-77583333D01*
X148226190Y-77535714D01*
X148369047Y-77535714D01*
X148464285Y-77583333D01*
X148511904Y-77630952D01*
X148559523Y-77726190D01*
X148559523Y-78011904D01*
X148511904Y-78107142D01*
X148464285Y-78154761D01*
X148369047Y-78202380D01*
X148226190Y-78202380D01*
X148845238Y-77535714D02*
X149226190Y-77535714D01*
X148988095Y-77202380D02*
X148988095Y-78059523D01*
X149035714Y-78154761D01*
X149130952Y-78202380D01*
X149226190Y-78202380D01*
X150750000Y-93750000D02*
X135750000Y-93750000D01*
X150750000Y-91250000D02*
X150750000Y-93750000D01*
X135750000Y-99750000D02*
X135750000Y-97250000D01*
X135750000Y-93750000D02*
X135750000Y-91250000D01*
X135750000Y-91250000D02*
X150750000Y-91250000D01*
X150750000Y-97250000D02*
X150750000Y-99750000D01*
X135750000Y-94250000D02*
X150750000Y-94250000D01*
X150750000Y-96750000D02*
X135750000Y-96750000D01*
X135750000Y-96750000D02*
X135750000Y-94250000D01*
X135750000Y-97250000D02*
X150750000Y-97250000D01*
X150750000Y-99750000D02*
X135750000Y-99750000D01*
X150750000Y-94250000D02*
X150750000Y-96750000D01*
X135750000Y-82250000D02*
X150750000Y-82250000D01*
X135750000Y-84750000D02*
X135750000Y-82250000D01*
X135750000Y-87750000D02*
X135750000Y-85250000D01*
X150750000Y-87750000D02*
X135750000Y-87750000D01*
X150750000Y-88250000D02*
X150750000Y-90750000D01*
X135750000Y-85250000D02*
X150750000Y-85250000D01*
X135750000Y-88250000D02*
X150750000Y-88250000D01*
X150750000Y-90750000D02*
X135750000Y-90750000D01*
X135750000Y-90750000D02*
X135750000Y-88250000D01*
X150750000Y-84750000D02*
X135750000Y-84750000D01*
X150750000Y-82250000D02*
X150750000Y-84750000D01*
X150750000Y-85250000D02*
X150750000Y-87750000D01*
X135750000Y-81750000D02*
X135750000Y-79250000D01*
X135750000Y-79250000D02*
X150750000Y-79250000D01*
X150750000Y-81750000D02*
X135750000Y-81750000D01*
X150750000Y-79250000D02*
X150750000Y-81750000D01*
X135750000Y-78750000D02*
X135750000Y-76250000D01*
X135750000Y-76250000D02*
X150750000Y-76250000D01*
X150750000Y-78750000D02*
X135750000Y-78750000D01*
X150750000Y-76250000D02*
X150750000Y-78750000D01*
X135750000Y-75750000D02*
X135750000Y-73250000D01*
X135750000Y-73250000D02*
X150750000Y-73250000D01*
X150750000Y-75750000D02*
X135750000Y-75750000D01*
X150750000Y-73250000D02*
X150750000Y-75750000D01*
X135750000Y-72750000D02*
X135750000Y-70250000D01*
X135750000Y-70250000D02*
X150750000Y-70250000D01*
X150750000Y-72750000D02*
X135750000Y-72750000D01*
X150750000Y-70250000D02*
X150750000Y-72750000D01*
X135750000Y-69750000D02*
X135750000Y-67250000D01*
X150750000Y-69750000D02*
X135750000Y-69750000D01*
X150750000Y-67250000D02*
X150750000Y-69750000D01*
X135750000Y-67250000D02*
X150750000Y-67250000D01*
M02*
