%TF.GenerationSoftware,KiCad,Pcbnew,(5.1.6)-1*%
%TF.CreationDate,2020-07-26T11:23:49+05:30*%
%TF.ProjectId,KiCAD Demo- Buck-Boost Regulator,4b694341-4420-4446-956d-6f2d20427563,rev?*%
%TF.SameCoordinates,Original*%
%TF.FileFunction,Copper,L1,Top*%
%TF.FilePolarity,Positive*%
%FSLAX46Y46*%
G04 Gerber Fmt 4.6, Leading zero omitted, Abs format (unit mm)*
G04 Created by KiCad (PCBNEW (5.1.6)-1) date 2020-07-26 11:23:49*
%MOMM*%
%LPD*%
G01*
G04 APERTURE LIST*
%TA.AperFunction,NonConductor*%
%ADD10C,0.150000*%
%TD*%
%TA.AperFunction,NonConductor*%
%ADD11C,0.120000*%
%TD*%
%TA.AperFunction,NonConductor*%
%ADD12C,0.100000*%
%TD*%
%TA.AperFunction,ComponentPad*%
%ADD13O,1.700000X1.700000*%
%TD*%
%TA.AperFunction,ComponentPad*%
%ADD14R,1.700000X1.700000*%
%TD*%
%TA.AperFunction,SMDPad,CuDef*%
%ADD15R,0.980000X3.400000*%
%TD*%
%TA.AperFunction,SMDPad,CuDef*%
%ADD16R,0.900000X0.800000*%
%TD*%
%TA.AperFunction,SMDPad,CuDef*%
%ADD17R,0.250000X0.600000*%
%TD*%
%TA.AperFunction,SMDPad,CuDef*%
%ADD18R,0.250000X0.900000*%
%TD*%
%TA.AperFunction,SMDPad,CuDef*%
%ADD19R,0.250000X1.300000*%
%TD*%
%TA.AperFunction,SMDPad,CuDef*%
%ADD20R,1.000000X1.000000*%
%TD*%
%TA.AperFunction,ComponentPad*%
%ADD21C,0.800000*%
%TD*%
%TA.AperFunction,ComponentPad*%
%ADD22C,5.000000*%
%TD*%
%TA.AperFunction,ViaPad*%
%ADD23C,0.800000*%
%TD*%
%TA.AperFunction,Conductor*%
%ADD24C,0.250000*%
%TD*%
%TA.AperFunction,Conductor*%
%ADD25C,0.254000*%
%TD*%
G04 APERTURE END LIST*
D10*
X138726190Y-66202380D02*
X138250000Y-66202380D01*
X138250000Y-65202380D01*
X139011904Y-65916666D02*
X139488095Y-65916666D01*
X138916666Y-66202380D02*
X139250000Y-65202380D01*
X139583333Y-66202380D01*
X140107142Y-65726190D02*
X140107142Y-66202380D01*
X139773809Y-65202380D02*
X140107142Y-65726190D01*
X140440476Y-65202380D01*
X140773809Y-65678571D02*
X141107142Y-65678571D01*
X141250000Y-66202380D02*
X140773809Y-66202380D01*
X140773809Y-65202380D01*
X141250000Y-65202380D01*
X142250000Y-66202380D02*
X141916666Y-65726190D01*
X141678571Y-66202380D02*
X141678571Y-65202380D01*
X142059523Y-65202380D01*
X142154761Y-65250000D01*
X142202380Y-65297619D01*
X142250000Y-65392857D01*
X142250000Y-65535714D01*
X142202380Y-65630952D01*
X142154761Y-65678571D01*
X142059523Y-65726190D01*
X141678571Y-65726190D01*
X142630952Y-66154761D02*
X142773809Y-66202380D01*
X143011904Y-66202380D01*
X143107142Y-66154761D01*
X143154761Y-66107142D01*
X143202380Y-66011904D01*
X143202380Y-65916666D01*
X143154761Y-65821428D01*
X143107142Y-65773809D01*
X143011904Y-65726190D01*
X142821428Y-65678571D01*
X142726190Y-65630952D01*
X142678571Y-65583333D01*
X142630952Y-65488095D01*
X142630952Y-65392857D01*
X142678571Y-65297619D01*
X142726190Y-65250000D01*
X142821428Y-65202380D01*
X143059523Y-65202380D01*
X143202380Y-65250000D01*
X144250000Y-65202380D02*
X144821428Y-65202380D01*
X144535714Y-66202380D02*
X144535714Y-65202380D01*
X145107142Y-65916666D02*
X145583333Y-65916666D01*
X145011904Y-66202380D02*
X145345238Y-65202380D01*
X145678571Y-66202380D01*
X146345238Y-65678571D02*
X146488095Y-65726190D01*
X146535714Y-65773809D01*
X146583333Y-65869047D01*
X146583333Y-66011904D01*
X146535714Y-66107142D01*
X146488095Y-66154761D01*
X146392857Y-66202380D01*
X146011904Y-66202380D01*
X146011904Y-65202380D01*
X146345238Y-65202380D01*
X146440476Y-65250000D01*
X146488095Y-65297619D01*
X146535714Y-65392857D01*
X146535714Y-65488095D01*
X146488095Y-65583333D01*
X146440476Y-65630952D01*
X146345238Y-65678571D01*
X146011904Y-65678571D01*
X147488095Y-66202380D02*
X147011904Y-66202380D01*
X147011904Y-65202380D01*
X147821428Y-65678571D02*
X148154761Y-65678571D01*
X148297619Y-66202380D02*
X147821428Y-66202380D01*
X147821428Y-65202380D01*
X148297619Y-65202380D01*
X139702380Y-68202380D02*
X140273809Y-68202380D01*
X139988095Y-69202380D02*
X139988095Y-68202380D01*
X140750000Y-69202380D02*
X140654761Y-69154761D01*
X140607142Y-69107142D01*
X140559523Y-69011904D01*
X140559523Y-68726190D01*
X140607142Y-68630952D01*
X140654761Y-68583333D01*
X140750000Y-68535714D01*
X140892857Y-68535714D01*
X140988095Y-68583333D01*
X141035714Y-68630952D01*
X141083333Y-68726190D01*
X141083333Y-69011904D01*
X141035714Y-69107142D01*
X140988095Y-69154761D01*
X140892857Y-69202380D01*
X140750000Y-69202380D01*
X141511904Y-68535714D02*
X141511904Y-69535714D01*
X141511904Y-68583333D02*
X141607142Y-68535714D01*
X141797619Y-68535714D01*
X141892857Y-68583333D01*
X141940476Y-68630952D01*
X141988095Y-68726190D01*
X141988095Y-69011904D01*
X141940476Y-69107142D01*
X141892857Y-69154761D01*
X141797619Y-69202380D01*
X141607142Y-69202380D01*
X141511904Y-69154761D01*
X143654761Y-69202380D02*
X143178571Y-69202380D01*
X143178571Y-68202380D01*
X144416666Y-69202380D02*
X144416666Y-68678571D01*
X144369047Y-68583333D01*
X144273809Y-68535714D01*
X144083333Y-68535714D01*
X143988095Y-68583333D01*
X144416666Y-69154761D02*
X144321428Y-69202380D01*
X144083333Y-69202380D01*
X143988095Y-69154761D01*
X143940476Y-69059523D01*
X143940476Y-68964285D01*
X143988095Y-68869047D01*
X144083333Y-68821428D01*
X144321428Y-68821428D01*
X144416666Y-68773809D01*
X144797619Y-68535714D02*
X145035714Y-69202380D01*
X145273809Y-68535714D02*
X145035714Y-69202380D01*
X144940476Y-69440476D01*
X144892857Y-69488095D01*
X144797619Y-69535714D01*
X146035714Y-69154761D02*
X145940476Y-69202380D01*
X145750000Y-69202380D01*
X145654761Y-69154761D01*
X145607142Y-69059523D01*
X145607142Y-68678571D01*
X145654761Y-68583333D01*
X145750000Y-68535714D01*
X145940476Y-68535714D01*
X146035714Y-68583333D01*
X146083333Y-68678571D01*
X146083333Y-68773809D01*
X145607142Y-68869047D01*
X146511904Y-69202380D02*
X146511904Y-68535714D01*
X146511904Y-68726190D02*
X146559523Y-68630952D01*
X146607142Y-68583333D01*
X146702380Y-68535714D01*
X146797619Y-68535714D01*
D11*
X135750000Y-99750000D02*
X135750000Y-97250000D01*
X135750000Y-97250000D02*
X150750000Y-97250000D01*
X150750000Y-99750000D02*
X135750000Y-99750000D01*
X150750000Y-97250000D02*
X150750000Y-99750000D01*
X135750000Y-96750000D02*
X135750000Y-94250000D01*
X135750000Y-94250000D02*
X150750000Y-94250000D01*
X150750000Y-96750000D02*
X135750000Y-96750000D01*
X150750000Y-94250000D02*
X150750000Y-96750000D01*
X135750000Y-91250000D02*
X150750000Y-91250000D01*
X150750000Y-93750000D02*
X135750000Y-93750000D01*
X150750000Y-91250000D02*
X150750000Y-93750000D01*
X135750000Y-93750000D02*
X135750000Y-91250000D01*
X135750000Y-87750000D02*
X135750000Y-85250000D01*
X135750000Y-85250000D02*
X150750000Y-85250000D01*
X150750000Y-87750000D02*
X135750000Y-87750000D01*
X150750000Y-85250000D02*
X150750000Y-87750000D01*
X135750000Y-90750000D02*
X135750000Y-88250000D01*
X135750000Y-88250000D02*
X150750000Y-88250000D01*
X150750000Y-90750000D02*
X135750000Y-90750000D01*
X150750000Y-88250000D02*
X150750000Y-90750000D01*
X150750000Y-79250000D02*
X150750000Y-81750000D01*
X135750000Y-81750000D02*
X135750000Y-79250000D01*
X135750000Y-79250000D02*
X150750000Y-79250000D01*
X150750000Y-81750000D02*
X135750000Y-81750000D01*
X135750000Y-82250000D02*
X150750000Y-82250000D01*
X135750000Y-84750000D02*
X135750000Y-82250000D01*
X150750000Y-82250000D02*
X150750000Y-84750000D01*
X150750000Y-84750000D02*
X135750000Y-84750000D01*
X150750000Y-76250000D02*
X150750000Y-78750000D01*
X135750000Y-78750000D02*
X135750000Y-76250000D01*
X135750000Y-76250000D02*
X150750000Y-76250000D01*
X150750000Y-78750000D02*
X135750000Y-78750000D01*
X150750000Y-73250000D02*
X150750000Y-75750000D01*
X135750000Y-75750000D02*
X135750000Y-73250000D01*
X135750000Y-73250000D02*
X150750000Y-73250000D01*
X150750000Y-75750000D02*
X135750000Y-75750000D01*
X150750000Y-70250000D02*
X150750000Y-72750000D01*
X135750000Y-72750000D02*
X135750000Y-70250000D01*
X135750000Y-70250000D02*
X150750000Y-70250000D01*
X150750000Y-72750000D02*
X135750000Y-72750000D01*
D12*
G36*
X160750000Y-69750000D02*
G01*
X153250000Y-69750000D01*
X153250000Y-67250000D01*
X160750000Y-67250000D01*
X160750000Y-69750000D01*
G37*
X160750000Y-69750000D02*
X153250000Y-69750000D01*
X153250000Y-67250000D01*
X160750000Y-67250000D01*
X160750000Y-69750000D01*
D11*
X135750000Y-69750000D02*
X135750000Y-67250000D01*
X150750000Y-69750000D02*
X135750000Y-69750000D01*
X150750000Y-67250000D02*
X150750000Y-69750000D01*
X135750000Y-67250000D02*
X150750000Y-67250000D01*
%TO.P,R5,2*%
%TO.N,Net-(R3-Pad1)*%
%TA.AperFunction,SMDPad,CuDef*%
G36*
G01*
X112450000Y-84375000D02*
X112450000Y-84025000D01*
G75*
G02*
X112625000Y-83850000I175000J0D01*
G01*
X113175000Y-83850000D01*
G75*
G02*
X113350000Y-84025000I0J-175000D01*
G01*
X113350000Y-84375000D01*
G75*
G02*
X113175000Y-84550000I-175000J0D01*
G01*
X112625000Y-84550000D01*
G75*
G02*
X112450000Y-84375000I0J175000D01*
G01*
G37*
%TD.AperFunction*%
%TO.P,R5,1*%
%TO.N,GND*%
%TA.AperFunction,SMDPad,CuDef*%
G36*
G01*
X111150000Y-84375000D02*
X111150000Y-84025000D01*
G75*
G02*
X111325000Y-83850000I175000J0D01*
G01*
X111875000Y-83850000D01*
G75*
G02*
X112050000Y-84025000I0J-175000D01*
G01*
X112050000Y-84375000D01*
G75*
G02*
X111875000Y-84550000I-175000J0D01*
G01*
X111325000Y-84550000D01*
G75*
G02*
X111150000Y-84375000I0J175000D01*
G01*
G37*
%TD.AperFunction*%
%TD*%
%TO.P,R1,2*%
%TO.N,/Power /PG*%
%TA.AperFunction,SMDPad,CuDef*%
G36*
G01*
X117025000Y-81050000D02*
X117375000Y-81050000D01*
G75*
G02*
X117550000Y-81225000I0J-175000D01*
G01*
X117550000Y-81775000D01*
G75*
G02*
X117375000Y-81950000I-175000J0D01*
G01*
X117025000Y-81950000D01*
G75*
G02*
X116850000Y-81775000I0J175000D01*
G01*
X116850000Y-81225000D01*
G75*
G02*
X117025000Y-81050000I175000J0D01*
G01*
G37*
%TD.AperFunction*%
%TO.P,R1,1*%
%TO.N,+VOUT*%
%TA.AperFunction,SMDPad,CuDef*%
G36*
G01*
X117025000Y-79750000D02*
X117375000Y-79750000D01*
G75*
G02*
X117550000Y-79925000I0J-175000D01*
G01*
X117550000Y-80475000D01*
G75*
G02*
X117375000Y-80650000I-175000J0D01*
G01*
X117025000Y-80650000D01*
G75*
G02*
X116850000Y-80475000I0J175000D01*
G01*
X116850000Y-79925000D01*
G75*
G02*
X117025000Y-79750000I175000J0D01*
G01*
G37*
%TD.AperFunction*%
%TD*%
%TO.P,C1,1*%
%TO.N,+VIN*%
%TA.AperFunction,SMDPad,CuDef*%
G36*
G01*
X105850000Y-78025000D02*
X105850000Y-78375000D01*
G75*
G02*
X105675000Y-78550000I-175000J0D01*
G01*
X105125000Y-78550000D01*
G75*
G02*
X104950000Y-78375000I0J175000D01*
G01*
X104950000Y-78025000D01*
G75*
G02*
X105125000Y-77850000I175000J0D01*
G01*
X105675000Y-77850000D01*
G75*
G02*
X105850000Y-78025000I0J-175000D01*
G01*
G37*
%TD.AperFunction*%
%TO.P,C1,2*%
%TO.N,GND*%
%TA.AperFunction,SMDPad,CuDef*%
G36*
G01*
X104550000Y-78025000D02*
X104550000Y-78375000D01*
G75*
G02*
X104375000Y-78550000I-175000J0D01*
G01*
X103825000Y-78550000D01*
G75*
G02*
X103650000Y-78375000I0J175000D01*
G01*
X103650000Y-78025000D01*
G75*
G02*
X103825000Y-77850000I175000J0D01*
G01*
X104375000Y-77850000D01*
G75*
G02*
X104550000Y-78025000I0J-175000D01*
G01*
G37*
%TD.AperFunction*%
%TD*%
%TO.P,C2,1*%
%TO.N,+VIN*%
%TA.AperFunction,SMDPad,CuDef*%
G36*
G01*
X106525000Y-79550000D02*
X106875000Y-79550000D01*
G75*
G02*
X107050000Y-79725000I0J-175000D01*
G01*
X107050000Y-80275000D01*
G75*
G02*
X106875000Y-80450000I-175000J0D01*
G01*
X106525000Y-80450000D01*
G75*
G02*
X106350000Y-80275000I0J175000D01*
G01*
X106350000Y-79725000D01*
G75*
G02*
X106525000Y-79550000I175000J0D01*
G01*
G37*
%TD.AperFunction*%
%TO.P,C2,2*%
%TO.N,GND*%
%TA.AperFunction,SMDPad,CuDef*%
G36*
G01*
X106525000Y-80850000D02*
X106875000Y-80850000D01*
G75*
G02*
X107050000Y-81025000I0J-175000D01*
G01*
X107050000Y-81575000D01*
G75*
G02*
X106875000Y-81750000I-175000J0D01*
G01*
X106525000Y-81750000D01*
G75*
G02*
X106350000Y-81575000I0J175000D01*
G01*
X106350000Y-81025000D01*
G75*
G02*
X106525000Y-80850000I175000J0D01*
G01*
G37*
%TD.AperFunction*%
%TD*%
%TO.P,C3,1*%
%TO.N,+VIN*%
%TA.AperFunction,SMDPad,CuDef*%
G36*
G01*
X107725000Y-79550000D02*
X108075000Y-79550000D01*
G75*
G02*
X108250000Y-79725000I0J-175000D01*
G01*
X108250000Y-80275000D01*
G75*
G02*
X108075000Y-80450000I-175000J0D01*
G01*
X107725000Y-80450000D01*
G75*
G02*
X107550000Y-80275000I0J175000D01*
G01*
X107550000Y-79725000D01*
G75*
G02*
X107725000Y-79550000I175000J0D01*
G01*
G37*
%TD.AperFunction*%
%TO.P,C3,2*%
%TO.N,GND*%
%TA.AperFunction,SMDPad,CuDef*%
G36*
G01*
X107725000Y-80850000D02*
X108075000Y-80850000D01*
G75*
G02*
X108250000Y-81025000I0J-175000D01*
G01*
X108250000Y-81575000D01*
G75*
G02*
X108075000Y-81750000I-175000J0D01*
G01*
X107725000Y-81750000D01*
G75*
G02*
X107550000Y-81575000I0J175000D01*
G01*
X107550000Y-81025000D01*
G75*
G02*
X107725000Y-80850000I175000J0D01*
G01*
G37*
%TD.AperFunction*%
%TD*%
%TO.P,C4,2*%
%TO.N,GND*%
%TA.AperFunction,SMDPad,CuDef*%
G36*
G01*
X108925000Y-80850000D02*
X109275000Y-80850000D01*
G75*
G02*
X109450000Y-81025000I0J-175000D01*
G01*
X109450000Y-81575000D01*
G75*
G02*
X109275000Y-81750000I-175000J0D01*
G01*
X108925000Y-81750000D01*
G75*
G02*
X108750000Y-81575000I0J175000D01*
G01*
X108750000Y-81025000D01*
G75*
G02*
X108925000Y-80850000I175000J0D01*
G01*
G37*
%TD.AperFunction*%
%TO.P,C4,1*%
%TO.N,+VIN*%
%TA.AperFunction,SMDPad,CuDef*%
G36*
G01*
X108925000Y-79550000D02*
X109275000Y-79550000D01*
G75*
G02*
X109450000Y-79725000I0J-175000D01*
G01*
X109450000Y-80275000D01*
G75*
G02*
X109275000Y-80450000I-175000J0D01*
G01*
X108925000Y-80450000D01*
G75*
G02*
X108750000Y-80275000I0J175000D01*
G01*
X108750000Y-79725000D01*
G75*
G02*
X108925000Y-79550000I175000J0D01*
G01*
G37*
%TD.AperFunction*%
%TD*%
%TO.P,C5,2*%
%TO.N,GND*%
%TA.AperFunction,SMDPad,CuDef*%
G36*
G01*
X113825000Y-81050000D02*
X114175000Y-81050000D01*
G75*
G02*
X114350000Y-81225000I0J-175000D01*
G01*
X114350000Y-81775000D01*
G75*
G02*
X114175000Y-81950000I-175000J0D01*
G01*
X113825000Y-81950000D01*
G75*
G02*
X113650000Y-81775000I0J175000D01*
G01*
X113650000Y-81225000D01*
G75*
G02*
X113825000Y-81050000I175000J0D01*
G01*
G37*
%TD.AperFunction*%
%TO.P,C5,1*%
%TO.N,+VOUT*%
%TA.AperFunction,SMDPad,CuDef*%
G36*
G01*
X113825000Y-79750000D02*
X114175000Y-79750000D01*
G75*
G02*
X114350000Y-79925000I0J-175000D01*
G01*
X114350000Y-80475000D01*
G75*
G02*
X114175000Y-80650000I-175000J0D01*
G01*
X113825000Y-80650000D01*
G75*
G02*
X113650000Y-80475000I0J175000D01*
G01*
X113650000Y-79925000D01*
G75*
G02*
X113825000Y-79750000I175000J0D01*
G01*
G37*
%TD.AperFunction*%
%TD*%
%TO.P,C6,2*%
%TO.N,GND*%
%TA.AperFunction,SMDPad,CuDef*%
G36*
G01*
X114925000Y-81050000D02*
X115275000Y-81050000D01*
G75*
G02*
X115450000Y-81225000I0J-175000D01*
G01*
X115450000Y-81775000D01*
G75*
G02*
X115275000Y-81950000I-175000J0D01*
G01*
X114925000Y-81950000D01*
G75*
G02*
X114750000Y-81775000I0J175000D01*
G01*
X114750000Y-81225000D01*
G75*
G02*
X114925000Y-81050000I175000J0D01*
G01*
G37*
%TD.AperFunction*%
%TO.P,C6,1*%
%TO.N,+VOUT*%
%TA.AperFunction,SMDPad,CuDef*%
G36*
G01*
X114925000Y-79750000D02*
X115275000Y-79750000D01*
G75*
G02*
X115450000Y-79925000I0J-175000D01*
G01*
X115450000Y-80475000D01*
G75*
G02*
X115275000Y-80650000I-175000J0D01*
G01*
X114925000Y-80650000D01*
G75*
G02*
X114750000Y-80475000I0J175000D01*
G01*
X114750000Y-79925000D01*
G75*
G02*
X114925000Y-79750000I175000J0D01*
G01*
G37*
%TD.AperFunction*%
%TD*%
%TO.P,C7,1*%
%TO.N,+VOUT*%
%TA.AperFunction,SMDPad,CuDef*%
G36*
G01*
X116025000Y-79750000D02*
X116375000Y-79750000D01*
G75*
G02*
X116550000Y-79925000I0J-175000D01*
G01*
X116550000Y-80475000D01*
G75*
G02*
X116375000Y-80650000I-175000J0D01*
G01*
X116025000Y-80650000D01*
G75*
G02*
X115850000Y-80475000I0J175000D01*
G01*
X115850000Y-79925000D01*
G75*
G02*
X116025000Y-79750000I175000J0D01*
G01*
G37*
%TD.AperFunction*%
%TO.P,C7,2*%
%TO.N,GND*%
%TA.AperFunction,SMDPad,CuDef*%
G36*
G01*
X116025000Y-81050000D02*
X116375000Y-81050000D01*
G75*
G02*
X116550000Y-81225000I0J-175000D01*
G01*
X116550000Y-81775000D01*
G75*
G02*
X116375000Y-81950000I-175000J0D01*
G01*
X116025000Y-81950000D01*
G75*
G02*
X115850000Y-81775000I0J175000D01*
G01*
X115850000Y-81225000D01*
G75*
G02*
X116025000Y-81050000I175000J0D01*
G01*
G37*
%TD.AperFunction*%
%TD*%
%TO.P,D1,1*%
%TO.N,GND*%
%TA.AperFunction,SMDPad,CuDef*%
G36*
G01*
X121450000Y-75450000D02*
X121450000Y-75950000D01*
G75*
G02*
X121200000Y-76200000I-250000J0D01*
G01*
X120600000Y-76200000D01*
G75*
G02*
X120350000Y-75950000I0J250000D01*
G01*
X120350000Y-75450000D01*
G75*
G02*
X120600000Y-75200000I250000J0D01*
G01*
X121200000Y-75200000D01*
G75*
G02*
X121450000Y-75450000I0J-250000D01*
G01*
G37*
%TD.AperFunction*%
%TO.P,D1,2*%
%TO.N,Net-(D1-Pad2)*%
%TA.AperFunction,SMDPad,CuDef*%
G36*
G01*
X119750000Y-75450000D02*
X119750000Y-75950000D01*
G75*
G02*
X119500000Y-76200000I-250000J0D01*
G01*
X118900000Y-76200000D01*
G75*
G02*
X118650000Y-75950000I0J250000D01*
G01*
X118650000Y-75450000D01*
G75*
G02*
X118900000Y-75200000I250000J0D01*
G01*
X119500000Y-75200000D01*
G75*
G02*
X119750000Y-75450000I0J-250000D01*
G01*
G37*
%TD.AperFunction*%
%TD*%
D13*
%TO.P,J1,2*%
%TO.N,GND*%
X101600000Y-86140000D03*
D14*
%TO.P,J1,1*%
%TO.N,/Power /+VBAT*%
X101600000Y-83600000D03*
%TD*%
D13*
%TO.P,J2,2*%
%TO.N,GND*%
X120400000Y-82640000D03*
D14*
%TO.P,J2,1*%
%TO.N,+VOUT*%
X120400000Y-80100000D03*
%TD*%
%TO.P,J3,1*%
%TO.N,/Power /+VBAT*%
X101600000Y-79600000D03*
D13*
%TO.P,J3,2*%
%TO.N,GND*%
X101600000Y-77060000D03*
%TD*%
%TO.P,JP1,2*%
%TO.N,Net-(JP1-Pad2)*%
X120340000Y-71400000D03*
D14*
%TO.P,JP1,1*%
%TO.N,/Power /PG*%
X117800000Y-71400000D03*
%TD*%
D15*
%TO.P,L1,1*%
%TO.N,Net-(L1-Pad1)*%
X110200000Y-76300000D03*
%TO.P,L1,2*%
%TO.N,Net-(L1-Pad2)*%
X112570000Y-76300000D03*
%TD*%
D16*
%TO.P,Q1,1*%
%TO.N,GND*%
X105400000Y-81450000D03*
%TO.P,Q1,2*%
%TO.N,+VIN*%
X105400000Y-79550000D03*
%TO.P,Q1,3*%
%TO.N,/Power /+VBAT*%
X103400000Y-80500000D03*
%TD*%
%TO.P,R2,1*%
%TO.N,Net-(R2-Pad1)*%
%TA.AperFunction,SMDPad,CuDef*%
G36*
G01*
X106525000Y-76750000D02*
X106875000Y-76750000D01*
G75*
G02*
X107050000Y-76925000I0J-175000D01*
G01*
X107050000Y-77475000D01*
G75*
G02*
X106875000Y-77650000I-175000J0D01*
G01*
X106525000Y-77650000D01*
G75*
G02*
X106350000Y-77475000I0J175000D01*
G01*
X106350000Y-76925000D01*
G75*
G02*
X106525000Y-76750000I175000J0D01*
G01*
G37*
%TD.AperFunction*%
%TO.P,R2,2*%
%TO.N,+VIN*%
%TA.AperFunction,SMDPad,CuDef*%
G36*
G01*
X106525000Y-78050000D02*
X106875000Y-78050000D01*
G75*
G02*
X107050000Y-78225000I0J-175000D01*
G01*
X107050000Y-78775000D01*
G75*
G02*
X106875000Y-78950000I-175000J0D01*
G01*
X106525000Y-78950000D01*
G75*
G02*
X106350000Y-78775000I0J175000D01*
G01*
X106350000Y-78225000D01*
G75*
G02*
X106525000Y-78050000I175000J0D01*
G01*
G37*
%TD.AperFunction*%
%TD*%
%TO.P,R4,1*%
%TO.N,GND*%
%TA.AperFunction,SMDPad,CuDef*%
G36*
G01*
X107750000Y-84250000D02*
X107750000Y-83750000D01*
G75*
G02*
X108000000Y-83500000I250000J0D01*
G01*
X108600000Y-83500000D01*
G75*
G02*
X108850000Y-83750000I0J-250000D01*
G01*
X108850000Y-84250000D01*
G75*
G02*
X108600000Y-84500000I-250000J0D01*
G01*
X108000000Y-84500000D01*
G75*
G02*
X107750000Y-84250000I0J250000D01*
G01*
G37*
%TD.AperFunction*%
%TO.P,R4,2*%
%TO.N,Net-(R2-Pad1)*%
%TA.AperFunction,SMDPad,CuDef*%
G36*
G01*
X109450000Y-84250000D02*
X109450000Y-83750000D01*
G75*
G02*
X109700000Y-83500000I250000J0D01*
G01*
X110300000Y-83500000D01*
G75*
G02*
X110550000Y-83750000I0J-250000D01*
G01*
X110550000Y-84250000D01*
G75*
G02*
X110300000Y-84500000I-250000J0D01*
G01*
X109700000Y-84500000D01*
G75*
G02*
X109450000Y-84250000I0J250000D01*
G01*
G37*
%TD.AperFunction*%
%TD*%
%TO.P,R6,2*%
%TO.N,Net-(D1-Pad2)*%
%TA.AperFunction,SMDPad,CuDef*%
G36*
G01*
X119750000Y-73950000D02*
X119750000Y-74450000D01*
G75*
G02*
X119500000Y-74700000I-250000J0D01*
G01*
X118900000Y-74700000D01*
G75*
G02*
X118650000Y-74450000I0J250000D01*
G01*
X118650000Y-73950000D01*
G75*
G02*
X118900000Y-73700000I250000J0D01*
G01*
X119500000Y-73700000D01*
G75*
G02*
X119750000Y-73950000I0J-250000D01*
G01*
G37*
%TD.AperFunction*%
%TO.P,R6,1*%
%TO.N,Net-(JP1-Pad2)*%
%TA.AperFunction,SMDPad,CuDef*%
G36*
G01*
X121450000Y-73950000D02*
X121450000Y-74450000D01*
G75*
G02*
X121200000Y-74700000I-250000J0D01*
G01*
X120600000Y-74700000D01*
G75*
G02*
X120350000Y-74450000I0J250000D01*
G01*
X120350000Y-73950000D01*
G75*
G02*
X120600000Y-73700000I250000J0D01*
G01*
X121200000Y-73700000D01*
G75*
G02*
X121450000Y-73950000I0J-250000D01*
G01*
G37*
%TD.AperFunction*%
%TD*%
D17*
%TO.P,U1,1*%
%TO.N,Net-(R2-Pad1)*%
X110500000Y-81500000D03*
%TO.P,U1,2*%
%TO.N,GND*%
X111000000Y-81500000D03*
%TO.P,U1,3*%
X111500000Y-81500000D03*
%TO.P,U1,4*%
%TO.N,Net-(R3-Pad1)*%
X112000000Y-81500000D03*
D18*
%TO.P,U1,6*%
%TO.N,+VOUT*%
X112500000Y-79850000D03*
%TO.P,U1,7*%
%TO.N,Net-(L1-Pad2)*%
X112000000Y-79850000D03*
D19*
%TO.P,U1,8*%
%TO.N,GND*%
X111500000Y-80050000D03*
D17*
%TO.P,U1,5*%
%TO.N,/Power /PG*%
X112500000Y-81500000D03*
D18*
%TO.P,U1,9*%
%TO.N,Net-(L1-Pad1)*%
X111000000Y-79850000D03*
%TO.P,U1,10*%
%TO.N,+VIN*%
X110500000Y-79850000D03*
%TD*%
%TO.P,R3,1*%
%TO.N,Net-(R3-Pad1)*%
%TA.AperFunction,SMDPad,CuDef*%
G36*
G01*
X118375000Y-81950000D02*
X118025000Y-81950000D01*
G75*
G02*
X117850000Y-81775000I0J175000D01*
G01*
X117850000Y-81225000D01*
G75*
G02*
X118025000Y-81050000I175000J0D01*
G01*
X118375000Y-81050000D01*
G75*
G02*
X118550000Y-81225000I0J-175000D01*
G01*
X118550000Y-81775000D01*
G75*
G02*
X118375000Y-81950000I-175000J0D01*
G01*
G37*
%TD.AperFunction*%
%TO.P,R3,2*%
%TO.N,+VOUT*%
%TA.AperFunction,SMDPad,CuDef*%
G36*
G01*
X118375000Y-80650000D02*
X118025000Y-80650000D01*
G75*
G02*
X117850000Y-80475000I0J175000D01*
G01*
X117850000Y-79925000D01*
G75*
G02*
X118025000Y-79750000I175000J0D01*
G01*
X118375000Y-79750000D01*
G75*
G02*
X118550000Y-79925000I0J-175000D01*
G01*
X118550000Y-80475000D01*
G75*
G02*
X118375000Y-80650000I-175000J0D01*
G01*
G37*
%TD.AperFunction*%
%TD*%
D20*
%TO.P,IN,1*%
%TO.N,+VIN*%
X105200000Y-76800000D03*
%TD*%
%TO.P,3V8,1*%
%TO.N,+VOUT*%
X116500000Y-78500000D03*
%TD*%
D21*
%TO.P,H1,1*%
%TO.N,N/C*%
X105525825Y-71274175D03*
X104200000Y-70725000D03*
X102874175Y-71274175D03*
X102325000Y-72600000D03*
X102874175Y-73925825D03*
X104200000Y-74475000D03*
X105525825Y-73925825D03*
X106075000Y-72600000D03*
D22*
X104200000Y-72600000D03*
%TD*%
%TO.P,H2,1*%
%TO.N,N/C*%
X117200000Y-87200000D03*
D21*
X119075000Y-87200000D03*
X118525825Y-88525825D03*
X117200000Y-89075000D03*
X115874175Y-88525825D03*
X115325000Y-87200000D03*
X115874175Y-85874175D03*
X117200000Y-85325000D03*
X118525825Y-85874175D03*
%TD*%
D23*
%TO.N,GND*%
X111479998Y-77600000D03*
X109000000Y-82500000D03*
X108000000Y-82500000D03*
X107000000Y-82500000D03*
X106000000Y-82500000D03*
X105000000Y-83500000D03*
X105000000Y-84500000D03*
X104000000Y-85500000D03*
X104000000Y-86500000D03*
X104000000Y-87500000D03*
X101000000Y-75000000D03*
X101000000Y-74000000D03*
X101000000Y-73000000D03*
X102000000Y-75000000D03*
X103500000Y-76000000D03*
X121000000Y-85000000D03*
X120000000Y-84500000D03*
X119000000Y-84000000D03*
X121000000Y-77000000D03*
X120000000Y-77000000D03*
X119000000Y-77000000D03*
X114000000Y-82600000D03*
X115100000Y-82600000D03*
X116100000Y-82600000D03*
X111000000Y-85400000D03*
X111000000Y-86400000D03*
X108000000Y-86000000D03*
X106000000Y-83800000D03*
X106000000Y-85000000D03*
X105000000Y-86000000D03*
X105000000Y-87000000D03*
X106000000Y-86600000D03*
X106800000Y-85800000D03*
X107200000Y-86800000D03*
X106200000Y-87600000D03*
X119000000Y-78000000D03*
X120000000Y-78000000D03*
X111600000Y-83200000D03*
X106800000Y-84400000D03*
X110800000Y-82600000D03*
X107750000Y-76250000D03*
X109750000Y-86750000D03*
X108500000Y-75250000D03*
X116250000Y-73250000D03*
X115000000Y-73250000D03*
X115000000Y-74750000D03*
X116250000Y-74750000D03*
%TO.N,/Power /PG*%
X117400000Y-83249985D03*
%TO.N,Net-(R2-Pad1)*%
X107800000Y-77400000D03*
X109800000Y-85600000D03*
%TD*%
D24*
%TO.N,+VIN*%
X109250000Y-79850000D02*
X109100000Y-80000000D01*
X110500000Y-79850000D02*
X109250000Y-79850000D01*
%TO.N,GND*%
X111500000Y-80050000D02*
X111500000Y-77620002D01*
X111500000Y-77620002D02*
X111479998Y-77600000D01*
X120900000Y-76900000D02*
X121000000Y-77000000D01*
X120900000Y-75700000D02*
X120900000Y-76900000D01*
X105400000Y-81900000D02*
X106000000Y-82500000D01*
X105400000Y-81450000D02*
X105400000Y-81900000D01*
X106700000Y-82200000D02*
X107000000Y-82500000D01*
X106700000Y-81300000D02*
X106700000Y-82200000D01*
X107900000Y-82400000D02*
X108000000Y-82500000D01*
X107900000Y-81300000D02*
X107900000Y-82400000D01*
X109100000Y-82400000D02*
X109000000Y-82500000D01*
X109100000Y-81300000D02*
X109100000Y-82400000D01*
X104100000Y-76600000D02*
X103500000Y-76000000D01*
X104100000Y-78200000D02*
X104100000Y-76600000D01*
X115100000Y-82600000D02*
X115100000Y-81500000D01*
X116100000Y-81600000D02*
X116200000Y-81500000D01*
X116100000Y-82600000D02*
X116100000Y-81600000D01*
X114000000Y-82600000D02*
X114000000Y-81500000D01*
X120000000Y-83040000D02*
X120400000Y-82640000D01*
X120000000Y-84500000D02*
X120000000Y-83040000D01*
X111600000Y-84800000D02*
X111000000Y-85400000D01*
X111600000Y-84200000D02*
X111600000Y-84800000D01*
X111500000Y-81500000D02*
X111000000Y-81500000D01*
X108300000Y-85700000D02*
X108000000Y-86000000D01*
X108300000Y-84000000D02*
X108300000Y-85700000D01*
X111000000Y-82400000D02*
X110800000Y-82600000D01*
X111000000Y-81500000D02*
X111000000Y-82400000D01*
%TO.N,+VOUT*%
X113650000Y-79850000D02*
X114000000Y-80200000D01*
X112500000Y-79850000D02*
X113650000Y-79850000D01*
%TO.N,Net-(D1-Pad2)*%
X119200000Y-74200000D02*
X119200000Y-75700000D01*
%TO.N,Net-(JP1-Pad2)*%
X120900000Y-71960000D02*
X120340000Y-71400000D01*
X120900000Y-74200000D02*
X120900000Y-71960000D01*
%TO.N,/Power /PG*%
X117200000Y-82573002D02*
X116373002Y-83400000D01*
X117200000Y-81500000D02*
X117200000Y-82573002D01*
X112500000Y-82173002D02*
X112500000Y-81500000D01*
X113726998Y-83400000D02*
X112500000Y-82173002D01*
X116373002Y-83400000D02*
X113726998Y-83400000D01*
X117200000Y-83049985D02*
X117400000Y-83249985D01*
X117200000Y-81500000D02*
X117200000Y-83049985D01*
D25*
%TO.N,Net-(L1-Pad1)*%
X110200000Y-77395966D02*
X110200000Y-76300000D01*
X111000000Y-78195966D02*
X110200000Y-77395966D01*
X111000000Y-79850000D02*
X111000000Y-78195966D01*
%TO.N,Net-(L1-Pad2)*%
X112000000Y-78155962D02*
X112570000Y-77585962D01*
X112000000Y-79850000D02*
X112000000Y-78155962D01*
X112570000Y-77585962D02*
X112570000Y-76300000D01*
D24*
%TO.N,Net-(R2-Pad1)*%
X106700000Y-77200000D02*
X107600000Y-77200000D01*
X107600000Y-77200000D02*
X107800000Y-77400000D01*
X110000000Y-85400000D02*
X109800000Y-85600000D01*
X110500000Y-81500000D02*
X110300000Y-81500000D01*
X110300000Y-81500000D02*
X110000000Y-81800000D01*
X110000000Y-84000000D02*
X110000000Y-84400000D01*
X110000000Y-81800000D02*
X110000000Y-84400000D01*
X110000000Y-84400000D02*
X110000000Y-85400000D01*
%TO.N,Net-(R3-Pad1)*%
X117800000Y-84200000D02*
X112900000Y-84200000D01*
X118200000Y-81500000D02*
X118200000Y-83800000D01*
X118200000Y-83800000D02*
X117800000Y-84200000D01*
X112600000Y-83900000D02*
X112900000Y-84200000D01*
X112600000Y-82909412D02*
X112600000Y-83900000D01*
X112000000Y-81500000D02*
X112000000Y-82309412D01*
X112000000Y-82309412D02*
X112600000Y-82909412D01*
%TD*%
D25*
%TO.N,/Power /+VBAT*%
G36*
X102873000Y-79600000D02*
G01*
X102875440Y-79624776D01*
X102882667Y-79648601D01*
X102894403Y-79670557D01*
X102910197Y-79689803D01*
X102929443Y-79705597D01*
X102951399Y-79717333D01*
X102975224Y-79724560D01*
X103000000Y-79727000D01*
X104073000Y-79727000D01*
X104073000Y-83033391D01*
X104004774Y-83198102D01*
X103965000Y-83398061D01*
X103965000Y-83601939D01*
X104004774Y-83801898D01*
X104073000Y-83966609D01*
X104073000Y-84033391D01*
X104004774Y-84198102D01*
X103965000Y-84398061D01*
X103965000Y-84465000D01*
X103898061Y-84465000D01*
X103698102Y-84504774D01*
X103509744Y-84582795D01*
X103374742Y-84673000D01*
X101836751Y-84673000D01*
X101746260Y-84655000D01*
X101453740Y-84655000D01*
X101363249Y-84673000D01*
X100660000Y-84673000D01*
X100660000Y-78727000D01*
X102873000Y-78727000D01*
X102873000Y-79600000D01*
G37*
X102873000Y-79600000D02*
X102875440Y-79624776D01*
X102882667Y-79648601D01*
X102894403Y-79670557D01*
X102910197Y-79689803D01*
X102929443Y-79705597D01*
X102951399Y-79717333D01*
X102975224Y-79724560D01*
X103000000Y-79727000D01*
X104073000Y-79727000D01*
X104073000Y-83033391D01*
X104004774Y-83198102D01*
X103965000Y-83398061D01*
X103965000Y-83601939D01*
X104004774Y-83801898D01*
X104073000Y-83966609D01*
X104073000Y-84033391D01*
X104004774Y-84198102D01*
X103965000Y-84398061D01*
X103965000Y-84465000D01*
X103898061Y-84465000D01*
X103698102Y-84504774D01*
X103509744Y-84582795D01*
X103374742Y-84673000D01*
X101836751Y-84673000D01*
X101746260Y-84655000D01*
X101453740Y-84655000D01*
X101363249Y-84673000D01*
X100660000Y-84673000D01*
X100660000Y-78727000D01*
X102873000Y-78727000D01*
X102873000Y-79600000D01*
%TO.N,+VIN*%
G36*
X105973000Y-76522324D02*
G01*
X105955063Y-76544180D01*
X105891720Y-76662687D01*
X105852714Y-76791274D01*
X105839543Y-76925000D01*
X105839543Y-77475000D01*
X105852714Y-77608726D01*
X105891720Y-77737313D01*
X105955063Y-77855820D01*
X105973000Y-77877676D01*
X105973000Y-77900000D01*
X105975440Y-77924776D01*
X105982667Y-77948601D01*
X105994403Y-77970557D01*
X106010197Y-77989803D01*
X106029443Y-78005597D01*
X106051399Y-78017333D01*
X106075224Y-78024560D01*
X106100000Y-78027000D01*
X106122324Y-78027000D01*
X106144180Y-78044937D01*
X106262687Y-78108280D01*
X106391274Y-78147286D01*
X106525000Y-78160457D01*
X106875000Y-78160457D01*
X107008726Y-78147286D01*
X107137313Y-78108280D01*
X107173000Y-78089205D01*
X107173000Y-79000000D01*
X107175440Y-79024776D01*
X107182667Y-79048601D01*
X107194403Y-79070557D01*
X107210197Y-79089803D01*
X107229443Y-79105597D01*
X107251399Y-79117333D01*
X107275224Y-79124560D01*
X107300000Y-79127000D01*
X110365000Y-79127000D01*
X110365000Y-79395357D01*
X110364543Y-79400000D01*
X110364543Y-80300000D01*
X110373000Y-80385868D01*
X110373000Y-80473000D01*
X109677676Y-80473000D01*
X109655820Y-80455063D01*
X109537313Y-80391720D01*
X109408726Y-80352714D01*
X109275000Y-80339543D01*
X108925000Y-80339543D01*
X108791274Y-80352714D01*
X108662687Y-80391720D01*
X108544180Y-80455063D01*
X108522324Y-80473000D01*
X108477676Y-80473000D01*
X108455820Y-80455063D01*
X108337313Y-80391720D01*
X108208726Y-80352714D01*
X108075000Y-80339543D01*
X107725000Y-80339543D01*
X107591274Y-80352714D01*
X107462687Y-80391720D01*
X107344180Y-80455063D01*
X107322324Y-80473000D01*
X107277676Y-80473000D01*
X107255820Y-80455063D01*
X107137313Y-80391720D01*
X107008726Y-80352714D01*
X106875000Y-80339543D01*
X106525000Y-80339543D01*
X106391274Y-80352714D01*
X106262687Y-80391720D01*
X106144180Y-80455063D01*
X106122324Y-80473000D01*
X104727000Y-80473000D01*
X104727000Y-78960342D01*
X104755820Y-78944937D01*
X104859691Y-78859691D01*
X104944937Y-78755820D01*
X105008280Y-78637313D01*
X105047286Y-78508726D01*
X105060457Y-78375000D01*
X105060457Y-78025000D01*
X105047286Y-77891274D01*
X105008280Y-77762687D01*
X104944937Y-77644180D01*
X104927000Y-77622324D01*
X104927000Y-77600000D01*
X104924560Y-77575224D01*
X104917333Y-77551399D01*
X104905597Y-77529443D01*
X104889803Y-77510197D01*
X104870557Y-77494403D01*
X104848601Y-77482667D01*
X104824776Y-77475440D01*
X104800000Y-77473000D01*
X104777676Y-77473000D01*
X104755820Y-77455063D01*
X104733000Y-77442866D01*
X104733000Y-76631085D01*
X104736062Y-76599999D01*
X104730564Y-76544180D01*
X104723840Y-76475910D01*
X104687645Y-76356590D01*
X104628866Y-76246623D01*
X104549764Y-76150236D01*
X104527000Y-76131554D01*
X104527000Y-75727000D01*
X105973000Y-75727000D01*
X105973000Y-76522324D01*
G37*
X105973000Y-76522324D02*
X105955063Y-76544180D01*
X105891720Y-76662687D01*
X105852714Y-76791274D01*
X105839543Y-76925000D01*
X105839543Y-77475000D01*
X105852714Y-77608726D01*
X105891720Y-77737313D01*
X105955063Y-77855820D01*
X105973000Y-77877676D01*
X105973000Y-77900000D01*
X105975440Y-77924776D01*
X105982667Y-77948601D01*
X105994403Y-77970557D01*
X106010197Y-77989803D01*
X106029443Y-78005597D01*
X106051399Y-78017333D01*
X106075224Y-78024560D01*
X106100000Y-78027000D01*
X106122324Y-78027000D01*
X106144180Y-78044937D01*
X106262687Y-78108280D01*
X106391274Y-78147286D01*
X106525000Y-78160457D01*
X106875000Y-78160457D01*
X107008726Y-78147286D01*
X107137313Y-78108280D01*
X107173000Y-78089205D01*
X107173000Y-79000000D01*
X107175440Y-79024776D01*
X107182667Y-79048601D01*
X107194403Y-79070557D01*
X107210197Y-79089803D01*
X107229443Y-79105597D01*
X107251399Y-79117333D01*
X107275224Y-79124560D01*
X107300000Y-79127000D01*
X110365000Y-79127000D01*
X110365000Y-79395357D01*
X110364543Y-79400000D01*
X110364543Y-80300000D01*
X110373000Y-80385868D01*
X110373000Y-80473000D01*
X109677676Y-80473000D01*
X109655820Y-80455063D01*
X109537313Y-80391720D01*
X109408726Y-80352714D01*
X109275000Y-80339543D01*
X108925000Y-80339543D01*
X108791274Y-80352714D01*
X108662687Y-80391720D01*
X108544180Y-80455063D01*
X108522324Y-80473000D01*
X108477676Y-80473000D01*
X108455820Y-80455063D01*
X108337313Y-80391720D01*
X108208726Y-80352714D01*
X108075000Y-80339543D01*
X107725000Y-80339543D01*
X107591274Y-80352714D01*
X107462687Y-80391720D01*
X107344180Y-80455063D01*
X107322324Y-80473000D01*
X107277676Y-80473000D01*
X107255820Y-80455063D01*
X107137313Y-80391720D01*
X107008726Y-80352714D01*
X106875000Y-80339543D01*
X106525000Y-80339543D01*
X106391274Y-80352714D01*
X106262687Y-80391720D01*
X106144180Y-80455063D01*
X106122324Y-80473000D01*
X104727000Y-80473000D01*
X104727000Y-78960342D01*
X104755820Y-78944937D01*
X104859691Y-78859691D01*
X104944937Y-78755820D01*
X105008280Y-78637313D01*
X105047286Y-78508726D01*
X105060457Y-78375000D01*
X105060457Y-78025000D01*
X105047286Y-77891274D01*
X105008280Y-77762687D01*
X104944937Y-77644180D01*
X104927000Y-77622324D01*
X104927000Y-77600000D01*
X104924560Y-77575224D01*
X104917333Y-77551399D01*
X104905597Y-77529443D01*
X104889803Y-77510197D01*
X104870557Y-77494403D01*
X104848601Y-77482667D01*
X104824776Y-77475440D01*
X104800000Y-77473000D01*
X104777676Y-77473000D01*
X104755820Y-77455063D01*
X104733000Y-77442866D01*
X104733000Y-76631085D01*
X104736062Y-76599999D01*
X104730564Y-76544180D01*
X104723840Y-76475910D01*
X104687645Y-76356590D01*
X104628866Y-76246623D01*
X104549764Y-76150236D01*
X104527000Y-76131554D01*
X104527000Y-75727000D01*
X105973000Y-75727000D01*
X105973000Y-76522324D01*
%TO.N,Net-(L1-Pad1)*%
G36*
X111073000Y-76785772D02*
G01*
X111049899Y-76795341D01*
X110901182Y-76894711D01*
X110774709Y-77021184D01*
X110675339Y-77169901D01*
X110606892Y-77335146D01*
X110571998Y-77510570D01*
X110571998Y-77689430D01*
X110606892Y-77864854D01*
X110675339Y-78030099D01*
X110774709Y-78178816D01*
X110867001Y-78271108D01*
X110867000Y-78953338D01*
X110827000Y-78931957D01*
X110827000Y-78600000D01*
X110824560Y-78575224D01*
X110817333Y-78551399D01*
X110805597Y-78529443D01*
X110789803Y-78510197D01*
X110770557Y-78494403D01*
X110748601Y-78482667D01*
X110724776Y-78475440D01*
X110700000Y-78473000D01*
X109327000Y-78473000D01*
X109327000Y-75626163D01*
X109373106Y-75514854D01*
X109408000Y-75339430D01*
X109408000Y-75160570D01*
X109373106Y-74985146D01*
X109327000Y-74873837D01*
X109327000Y-73827000D01*
X111073000Y-73827000D01*
X111073000Y-76785772D01*
G37*
X111073000Y-76785772D02*
X111049899Y-76795341D01*
X110901182Y-76894711D01*
X110774709Y-77021184D01*
X110675339Y-77169901D01*
X110606892Y-77335146D01*
X110571998Y-77510570D01*
X110571998Y-77689430D01*
X110606892Y-77864854D01*
X110675339Y-78030099D01*
X110774709Y-78178816D01*
X110867001Y-78271108D01*
X110867000Y-78953338D01*
X110827000Y-78931957D01*
X110827000Y-78600000D01*
X110824560Y-78575224D01*
X110817333Y-78551399D01*
X110805597Y-78529443D01*
X110789803Y-78510197D01*
X110770557Y-78494403D01*
X110748601Y-78482667D01*
X110724776Y-78475440D01*
X110700000Y-78473000D01*
X109327000Y-78473000D01*
X109327000Y-75626163D01*
X109373106Y-75514854D01*
X109408000Y-75339430D01*
X109408000Y-75160570D01*
X109373106Y-74985146D01*
X109327000Y-74873837D01*
X109327000Y-73827000D01*
X111073000Y-73827000D01*
X111073000Y-76785772D01*
%TO.N,Net-(L1-Pad2)*%
G36*
X113373000Y-78373000D02*
G01*
X112200000Y-78373000D01*
X112175224Y-78375440D01*
X112151399Y-78382667D01*
X112133000Y-78392502D01*
X112133000Y-78231103D01*
X112185287Y-78178816D01*
X112284657Y-78030099D01*
X112353104Y-77864854D01*
X112387998Y-77689430D01*
X112387998Y-77510570D01*
X112353104Y-77335146D01*
X112284657Y-77169901D01*
X112185287Y-77021184D01*
X112058814Y-76894711D01*
X111927000Y-76806635D01*
X111927000Y-73827000D01*
X113373000Y-73827000D01*
X113373000Y-78373000D01*
G37*
X113373000Y-78373000D02*
X112200000Y-78373000D01*
X112175224Y-78375440D01*
X112151399Y-78382667D01*
X112133000Y-78392502D01*
X112133000Y-78231103D01*
X112185287Y-78178816D01*
X112284657Y-78030099D01*
X112353104Y-77864854D01*
X112387998Y-77689430D01*
X112387998Y-77510570D01*
X112353104Y-77335146D01*
X112284657Y-77169901D01*
X112185287Y-77021184D01*
X112058814Y-76894711D01*
X111927000Y-76806635D01*
X111927000Y-73827000D01*
X113373000Y-73827000D01*
X113373000Y-78373000D01*
%TO.N,+VOUT*%
G36*
X117673000Y-79200000D02*
G01*
X117675440Y-79224776D01*
X117682667Y-79248601D01*
X117694403Y-79270557D01*
X117710197Y-79289803D01*
X117729443Y-79305597D01*
X117751399Y-79317333D01*
X117775224Y-79324560D01*
X117800000Y-79327000D01*
X121273000Y-79327000D01*
X121273000Y-81073000D01*
X119127000Y-81073000D01*
X119127000Y-80800000D01*
X119124560Y-80775224D01*
X119117333Y-80751399D01*
X119105597Y-80729443D01*
X119089803Y-80710197D01*
X119070557Y-80694403D01*
X119048601Y-80682667D01*
X119024776Y-80675440D01*
X119000977Y-80673004D01*
X118775568Y-80671270D01*
X118755820Y-80655063D01*
X118637313Y-80591720D01*
X118508726Y-80552714D01*
X118375000Y-80539543D01*
X118025000Y-80539543D01*
X117891274Y-80552714D01*
X117762687Y-80591720D01*
X117700000Y-80625227D01*
X117637313Y-80591720D01*
X117508726Y-80552714D01*
X117375000Y-80539543D01*
X117025000Y-80539543D01*
X116891274Y-80552714D01*
X116762687Y-80591720D01*
X116700000Y-80625227D01*
X116637313Y-80591720D01*
X116508726Y-80552714D01*
X116375000Y-80539543D01*
X116025000Y-80539543D01*
X115891274Y-80552714D01*
X115762687Y-80591720D01*
X115658714Y-80647294D01*
X115641031Y-80647158D01*
X115537313Y-80591720D01*
X115408726Y-80552714D01*
X115275000Y-80539543D01*
X114925000Y-80539543D01*
X114791274Y-80552714D01*
X114662687Y-80591720D01*
X114574321Y-80638953D01*
X114524969Y-80638573D01*
X114437313Y-80591720D01*
X114308726Y-80552714D01*
X114175000Y-80539543D01*
X113825000Y-80539543D01*
X113691274Y-80552714D01*
X113562687Y-80591720D01*
X113489927Y-80630611D01*
X112627000Y-80623973D01*
X112627000Y-80385868D01*
X112635457Y-80300000D01*
X112635457Y-79400000D01*
X112635000Y-79395360D01*
X112635000Y-78927000D01*
X115400000Y-78927000D01*
X115424776Y-78924560D01*
X115448601Y-78917333D01*
X115470557Y-78905597D01*
X115489803Y-78889803D01*
X115505597Y-78870557D01*
X115517333Y-78848601D01*
X115524560Y-78824776D01*
X115527000Y-78800000D01*
X115527000Y-77727000D01*
X117673000Y-77727000D01*
X117673000Y-79200000D01*
G37*
X117673000Y-79200000D02*
X117675440Y-79224776D01*
X117682667Y-79248601D01*
X117694403Y-79270557D01*
X117710197Y-79289803D01*
X117729443Y-79305597D01*
X117751399Y-79317333D01*
X117775224Y-79324560D01*
X117800000Y-79327000D01*
X121273000Y-79327000D01*
X121273000Y-81073000D01*
X119127000Y-81073000D01*
X119127000Y-80800000D01*
X119124560Y-80775224D01*
X119117333Y-80751399D01*
X119105597Y-80729443D01*
X119089803Y-80710197D01*
X119070557Y-80694403D01*
X119048601Y-80682667D01*
X119024776Y-80675440D01*
X119000977Y-80673004D01*
X118775568Y-80671270D01*
X118755820Y-80655063D01*
X118637313Y-80591720D01*
X118508726Y-80552714D01*
X118375000Y-80539543D01*
X118025000Y-80539543D01*
X117891274Y-80552714D01*
X117762687Y-80591720D01*
X117700000Y-80625227D01*
X117637313Y-80591720D01*
X117508726Y-80552714D01*
X117375000Y-80539543D01*
X117025000Y-80539543D01*
X116891274Y-80552714D01*
X116762687Y-80591720D01*
X116700000Y-80625227D01*
X116637313Y-80591720D01*
X116508726Y-80552714D01*
X116375000Y-80539543D01*
X116025000Y-80539543D01*
X115891274Y-80552714D01*
X115762687Y-80591720D01*
X115658714Y-80647294D01*
X115641031Y-80647158D01*
X115537313Y-80591720D01*
X115408726Y-80552714D01*
X115275000Y-80539543D01*
X114925000Y-80539543D01*
X114791274Y-80552714D01*
X114662687Y-80591720D01*
X114574321Y-80638953D01*
X114524969Y-80638573D01*
X114437313Y-80591720D01*
X114308726Y-80552714D01*
X114175000Y-80539543D01*
X113825000Y-80539543D01*
X113691274Y-80552714D01*
X113562687Y-80591720D01*
X113489927Y-80630611D01*
X112627000Y-80623973D01*
X112627000Y-80385868D01*
X112635457Y-80300000D01*
X112635457Y-79400000D01*
X112635000Y-79395360D01*
X112635000Y-78927000D01*
X115400000Y-78927000D01*
X115424776Y-78924560D01*
X115448601Y-78917333D01*
X115470557Y-78905597D01*
X115489803Y-78889803D01*
X115505597Y-78870557D01*
X115517333Y-78848601D01*
X115524560Y-78824776D01*
X115527000Y-78800000D01*
X115527000Y-77727000D01*
X117673000Y-77727000D01*
X117673000Y-79200000D01*
%TD*%
M02*
