M48
; DRILL file {KiCad (5.1.6)-1} date 07/26/20 11:24:23
; FORMAT={-:-/ absolute / inch / decimal}
; #@! TF.CreationDate,2020-07-26T11:24:23+05:30
; #@! TF.GenerationSoftware,Kicad,Pcbnew,(5.1.6)-1
FMAT,2
INCH
T1C0.0157
T2C0.0197
T3C0.0394
T4C0.0984
%
G90
G05
T1
X3.9764Y-2.874
X3.9764Y-2.9134
X3.9764Y-2.9528
X4.0157Y-2.9528
X4.0748Y-2.9921
X4.0945Y-3.3661
X4.0945Y-3.4055
X4.0945Y-3.4449
X4.1339Y-3.2874
X4.1339Y-3.3268
X4.1339Y-3.3858
X4.1339Y-3.4252
X4.1732Y-3.248
X4.1732Y-3.2992
X4.1732Y-3.3465
X4.1732Y-3.4094
X4.1811Y-3.4488
X4.2047Y-3.3228
X4.2047Y-3.378
X4.2126Y-3.248
X4.2205Y-3.4173
X4.2421Y-3.002
X4.2441Y-3.0472
X4.252Y-3.248
X4.252Y-3.3858
X4.2717Y-2.9626
X4.2913Y-3.248
X4.3209Y-3.4154
X4.3228Y-3.3701
X4.3622Y-3.252
X4.3701Y-3.3622
X4.3701Y-3.4016
X4.389Y-3.0551
X4.3937Y-3.2756
X4.4882Y-3.252
X4.5276Y-2.8839
X4.5276Y-2.9429
X4.5315Y-3.252
X4.5709Y-3.252
X4.5768Y-2.8839
X4.5768Y-2.9429
X4.622Y-3.2776
X4.685Y-3.0315
X4.685Y-3.0709
X4.685Y-3.3071
X4.7244Y-3.0315
X4.7244Y-3.0709
X4.7244Y-3.3268
X4.7638Y-3.0315
X4.7638Y-3.3465
T2
X4.5404Y-3.4331
X4.562Y-3.3809
X4.562Y-3.4853
X4.6142Y-3.3593
X4.6142Y-3.5069
X4.6664Y-3.3809
X4.6664Y-3.4853
X4.688Y-3.4331
X4.0285Y-2.8583
X4.0502Y-2.8061
X4.0502Y-2.9105
X4.1024Y-2.7844
X4.1024Y-2.9321
X4.1546Y-2.8061
X4.1546Y-2.9105
X4.1762Y-2.8583
T3
X4.6378Y-2.811
X4.7378Y-2.811
X4.7402Y-3.1535
X4.7402Y-3.2535
X4.0Y-3.2913
X4.0Y-3.3913
X4.0Y-3.0339
X4.0Y-3.1339
T4
X4.6142Y-3.4331
X4.1024Y-2.8583
T0
M30
